%FSLAX25Y25*%
%MOIN*%
G70*
G01*
G75*
%ADD10C,0.01000*%
%ADD11C,0.00100*%
%ADD12C,0.10000*%
%ADD13C,0.00600*%
%ADD14C,0.00200*%
%ADD15C,0.00500*%
%ADD16C,0.00667*%
%ADD17C,0.01600*%
%ADD18C,0.00800*%
D10*
X391050Y0D02*
X400000D01*
X391050Y170000D02*
X400000D01*
X399000Y0D02*
Y62806D01*
Y103994D02*
Y170000D01*
Y0D02*
X401000Y6000D01*
X397000D02*
X399000Y0D01*
X397000Y164000D02*
X399000Y170000D01*
X401000Y164000D01*
X390000Y171050D02*
Y180000D01*
X0Y171050D02*
Y180000D01*
X214494Y179000D02*
X390000D01*
X0D02*
X172306D01*
X384000Y181000D02*
X390000Y179000D01*
X384000Y177000D02*
X390000Y179000D01*
X0D02*
X6000Y177000D01*
X0Y179000D02*
X6000Y181000D01*
X-22921Y29702D02*
X-14921D01*
X-18421Y26202D02*
X-14921Y29702D01*
X-18421Y33202D02*
X-14921Y29702D01*
X-18421Y143602D02*
X-14921Y140102D01*
X-18421Y136602D02*
X-14921Y140102D01*
X-22921D02*
X-14921D01*
X28410Y153549D02*
X33360D01*
X28410D02*
Y158499D01*
Y153549D02*
X34067Y159206D01*
X28549Y26390D02*
X34206Y20733D01*
X28549Y26390D02*
X33499D01*
X28549Y21440D02*
Y26390D01*
X-51421Y33200D02*
Y29201D01*
X-49422Y27202D01*
X-47422Y29201D01*
Y33200D01*
X-45423Y30201D02*
X-41424D01*
X-35426Y32200D02*
X-36426Y33200D01*
X-38425D01*
X-39425Y32200D01*
Y28201D01*
X-38425Y27202D01*
X-36426D01*
X-35426Y28201D01*
X-33427Y31200D02*
Y28201D01*
X-32427Y27202D01*
X-29428D01*
Y31200D01*
X-26429Y32200D02*
Y31200D01*
X-27429D01*
X-25429D01*
X-26429D01*
Y28201D01*
X-25429Y27202D01*
X-51421Y143600D02*
Y139601D01*
X-49422Y137602D01*
X-47422Y139601D01*
Y143600D01*
X-45423Y140601D02*
X-41424D01*
X-35426Y142600D02*
X-36426Y143600D01*
X-38425D01*
X-39425Y142600D01*
Y138601D01*
X-38425Y137602D01*
X-36426D01*
X-35426Y138601D01*
X-33427Y141600D02*
Y138601D01*
X-32427Y137602D01*
X-29428D01*
Y141600D01*
X-26429Y142600D02*
Y141600D01*
X-27429D01*
X-25429D01*
X-26429D01*
Y138601D01*
X-25429Y137602D01*
X36000Y166998D02*
Y161000D01*
X38999D01*
X39999Y162000D01*
Y165998D01*
X38999Y166998D01*
X36000D01*
X41998Y164999D02*
Y161000D01*
Y162999D01*
X42998Y163999D01*
X43997Y164999D01*
X44997D01*
X47996Y161000D02*
X49995D01*
X48996D01*
Y164999D01*
X47996D01*
X52995Y161000D02*
X54994D01*
X53994D01*
Y166998D01*
X52995D01*
X57993Y161000D02*
X59992D01*
X58993D01*
Y166998D01*
X57993D01*
X72988Y165998D02*
X71988Y166998D01*
X69989D01*
X68989Y165998D01*
Y162000D01*
X69989Y161000D01*
X71988D01*
X72988Y162000D01*
X74987Y164999D02*
Y162000D01*
X75987Y161000D01*
X78986D01*
Y164999D01*
X81985Y165998D02*
Y164999D01*
X80985D01*
X82985D01*
X81985D01*
Y162000D01*
X82985Y161000D01*
X37000Y17998D02*
Y12000D01*
Y14999D01*
X40999D01*
Y17998D01*
Y12000D01*
X45997D02*
X43998D01*
X42998Y13000D01*
Y14999D01*
X43998Y15999D01*
X45997D01*
X46997Y14999D01*
Y13999D01*
X42998D01*
X48996Y12000D02*
X50995D01*
X49996D01*
Y17998D01*
X48996D01*
X54994Y12000D02*
Y16998D01*
Y14999D01*
X53995D01*
X55994D01*
X54994D01*
Y16998D01*
X55994Y17998D01*
X64991D02*
Y12000D01*
Y14999D01*
X68990D01*
Y17998D01*
Y12000D01*
X71989D02*
X73988D01*
X74988Y13000D01*
Y14999D01*
X73988Y15999D01*
X71989D01*
X70989Y14999D01*
Y13000D01*
X71989Y12000D01*
X76987D02*
X78986D01*
X77987D01*
Y17998D01*
X76987D01*
X84984Y12000D02*
X82985D01*
X81985Y13000D01*
Y14999D01*
X82985Y15999D01*
X84984D01*
X85984Y14999D01*
Y13999D01*
X81985D01*
D11*
X-10000Y29800D02*
X400000D01*
X-10500Y29300D02*
X-9500Y30300D01*
X-10500D02*
X-9500Y29300D01*
X-10500Y140700D02*
X-9500Y139700D01*
X-10500D02*
X-9500Y140700D01*
X-10000Y140200D02*
X400000D01*
X0Y170000D02*
X390000D01*
Y0D02*
Y170000D01*
X0Y0D02*
X390000D01*
X0D02*
Y170000D01*
X24293Y150000D02*
X25707D01*
X25000Y149293D02*
Y150707D01*
X24293Y29800D02*
X25707D01*
X25000Y29093D02*
Y30507D01*
D12*
X20000Y85000D02*
X370000D01*
X20000Y25000D02*
Y145000D01*
X90000Y25000D02*
Y145000D01*
X160000Y25000D02*
Y145000D01*
X230000Y25000D02*
Y145000D01*
X300000Y25000D02*
Y145000D01*
X370000Y25000D02*
Y145000D01*
D13*
X402599Y67405D02*
X396601D01*
X399600Y64406D01*
Y68405D01*
X397601Y70404D02*
X396601Y71404D01*
Y73403D01*
X397601Y74403D01*
X398600D01*
X399600Y73403D01*
Y72404D01*
Y73403D01*
X400600Y74403D01*
X401599D01*
X402599Y73403D01*
Y71404D01*
X401599Y70404D01*
X402599Y76402D02*
X401599D01*
Y77402D01*
X402599D01*
Y76402D01*
Y81401D02*
Y83400D01*
Y82400D01*
X396601D01*
X397601Y81401D01*
Y86399D02*
X396601Y87399D01*
Y89398D01*
X397601Y90398D01*
X398600D01*
X399600Y89398D01*
X400600Y90398D01*
X401599D01*
X402599Y89398D01*
Y87399D01*
X401599Y86399D01*
X400600D01*
X399600Y87399D01*
X398600Y86399D01*
X397601D01*
X399600Y87399D02*
Y89398D01*
X402599Y92397D02*
X398600D01*
Y93397D01*
X399600Y94397D01*
X402599D01*
X399600D01*
X398600Y95396D01*
X399600Y96396D01*
X402599D01*
Y98395D02*
X398600D01*
Y99395D01*
X399600Y100394D01*
X402599D01*
X399600D01*
X398600Y101394D01*
X399600Y102394D01*
X402599D01*
X173906Y176401D02*
X174906Y175401D01*
X176905D01*
X177905Y176401D01*
Y180399D01*
X176905Y181399D01*
X174906D01*
X173906Y180399D01*
Y179400D01*
X174906Y178400D01*
X177905D01*
X179904Y176401D02*
X180904Y175401D01*
X182903D01*
X183903Y176401D01*
Y180399D01*
X182903Y181399D01*
X180904D01*
X179904Y180399D01*
Y179400D01*
X180904Y178400D01*
X183903D01*
X185903Y175401D02*
Y176401D01*
X186902D01*
Y175401D01*
X185903D01*
X190901Y180399D02*
X191901Y181399D01*
X193900D01*
X194900Y180399D01*
Y176401D01*
X193900Y175401D01*
X191901D01*
X190901Y176401D01*
Y180399D01*
X200898Y181399D02*
X198898Y180399D01*
X196899Y178400D01*
Y176401D01*
X197899Y175401D01*
X199898D01*
X200898Y176401D01*
Y177400D01*
X199898Y178400D01*
X196899D01*
X202897Y175401D02*
Y179400D01*
X203897D01*
X204896Y178400D01*
Y175401D01*
Y178400D01*
X205896Y179400D01*
X206896Y178400D01*
Y175401D01*
X208895D02*
Y179400D01*
X209895D01*
X210894Y178400D01*
Y175401D01*
Y178400D01*
X211894Y179400D01*
X212894Y178400D01*
Y175401D01*
D14*
X25000Y90000D02*
X85000D01*
Y140000D01*
X25000D02*
X85000D01*
X25000Y90000D02*
Y140000D01*
X95000Y90000D02*
X155000D01*
Y140000D01*
X95000D02*
X155000D01*
X95000Y90000D02*
Y140000D01*
X165000Y90000D02*
X225001D01*
Y140000D01*
X165000D02*
X225001D01*
X165000Y90000D02*
Y140000D01*
X235000Y90000D02*
X295001D01*
Y140000D01*
X235000D02*
X295001D01*
X235000Y90000D02*
Y140000D01*
X305000Y90000D02*
X365001D01*
Y140000D01*
X305000D02*
X365001D01*
X305000Y90000D02*
Y140000D01*
X365000Y80000D02*
X305000D01*
Y30000D01*
X365000D02*
X305000D01*
X365000Y80000D02*
Y30000D01*
X295000Y80000D02*
X235000D01*
Y30000D01*
X295000D02*
X235000D01*
X295000Y80000D02*
Y30000D01*
X225000Y80000D02*
X165000D01*
Y30000D01*
X225000D02*
X165000D01*
X225000Y80000D02*
Y30000D01*
X155000Y80000D02*
X95000D01*
Y30000D01*
X155000D02*
X95000D01*
X155000Y80000D02*
Y30000D01*
X85000Y80000D02*
X25000D01*
Y30000D01*
X85000D02*
X25000D01*
X85000Y80000D02*
Y30000D01*
D15*
X7095Y13000D02*
X18906D01*
X13000Y7095D02*
Y18906D01*
X371094Y13000D02*
X382906D01*
X377000Y7095D02*
Y18906D01*
X371094Y157000D02*
X382906D01*
X377000Y151094D02*
Y162906D01*
X7095Y157000D02*
X18906D01*
X13000Y151094D02*
Y162906D01*
X23500Y135000D02*
X26500D01*
X25000Y133500D02*
Y136500D01*
X63500Y90000D02*
X66500D01*
X65000Y88500D02*
Y91500D01*
X68500Y90000D02*
X71500D01*
X70000Y88500D02*
Y91500D01*
X73500Y90000D02*
X76500D01*
X75000Y88500D02*
Y91500D01*
X83500Y130000D02*
X86500D01*
X85000Y128500D02*
Y131500D01*
X83500Y135000D02*
X86500D01*
X85000Y133500D02*
Y136500D01*
X23500Y95000D02*
X26500D01*
X25000Y93500D02*
Y96500D01*
X23500Y120000D02*
X26500D01*
X25000Y118500D02*
Y121500D01*
X83500Y95000D02*
X86500D01*
X85000Y93500D02*
Y96500D01*
X83500Y105000D02*
X86500D01*
X85000Y103500D02*
Y106500D01*
X83500Y100000D02*
X86500D01*
X85000Y98500D02*
Y101500D01*
X23496Y125000D02*
X26496D01*
X24996Y123500D02*
Y126500D01*
X23500Y100000D02*
X26500D01*
X25000Y98500D02*
Y101500D01*
X23500Y115000D02*
X26500D01*
X25000Y113500D02*
Y116500D01*
X23500Y110000D02*
X26500D01*
X25000Y108500D02*
Y111500D01*
X23500Y105000D02*
X26500D01*
X25000Y103500D02*
Y106500D01*
X23500Y130000D02*
X26500D01*
X25000Y128500D02*
Y131500D01*
X28500Y90000D02*
X31500D01*
X30000Y88500D02*
Y91500D01*
X78500Y90000D02*
X81500D01*
X80000Y88500D02*
Y91500D01*
X58500Y90000D02*
X61500D01*
X60000Y88500D02*
Y91500D01*
X83500Y110000D02*
X86500D01*
X85000Y108500D02*
Y111500D01*
X83500Y115000D02*
X86500D01*
X85000Y113500D02*
Y116500D01*
X83500Y120000D02*
X86500D01*
X85000Y118500D02*
Y121500D01*
X83500Y125000D02*
X86500D01*
X85000Y123500D02*
Y126500D01*
X53500Y90000D02*
X56500D01*
X55000Y88500D02*
Y91500D01*
X33500Y90000D02*
X36500D01*
X35000Y88500D02*
Y91500D01*
X38500Y90000D02*
X41500D01*
X40000Y88500D02*
Y91500D01*
X43500Y90000D02*
X46500D01*
X45000Y88500D02*
Y91500D01*
X48500Y90000D02*
X51500D01*
X50000Y88500D02*
Y91500D01*
X36600Y102600D02*
X37800D01*
X37200Y102000D02*
Y103200D01*
X56200Y117800D02*
X57400D01*
X56800Y117200D02*
Y118400D01*
X72000Y105800D02*
X73200D01*
X72600Y105200D02*
Y106400D01*
X59400Y102800D02*
X60600D01*
X60000Y102200D02*
Y103400D01*
X51000Y101900D02*
X52200D01*
X51600Y101300D02*
Y102500D01*
X55100Y105300D02*
X56300D01*
X55700Y104700D02*
Y105900D01*
X52000Y116500D02*
X53200D01*
X52600Y115900D02*
Y117100D01*
X72500Y93900D02*
X73700D01*
X73100Y93300D02*
Y94500D01*
X70383Y98358D02*
X71583D01*
X70983Y97758D02*
Y98958D01*
X72015Y102100D02*
X73215D01*
X72615Y101500D02*
Y102700D01*
X58880Y125700D02*
X60080D01*
X59480Y125100D02*
Y126300D01*
X42300Y138500D02*
X43500D01*
X42900Y137900D02*
Y139100D01*
X37100Y109100D02*
X38300D01*
X37700Y108500D02*
Y109700D01*
X53600Y113700D02*
X54800D01*
X54200Y113100D02*
Y114300D01*
X43900Y125500D02*
X45100D01*
X44500Y124900D02*
Y126100D01*
X40400Y131700D02*
X41600D01*
X41000Y131100D02*
Y132300D01*
X54800Y120000D02*
X56000D01*
X55400Y119400D02*
Y120600D01*
X60600Y120900D02*
X61800D01*
X61200Y120300D02*
Y121500D01*
X57900Y130700D02*
X59100D01*
X58500Y130100D02*
Y131300D01*
X53700Y134500D02*
X54900D01*
X54300Y133900D02*
Y135100D01*
X70300Y114000D02*
X71500D01*
X70900Y113400D02*
Y114600D01*
X51000Y99300D02*
X52200D01*
X51600Y98700D02*
Y99900D01*
X72900Y108600D02*
X74100D01*
X73500Y108000D02*
Y109200D01*
X72900Y116500D02*
X74100D01*
X73500Y115900D02*
Y117100D01*
X42800Y118100D02*
X44000D01*
X43400Y117500D02*
Y118700D01*
X45000Y107600D02*
X46200D01*
X45600Y107000D02*
Y108200D01*
X41800Y108000D02*
X43000D01*
X42400Y107400D02*
Y108600D01*
X56600Y101500D02*
X57800D01*
X57200Y100900D02*
Y102100D01*
X68900Y120500D02*
X70100D01*
X69500Y119900D02*
Y121100D01*
X66300Y120600D02*
X67500D01*
X66900Y120000D02*
Y121200D01*
X59200Y99000D02*
X60400D01*
X59800Y98400D02*
Y99600D01*
X51000Y111900D02*
X52200D01*
X51600Y111300D02*
Y112500D01*
X44100Y136300D02*
X45300D01*
X44700Y135700D02*
Y136900D01*
X49300Y123700D02*
X50500D01*
X49900Y123100D02*
Y124300D01*
X81000Y107600D02*
X82200D01*
X81600Y107000D02*
Y108200D01*
X78400Y101100D02*
X79600D01*
X79000Y100500D02*
Y101700D01*
X72835Y120835D02*
X74035D01*
X73435Y120235D02*
Y121435D01*
X40600Y129000D02*
X41800D01*
X41200Y128400D02*
Y129600D01*
X79200Y136400D02*
X80400D01*
X79800Y135800D02*
Y137000D01*
X79200Y123200D02*
X80400D01*
X79800Y122600D02*
Y123800D01*
X64600Y136500D02*
X65800D01*
X65200Y135900D02*
Y137100D01*
X33100Y123800D02*
X34300D01*
X33700Y123200D02*
Y124400D01*
X35800Y97600D02*
X37000D01*
X36400Y97000D02*
Y98200D01*
X47400Y121700D02*
X48600D01*
X48000Y121100D02*
Y122300D01*
X61800Y99000D02*
X63000D01*
X62400Y98400D02*
Y99600D01*
X81400Y137900D02*
X82600D01*
X82000Y137300D02*
Y138500D01*
X50900Y134900D02*
X52100D01*
X51500Y134300D02*
Y135500D01*
X50300Y114500D02*
X51500D01*
X50900Y113900D02*
Y115100D01*
X50300Y118500D02*
X51500D01*
X50900Y117900D02*
Y119100D01*
X59900Y110200D02*
X61100D01*
X60500Y109600D02*
Y110800D01*
X37300Y131500D02*
X38500D01*
X37900Y130900D02*
Y132100D01*
X64300Y115600D02*
X65500D01*
X64900Y115000D02*
Y116200D01*
X65900Y107000D02*
X67100D01*
X66500Y106400D02*
Y107600D01*
X35200Y129600D02*
X36400D01*
X35800Y129000D02*
Y130200D01*
X34938Y133862D02*
X36138D01*
X35538Y133262D02*
Y134462D01*
X93500Y135000D02*
X96500D01*
X95000Y133500D02*
Y136500D01*
X133500Y90000D02*
X136500D01*
X135000Y88500D02*
Y91500D01*
X138500Y90000D02*
X141500D01*
X140000Y88500D02*
Y91500D01*
X143500Y90000D02*
X146500D01*
X145000Y88500D02*
Y91500D01*
X153500Y130000D02*
X156500D01*
X155000Y128500D02*
Y131500D01*
X153500Y135000D02*
X156500D01*
X155000Y133500D02*
Y136500D01*
X93500Y95000D02*
X96500D01*
X95000Y93500D02*
Y96500D01*
X93500Y120000D02*
X96500D01*
X95000Y118500D02*
Y121500D01*
X153500Y95000D02*
X156500D01*
X155000Y93500D02*
Y96500D01*
X153500Y105000D02*
X156500D01*
X155000Y103500D02*
Y106500D01*
X153500Y100000D02*
X156500D01*
X155000Y98500D02*
Y101500D01*
X93496Y125000D02*
X96496D01*
X94996Y123500D02*
Y126500D01*
X93500Y100000D02*
X96500D01*
X95000Y98500D02*
Y101500D01*
X93500Y115000D02*
X96500D01*
X95000Y113500D02*
Y116500D01*
X93500Y110000D02*
X96500D01*
X95000Y108500D02*
Y111500D01*
X93500Y105000D02*
X96500D01*
X95000Y103500D02*
Y106500D01*
X93500Y130000D02*
X96500D01*
X95000Y128500D02*
Y131500D01*
X98500Y90000D02*
X101500D01*
X100000Y88500D02*
Y91500D01*
X148500Y90000D02*
X151500D01*
X150000Y88500D02*
Y91500D01*
X128500Y90000D02*
X131500D01*
X130000Y88500D02*
Y91500D01*
X153500Y110000D02*
X156500D01*
X155000Y108500D02*
Y111500D01*
X153500Y115000D02*
X156500D01*
X155000Y113500D02*
Y116500D01*
X153500Y120000D02*
X156500D01*
X155000Y118500D02*
Y121500D01*
X153500Y125000D02*
X156500D01*
X155000Y123500D02*
Y126500D01*
X123500Y90000D02*
X126500D01*
X125000Y88500D02*
Y91500D01*
X103500Y90000D02*
X106500D01*
X105000Y88500D02*
Y91500D01*
X108500Y90000D02*
X111500D01*
X110000Y88500D02*
Y91500D01*
X113500Y90000D02*
X116500D01*
X115000Y88500D02*
Y91500D01*
X118500Y90000D02*
X121500D01*
X120000Y88500D02*
Y91500D01*
X106600Y102600D02*
X107800D01*
X107200Y102000D02*
Y103200D01*
X126200Y117800D02*
X127400D01*
X126800Y117200D02*
Y118400D01*
X142000Y105800D02*
X143200D01*
X142600Y105200D02*
Y106400D01*
X129400Y102800D02*
X130600D01*
X130000Y102200D02*
Y103400D01*
X121000Y101900D02*
X122200D01*
X121600Y101300D02*
Y102500D01*
X125100Y105300D02*
X126300D01*
X125700Y104700D02*
Y105900D01*
X122000Y116500D02*
X123200D01*
X122600Y115900D02*
Y117100D01*
X142500Y93900D02*
X143700D01*
X143100Y93300D02*
Y94500D01*
X140383Y98358D02*
X141583D01*
X140982Y97758D02*
Y98958D01*
X142015Y102100D02*
X143215D01*
X142615Y101500D02*
Y102700D01*
X128880Y125700D02*
X130080D01*
X129480Y125100D02*
Y126300D01*
X112300Y138500D02*
X113500D01*
X112900Y137900D02*
Y139100D01*
X107100Y109100D02*
X108300D01*
X107700Y108500D02*
Y109700D01*
X123600Y113700D02*
X124800D01*
X124200Y113100D02*
Y114300D01*
X113900Y125500D02*
X115100D01*
X114500Y124900D02*
Y126100D01*
X110400Y131700D02*
X111600D01*
X111000Y131100D02*
Y132300D01*
X124800Y120000D02*
X126000D01*
X125400Y119400D02*
Y120600D01*
X130600Y120900D02*
X131800D01*
X131200Y120300D02*
Y121500D01*
X127900Y130700D02*
X129100D01*
X128500Y130100D02*
Y131300D01*
X123700Y134500D02*
X124900D01*
X124300Y133900D02*
Y135100D01*
X140300Y114000D02*
X141500D01*
X140900Y113400D02*
Y114600D01*
X121000Y99300D02*
X122200D01*
X121600Y98700D02*
Y99900D01*
X142900Y108600D02*
X144100D01*
X143500Y108000D02*
Y109200D01*
X142900Y116500D02*
X144100D01*
X143500Y115900D02*
Y117100D01*
X112800Y118100D02*
X114000D01*
X113400Y117500D02*
Y118700D01*
X115000Y107600D02*
X116200D01*
X115600Y107000D02*
Y108200D01*
X111800Y108000D02*
X113000D01*
X112400Y107400D02*
Y108600D01*
X126600Y101500D02*
X127800D01*
X127200Y100900D02*
Y102100D01*
X138900Y120500D02*
X140100D01*
X139500Y119900D02*
Y121100D01*
X136300Y120600D02*
X137500D01*
X136900Y120000D02*
Y121200D01*
X129200Y99000D02*
X130400D01*
X129800Y98400D02*
Y99600D01*
X121000Y111900D02*
X122200D01*
X121600Y111300D02*
Y112500D01*
X114100Y136300D02*
X115300D01*
X114700Y135700D02*
Y136900D01*
X119300Y123700D02*
X120500D01*
X119900Y123100D02*
Y124300D01*
X151000Y107600D02*
X152200D01*
X151600Y107000D02*
Y108200D01*
X148400Y101100D02*
X149600D01*
X149000Y100500D02*
Y101700D01*
X142835Y120835D02*
X144035D01*
X143435Y120235D02*
Y121435D01*
X110600Y129000D02*
X111800D01*
X111200Y128400D02*
Y129600D01*
X149200Y136400D02*
X150400D01*
X149800Y135800D02*
Y137000D01*
X149200Y123200D02*
X150400D01*
X149800Y122600D02*
Y123800D01*
X134600Y136500D02*
X135800D01*
X135200Y135900D02*
Y137100D01*
X103100Y123800D02*
X104300D01*
X103700Y123200D02*
Y124400D01*
X105800Y97600D02*
X107000D01*
X106400Y97000D02*
Y98200D01*
X117400Y121700D02*
X118600D01*
X118000Y121100D02*
Y122300D01*
X131800Y99000D02*
X133000D01*
X132400Y98400D02*
Y99600D01*
X151400Y137900D02*
X152600D01*
X152000Y137300D02*
Y138500D01*
X120900Y134900D02*
X122100D01*
X121500Y134300D02*
Y135500D01*
X120300Y114500D02*
X121500D01*
X120900Y113900D02*
Y115100D01*
X120300Y118500D02*
X121500D01*
X120900Y117900D02*
Y119100D01*
X129900Y110200D02*
X131100D01*
X130500Y109600D02*
Y110800D01*
X107300Y131500D02*
X108500D01*
X107900Y130900D02*
Y132100D01*
X134300Y115600D02*
X135500D01*
X134900Y115000D02*
Y116200D01*
X135900Y107000D02*
X137100D01*
X136500Y106400D02*
Y107600D01*
X105200Y129600D02*
X106400D01*
X105800Y129000D02*
Y130200D01*
X104938Y133862D02*
X106138D01*
X105538Y133262D02*
Y134462D01*
X163500Y135000D02*
X166500D01*
X165000Y133500D02*
Y136500D01*
X203500Y90000D02*
X206500D01*
X205000Y88500D02*
Y91500D01*
X208500Y90000D02*
X211500D01*
X210000Y88500D02*
Y91500D01*
X213500Y90000D02*
X216500D01*
X215000Y88500D02*
Y91500D01*
X223500Y130000D02*
X226500D01*
X225000Y128500D02*
Y131500D01*
X223500Y135000D02*
X226500D01*
X225000Y133500D02*
Y136500D01*
X163500Y95000D02*
X166500D01*
X165000Y93500D02*
Y96500D01*
X163500Y120000D02*
X166500D01*
X165000Y118500D02*
Y121500D01*
X223500Y95000D02*
X226500D01*
X225000Y93500D02*
Y96500D01*
X223500Y105000D02*
X226500D01*
X225000Y103500D02*
Y106500D01*
X223500Y100000D02*
X226500D01*
X225000Y98500D02*
Y101500D01*
X163496Y125000D02*
X166496D01*
X164996Y123500D02*
Y126500D01*
X163500Y100000D02*
X166500D01*
X165000Y98500D02*
Y101500D01*
X163500Y115000D02*
X166500D01*
X165000Y113500D02*
Y116500D01*
X163500Y110000D02*
X166500D01*
X165000Y108500D02*
Y111500D01*
X163500Y105000D02*
X166500D01*
X165000Y103500D02*
Y106500D01*
X163500Y130000D02*
X166500D01*
X165000Y128500D02*
Y131500D01*
X168500Y90000D02*
X171500D01*
X170000Y88500D02*
Y91500D01*
X218500Y90000D02*
X221500D01*
X220000Y88500D02*
Y91500D01*
X198500Y90000D02*
X201500D01*
X200000Y88500D02*
Y91500D01*
X223500Y110000D02*
X226500D01*
X225000Y108500D02*
Y111500D01*
X223500Y115000D02*
X226500D01*
X225000Y113500D02*
Y116500D01*
X223500Y120000D02*
X226500D01*
X225000Y118500D02*
Y121500D01*
X223500Y125000D02*
X226500D01*
X225000Y123500D02*
Y126500D01*
X193500Y90000D02*
X196500D01*
X195000Y88500D02*
Y91500D01*
X173500Y90000D02*
X176500D01*
X175000Y88500D02*
Y91500D01*
X178500Y90000D02*
X181500D01*
X180000Y88500D02*
Y91500D01*
X183500Y90000D02*
X186500D01*
X185000Y88500D02*
Y91500D01*
X188500Y90000D02*
X191500D01*
X190000Y88500D02*
Y91500D01*
X176600Y102600D02*
X177800D01*
X177200Y102000D02*
Y103200D01*
X196200Y117800D02*
X197400D01*
X196800Y117200D02*
Y118400D01*
X212000Y105800D02*
X213200D01*
X212600Y105200D02*
Y106400D01*
X199400Y102800D02*
X200600D01*
X200000Y102200D02*
Y103400D01*
X191000Y101900D02*
X192200D01*
X191600Y101300D02*
Y102500D01*
X195100Y105300D02*
X196300D01*
X195700Y104700D02*
Y105900D01*
X192000Y116500D02*
X193200D01*
X192600Y115900D02*
Y117100D01*
X212500Y93900D02*
X213700D01*
X213100Y93300D02*
Y94500D01*
X210383Y98358D02*
X211582D01*
X210982Y97758D02*
Y98958D01*
X212015Y102100D02*
X213215D01*
X212615Y101500D02*
Y102700D01*
X198880Y125700D02*
X200080D01*
X199480Y125100D02*
Y126300D01*
X182300Y138500D02*
X183500D01*
X182900Y137900D02*
Y139100D01*
X177100Y109100D02*
X178300D01*
X177700Y108500D02*
Y109700D01*
X193600Y113700D02*
X194800D01*
X194200Y113100D02*
Y114300D01*
X183900Y125500D02*
X185100D01*
X184500Y124900D02*
Y126100D01*
X180400Y131700D02*
X181600D01*
X181000Y131100D02*
Y132300D01*
X194800Y120000D02*
X196000D01*
X195400Y119400D02*
Y120600D01*
X200600Y120900D02*
X201800D01*
X201200Y120300D02*
Y121500D01*
X197900Y130700D02*
X199100D01*
X198500Y130100D02*
Y131300D01*
X193700Y134500D02*
X194900D01*
X194300Y133900D02*
Y135100D01*
X210300Y114000D02*
X211500D01*
X210900Y113400D02*
Y114600D01*
X191000Y99300D02*
X192200D01*
X191600Y98700D02*
Y99900D01*
X212900Y108600D02*
X214100D01*
X213500Y108000D02*
Y109200D01*
X212900Y116500D02*
X214100D01*
X213500Y115900D02*
Y117100D01*
X182800Y118100D02*
X184000D01*
X183400Y117500D02*
Y118700D01*
X185000Y107600D02*
X186200D01*
X185600Y107000D02*
Y108200D01*
X181800Y108000D02*
X183000D01*
X182400Y107400D02*
Y108600D01*
X196600Y101500D02*
X197800D01*
X197200Y100900D02*
Y102100D01*
X208900Y120500D02*
X210100D01*
X209500Y119900D02*
Y121100D01*
X206300Y120600D02*
X207500D01*
X206900Y120000D02*
Y121200D01*
X199200Y99000D02*
X200400D01*
X199800Y98400D02*
Y99600D01*
X191000Y111900D02*
X192200D01*
X191600Y111300D02*
Y112500D01*
X184100Y136300D02*
X185300D01*
X184700Y135700D02*
Y136900D01*
X189300Y123700D02*
X190500D01*
X189900Y123100D02*
Y124300D01*
X221000Y107600D02*
X222200D01*
X221600Y107000D02*
Y108200D01*
X218400Y101100D02*
X219600D01*
X219000Y100500D02*
Y101700D01*
X212835Y120835D02*
X214035D01*
X213435Y120235D02*
Y121435D01*
X180600Y129000D02*
X181800D01*
X181200Y128400D02*
Y129600D01*
X219200Y136400D02*
X220400D01*
X219800Y135800D02*
Y137000D01*
X219200Y123200D02*
X220400D01*
X219800Y122600D02*
Y123800D01*
X204600Y136500D02*
X205800D01*
X205200Y135900D02*
Y137100D01*
X173100Y123800D02*
X174300D01*
X173700Y123200D02*
Y124400D01*
X175800Y97600D02*
X177000D01*
X176400Y97000D02*
Y98200D01*
X187400Y121700D02*
X188600D01*
X188000Y121100D02*
Y122300D01*
X201800Y99000D02*
X203000D01*
X202400Y98400D02*
Y99600D01*
X221400Y137900D02*
X222600D01*
X222000Y137300D02*
Y138500D01*
X190900Y134900D02*
X192100D01*
X191500Y134300D02*
Y135500D01*
X190300Y114500D02*
X191500D01*
X190900Y113900D02*
Y115100D01*
X190300Y118500D02*
X191500D01*
X190900Y117900D02*
Y119100D01*
X199900Y110200D02*
X201100D01*
X200500Y109600D02*
Y110800D01*
X177300Y131500D02*
X178500D01*
X177900Y130900D02*
Y132100D01*
X204300Y115600D02*
X205500D01*
X204900Y115000D02*
Y116200D01*
X205900Y107000D02*
X207100D01*
X206500Y106400D02*
Y107600D01*
X175200Y129600D02*
X176400D01*
X175800Y129000D02*
Y130200D01*
X174938Y133862D02*
X176138D01*
X175538Y133262D02*
Y134462D01*
X233500Y135000D02*
X236500D01*
X235000Y133500D02*
Y136500D01*
X273500Y90000D02*
X276500D01*
X275000Y88500D02*
Y91500D01*
X278500Y90000D02*
X281500D01*
X280000Y88500D02*
Y91500D01*
X283500Y90000D02*
X286500D01*
X285000Y88500D02*
Y91500D01*
X293500Y130000D02*
X296500D01*
X295000Y128500D02*
Y131500D01*
X293500Y135000D02*
X296500D01*
X295000Y133500D02*
Y136500D01*
X233500Y95000D02*
X236500D01*
X235000Y93500D02*
Y96500D01*
X233500Y120000D02*
X236500D01*
X235000Y118500D02*
Y121500D01*
X293500Y95000D02*
X296500D01*
X295000Y93500D02*
Y96500D01*
X293500Y105000D02*
X296500D01*
X295000Y103500D02*
Y106500D01*
X293500Y100000D02*
X296500D01*
X295000Y98500D02*
Y101500D01*
X233496Y125000D02*
X236496D01*
X234996Y123500D02*
Y126500D01*
X233500Y100000D02*
X236500D01*
X235000Y98500D02*
Y101500D01*
X233500Y115000D02*
X236500D01*
X235000Y113500D02*
Y116500D01*
X233500Y110000D02*
X236500D01*
X235000Y108500D02*
Y111500D01*
X233500Y105000D02*
X236500D01*
X235000Y103500D02*
Y106500D01*
X233500Y130000D02*
X236500D01*
X235000Y128500D02*
Y131500D01*
X238500Y90000D02*
X241500D01*
X240000Y88500D02*
Y91500D01*
X288500Y90000D02*
X291500D01*
X290000Y88500D02*
Y91500D01*
X268500Y90000D02*
X271500D01*
X270000Y88500D02*
Y91500D01*
X293500Y110000D02*
X296500D01*
X295000Y108500D02*
Y111500D01*
X293500Y115000D02*
X296500D01*
X295000Y113500D02*
Y116500D01*
X293500Y120000D02*
X296500D01*
X295000Y118500D02*
Y121500D01*
X293500Y125000D02*
X296500D01*
X295000Y123500D02*
Y126500D01*
X263500Y90000D02*
X266500D01*
X265000Y88500D02*
Y91500D01*
X243500Y90000D02*
X246500D01*
X245000Y88500D02*
Y91500D01*
X248500Y90000D02*
X251500D01*
X250000Y88500D02*
Y91500D01*
X253500Y90000D02*
X256500D01*
X255000Y88500D02*
Y91500D01*
X258500Y90000D02*
X261500D01*
X260000Y88500D02*
Y91500D01*
X246600Y102600D02*
X247800D01*
X247200Y102000D02*
Y103200D01*
X266200Y117800D02*
X267400D01*
X266800Y117200D02*
Y118400D01*
X282000Y105800D02*
X283200D01*
X282600Y105200D02*
Y106400D01*
X269400Y102800D02*
X270600D01*
X270000Y102200D02*
Y103400D01*
X261000Y101900D02*
X262200D01*
X261600Y101300D02*
Y102500D01*
X265100Y105300D02*
X266300D01*
X265700Y104700D02*
Y105900D01*
X262000Y116500D02*
X263200D01*
X262600Y115900D02*
Y117100D01*
X282500Y93900D02*
X283700D01*
X283100Y93300D02*
Y94500D01*
X280382Y98358D02*
X281582D01*
X280982Y97758D02*
Y98958D01*
X282015Y102100D02*
X283215D01*
X282615Y101500D02*
Y102700D01*
X268880Y125700D02*
X270080D01*
X269480Y125100D02*
Y126300D01*
X252300Y138500D02*
X253500D01*
X252900Y137900D02*
Y139100D01*
X247100Y109100D02*
X248300D01*
X247700Y108500D02*
Y109700D01*
X263600Y113700D02*
X264800D01*
X264200Y113100D02*
Y114300D01*
X253900Y125500D02*
X255100D01*
X254500Y124900D02*
Y126100D01*
X250400Y131700D02*
X251600D01*
X251000Y131100D02*
Y132300D01*
X264800Y120000D02*
X266000D01*
X265400Y119400D02*
Y120600D01*
X270600Y120900D02*
X271800D01*
X271200Y120300D02*
Y121500D01*
X267900Y130700D02*
X269100D01*
X268500Y130100D02*
Y131300D01*
X263700Y134500D02*
X264900D01*
X264300Y133900D02*
Y135100D01*
X280300Y114000D02*
X281500D01*
X280900Y113400D02*
Y114600D01*
X261000Y99300D02*
X262200D01*
X261600Y98700D02*
Y99900D01*
X282900Y108600D02*
X284100D01*
X283500Y108000D02*
Y109200D01*
X282900Y116500D02*
X284100D01*
X283500Y115900D02*
Y117100D01*
X252800Y118100D02*
X254000D01*
X253400Y117500D02*
Y118700D01*
X255000Y107600D02*
X256200D01*
X255600Y107000D02*
Y108200D01*
X251800Y108000D02*
X253000D01*
X252400Y107400D02*
Y108600D01*
X266600Y101500D02*
X267800D01*
X267200Y100900D02*
Y102100D01*
X278900Y120500D02*
X280100D01*
X279500Y119900D02*
Y121100D01*
X276300Y120600D02*
X277500D01*
X276900Y120000D02*
Y121200D01*
X269200Y99000D02*
X270400D01*
X269800Y98400D02*
Y99600D01*
X261000Y111900D02*
X262200D01*
X261600Y111300D02*
Y112500D01*
X254100Y136300D02*
X255300D01*
X254700Y135700D02*
Y136900D01*
X259300Y123700D02*
X260500D01*
X259900Y123100D02*
Y124300D01*
X291000Y107600D02*
X292200D01*
X291600Y107000D02*
Y108200D01*
X288400Y101100D02*
X289600D01*
X289000Y100500D02*
Y101700D01*
X282835Y120835D02*
X284035D01*
X283435Y120235D02*
Y121435D01*
X250600Y129000D02*
X251800D01*
X251200Y128400D02*
Y129600D01*
X289200Y136400D02*
X290400D01*
X289800Y135800D02*
Y137000D01*
X289200Y123200D02*
X290400D01*
X289800Y122600D02*
Y123800D01*
X274600Y136500D02*
X275800D01*
X275200Y135900D02*
Y137100D01*
X243100Y123800D02*
X244300D01*
X243700Y123200D02*
Y124400D01*
X245800Y97600D02*
X247000D01*
X246400Y97000D02*
Y98200D01*
X257400Y121700D02*
X258600D01*
X258000Y121100D02*
Y122300D01*
X271800Y99000D02*
X273000D01*
X272400Y98400D02*
Y99600D01*
X291400Y137900D02*
X292600D01*
X292000Y137300D02*
Y138500D01*
X260900Y134900D02*
X262100D01*
X261500Y134300D02*
Y135500D01*
X260300Y114500D02*
X261500D01*
X260900Y113900D02*
Y115100D01*
X260300Y118500D02*
X261500D01*
X260900Y117900D02*
Y119100D01*
X269900Y110200D02*
X271100D01*
X270500Y109600D02*
Y110800D01*
X247300Y131500D02*
X248500D01*
X247900Y130900D02*
Y132100D01*
X274300Y115600D02*
X275500D01*
X274900Y115000D02*
Y116200D01*
X275900Y107000D02*
X277100D01*
X276500Y106400D02*
Y107600D01*
X245200Y129600D02*
X246400D01*
X245800Y129000D02*
Y130200D01*
X244938Y133862D02*
X246138D01*
X245538Y133262D02*
Y134462D01*
X303500Y135000D02*
X306500D01*
X305000Y133500D02*
Y136500D01*
X343500Y90000D02*
X346500D01*
X345000Y88500D02*
Y91500D01*
X348500Y90000D02*
X351500D01*
X350000Y88500D02*
Y91500D01*
X353500Y90000D02*
X356500D01*
X355000Y88500D02*
Y91500D01*
X363500Y130000D02*
X366500D01*
X365000Y128500D02*
Y131500D01*
X363500Y135000D02*
X366500D01*
X365000Y133500D02*
Y136500D01*
X303500Y95000D02*
X306500D01*
X305000Y93500D02*
Y96500D01*
X303500Y120000D02*
X306500D01*
X305000Y118500D02*
Y121500D01*
X363500Y95000D02*
X366500D01*
X365000Y93500D02*
Y96500D01*
X363500Y105000D02*
X366500D01*
X365000Y103500D02*
Y106500D01*
X363500Y100000D02*
X366500D01*
X365000Y98500D02*
Y101500D01*
X303496Y125000D02*
X306496D01*
X304996Y123500D02*
Y126500D01*
X303500Y100000D02*
X306500D01*
X305000Y98500D02*
Y101500D01*
X303500Y115000D02*
X306500D01*
X305000Y113500D02*
Y116500D01*
X303500Y110000D02*
X306500D01*
X305000Y108500D02*
Y111500D01*
X303500Y105000D02*
X306500D01*
X305000Y103500D02*
Y106500D01*
X303500Y130000D02*
X306500D01*
X305000Y128500D02*
Y131500D01*
X308500Y90000D02*
X311500D01*
X310000Y88500D02*
Y91500D01*
X358500Y90000D02*
X361500D01*
X360000Y88500D02*
Y91500D01*
X338500Y90000D02*
X341500D01*
X340000Y88500D02*
Y91500D01*
X363500Y110000D02*
X366500D01*
X365000Y108500D02*
Y111500D01*
X363500Y115000D02*
X366500D01*
X365000Y113500D02*
Y116500D01*
X363500Y120000D02*
X366500D01*
X365000Y118500D02*
Y121500D01*
X363500Y125000D02*
X366500D01*
X365000Y123500D02*
Y126500D01*
X333500Y90000D02*
X336500D01*
X335000Y88500D02*
Y91500D01*
X313500Y90000D02*
X316500D01*
X315000Y88500D02*
Y91500D01*
X318500Y90000D02*
X321500D01*
X320000Y88500D02*
Y91500D01*
X323500Y90000D02*
X326500D01*
X325000Y88500D02*
Y91500D01*
X328500Y90000D02*
X331500D01*
X330000Y88500D02*
Y91500D01*
X316600Y102600D02*
X317800D01*
X317200Y102000D02*
Y103200D01*
X336200Y117800D02*
X337400D01*
X336800Y117200D02*
Y118400D01*
X352000Y105800D02*
X353200D01*
X352600Y105200D02*
Y106400D01*
X339400Y102800D02*
X340600D01*
X340000Y102200D02*
Y103400D01*
X331000Y101900D02*
X332200D01*
X331600Y101300D02*
Y102500D01*
X335100Y105300D02*
X336300D01*
X335700Y104700D02*
Y105900D01*
X332000Y116500D02*
X333200D01*
X332600Y115900D02*
Y117100D01*
X352500Y93900D02*
X353700D01*
X353100Y93300D02*
Y94500D01*
X350382Y98358D02*
X351583D01*
X350982Y97758D02*
Y98958D01*
X352015Y102100D02*
X353215D01*
X352615Y101500D02*
Y102700D01*
X338880Y125700D02*
X340080D01*
X339480Y125100D02*
Y126300D01*
X322300Y138500D02*
X323500D01*
X322900Y137900D02*
Y139100D01*
X317100Y109100D02*
X318300D01*
X317700Y108500D02*
Y109700D01*
X333600Y113700D02*
X334800D01*
X334200Y113100D02*
Y114300D01*
X323900Y125500D02*
X325100D01*
X324500Y124900D02*
Y126100D01*
X320400Y131700D02*
X321600D01*
X321000Y131100D02*
Y132300D01*
X334800Y120000D02*
X336000D01*
X335400Y119400D02*
Y120600D01*
X340600Y120900D02*
X341800D01*
X341200Y120300D02*
Y121500D01*
X337900Y130700D02*
X339100D01*
X338500Y130100D02*
Y131300D01*
X333700Y134500D02*
X334900D01*
X334300Y133900D02*
Y135100D01*
X350300Y114000D02*
X351500D01*
X350900Y113400D02*
Y114600D01*
X331000Y99300D02*
X332200D01*
X331600Y98700D02*
Y99900D01*
X352900Y108600D02*
X354100D01*
X353500Y108000D02*
Y109200D01*
X352900Y116500D02*
X354100D01*
X353500Y115900D02*
Y117100D01*
X322800Y118100D02*
X324000D01*
X323400Y117500D02*
Y118700D01*
X325000Y107600D02*
X326200D01*
X325600Y107000D02*
Y108200D01*
X321800Y108000D02*
X323000D01*
X322400Y107400D02*
Y108600D01*
X336600Y101500D02*
X337800D01*
X337200Y100900D02*
Y102100D01*
X348900Y120500D02*
X350100D01*
X349500Y119900D02*
Y121100D01*
X346300Y120600D02*
X347500D01*
X346900Y120000D02*
Y121200D01*
X339200Y99000D02*
X340400D01*
X339800Y98400D02*
Y99600D01*
X331000Y111900D02*
X332200D01*
X331600Y111300D02*
Y112500D01*
X324100Y136300D02*
X325300D01*
X324700Y135700D02*
Y136900D01*
X329300Y123700D02*
X330500D01*
X329900Y123100D02*
Y124300D01*
X361000Y107600D02*
X362200D01*
X361600Y107000D02*
Y108200D01*
X358400Y101100D02*
X359600D01*
X359000Y100500D02*
Y101700D01*
X352835Y120835D02*
X354035D01*
X353435Y120235D02*
Y121435D01*
X320600Y129000D02*
X321800D01*
X321200Y128400D02*
Y129600D01*
X359200Y136400D02*
X360400D01*
X359800Y135800D02*
Y137000D01*
X359200Y123200D02*
X360400D01*
X359800Y122600D02*
Y123800D01*
X344600Y136500D02*
X345800D01*
X345200Y135900D02*
Y137100D01*
X313100Y123800D02*
X314300D01*
X313700Y123200D02*
Y124400D01*
X315800Y97600D02*
X317000D01*
X316400Y97000D02*
Y98200D01*
X327400Y121700D02*
X328600D01*
X328000Y121100D02*
Y122300D01*
X341800Y99000D02*
X343000D01*
X342400Y98400D02*
Y99600D01*
X361400Y137900D02*
X362600D01*
X362000Y137300D02*
Y138500D01*
X330900Y134900D02*
X332100D01*
X331500Y134300D02*
Y135500D01*
X330300Y114500D02*
X331500D01*
X330900Y113900D02*
Y115100D01*
X330300Y118500D02*
X331500D01*
X330900Y117900D02*
Y119100D01*
X339900Y110200D02*
X341100D01*
X340500Y109600D02*
Y110800D01*
X317300Y131500D02*
X318500D01*
X317900Y130900D02*
Y132100D01*
X344300Y115600D02*
X345500D01*
X344900Y115000D02*
Y116200D01*
X345900Y107000D02*
X347100D01*
X346500Y106400D02*
Y107600D01*
X315200Y129600D02*
X316400D01*
X315800Y129000D02*
Y130200D01*
X314938Y133862D02*
X316138D01*
X315538Y133262D02*
Y134462D01*
X363500Y35000D02*
X366500D01*
X365000Y33500D02*
Y36500D01*
X323500Y80000D02*
X326500D01*
X325000Y78500D02*
Y81500D01*
X318500Y80000D02*
X321500D01*
X320000Y78500D02*
Y81500D01*
X313500Y80000D02*
X316500D01*
X315000Y78500D02*
Y81500D01*
X303500Y40000D02*
X306500D01*
X305000Y38500D02*
Y41500D01*
X303500Y35000D02*
X306500D01*
X305000Y33500D02*
Y36500D01*
X363500Y75000D02*
X366500D01*
X365000Y73500D02*
Y76500D01*
X363500Y50000D02*
X366500D01*
X365000Y48500D02*
Y51500D01*
X303500Y75000D02*
X306500D01*
X305000Y73500D02*
Y76500D01*
X303500Y65000D02*
X306500D01*
X305000Y63500D02*
Y66500D01*
X303500Y70000D02*
X306500D01*
X305000Y68500D02*
Y71500D01*
X363504Y45000D02*
X366504D01*
X365004Y43500D02*
Y46500D01*
X363500Y70000D02*
X366500D01*
X365000Y68500D02*
Y71500D01*
X363500Y55000D02*
X366500D01*
X365000Y53500D02*
Y56500D01*
X363500Y60000D02*
X366500D01*
X365000Y58500D02*
Y61500D01*
X363500Y65000D02*
X366500D01*
X365000Y63500D02*
Y66500D01*
X363500Y40000D02*
X366500D01*
X365000Y38500D02*
Y41500D01*
X358500Y80000D02*
X361500D01*
X360000Y78500D02*
Y81500D01*
X308500Y80000D02*
X311500D01*
X310000Y78500D02*
Y81500D01*
X328500Y80000D02*
X331500D01*
X330000Y78500D02*
Y81500D01*
X303500Y60000D02*
X306500D01*
X305000Y58500D02*
Y61500D01*
X303500Y55000D02*
X306500D01*
X305000Y53500D02*
Y56500D01*
X303500Y50000D02*
X306500D01*
X305000Y48500D02*
Y51500D01*
X303500Y45000D02*
X306500D01*
X305000Y43500D02*
Y46500D01*
X333500Y80000D02*
X336500D01*
X335000Y78500D02*
Y81500D01*
X353500Y80000D02*
X356500D01*
X355000Y78500D02*
Y81500D01*
X348500Y80000D02*
X351500D01*
X350000Y78500D02*
Y81500D01*
X343500Y80000D02*
X346500D01*
X345000Y78500D02*
Y81500D01*
X338500Y80000D02*
X341500D01*
X340000Y78500D02*
Y81500D01*
X352200Y67400D02*
X353400D01*
X352800Y66800D02*
Y68000D01*
X332600Y52200D02*
X333800D01*
X333200Y51600D02*
Y52800D01*
X316800Y64200D02*
X318000D01*
X317400Y63600D02*
Y64800D01*
X329400Y67200D02*
X330600D01*
X330000Y66600D02*
Y67800D01*
X337800Y68100D02*
X339000D01*
X338400Y67500D02*
Y68700D01*
X333700Y64700D02*
X334900D01*
X334300Y64100D02*
Y65300D01*
X336800Y53500D02*
X338000D01*
X337400Y52900D02*
Y54100D01*
X316300Y76100D02*
X317500D01*
X316900Y75500D02*
Y76700D01*
X318418Y71643D02*
X319618D01*
X319018Y71043D02*
Y72243D01*
X316785Y67900D02*
X317985D01*
X317385Y67300D02*
Y68500D01*
X329920Y44300D02*
X331120D01*
X330520Y43700D02*
Y44900D01*
X346500Y31500D02*
X347700D01*
X347100Y30900D02*
Y32100D01*
X351700Y60900D02*
X352900D01*
X352300Y60300D02*
Y61500D01*
X335200Y56300D02*
X336400D01*
X335800Y55700D02*
Y56900D01*
X344900Y44500D02*
X346100D01*
X345500Y43900D02*
Y45100D01*
X348400Y38300D02*
X349600D01*
X349000Y37700D02*
Y38900D01*
X334000Y50000D02*
X335200D01*
X334600Y49400D02*
Y50600D01*
X328200Y49100D02*
X329400D01*
X328800Y48500D02*
Y49700D01*
X330900Y39300D02*
X332100D01*
X331500Y38700D02*
Y39900D01*
X335100Y35500D02*
X336300D01*
X335700Y34900D02*
Y36100D01*
X318500Y56000D02*
X319700D01*
X319100Y55400D02*
Y56600D01*
X337800Y70700D02*
X339000D01*
X338400Y70100D02*
Y71300D01*
X315900Y61400D02*
X317100D01*
X316500Y60800D02*
Y62000D01*
X315900Y53500D02*
X317100D01*
X316500Y52900D02*
Y54100D01*
X346000Y51900D02*
X347200D01*
X346600Y51300D02*
Y52500D01*
X343800Y62400D02*
X345000D01*
X344400Y61800D02*
Y63000D01*
X347000Y62000D02*
X348200D01*
X347600Y61400D02*
Y62600D01*
X332200Y68500D02*
X333400D01*
X332800Y67900D02*
Y69100D01*
X319900Y49500D02*
X321100D01*
X320500Y48900D02*
Y50100D01*
X322500Y49400D02*
X323700D01*
X323100Y48800D02*
Y50000D01*
X329600Y71000D02*
X330800D01*
X330200Y70400D02*
Y71600D01*
X337800Y58100D02*
X339000D01*
X338400Y57500D02*
Y58700D01*
X344700Y33700D02*
X345900D01*
X345300Y33100D02*
Y34300D01*
X339500Y46300D02*
X340700D01*
X340100Y45700D02*
Y46900D01*
X307800Y62400D02*
X309000D01*
X308400Y61800D02*
Y63000D01*
X310400Y68900D02*
X311600D01*
X311000Y68300D02*
Y69500D01*
X315965Y49165D02*
X317165D01*
X316565Y48565D02*
Y49765D01*
X348200Y41000D02*
X349400D01*
X348800Y40400D02*
Y41600D01*
X309600Y33600D02*
X310800D01*
X310200Y33000D02*
Y34200D01*
X309600Y46800D02*
X310800D01*
X310200Y46200D02*
Y47400D01*
X324200Y33500D02*
X325400D01*
X324800Y32900D02*
Y34100D01*
X355700Y46200D02*
X356900D01*
X356300Y45600D02*
Y46800D01*
X353000Y72400D02*
X354200D01*
X353600Y71800D02*
Y73000D01*
X341400Y48300D02*
X342600D01*
X342000Y47700D02*
Y48900D01*
X327000Y71000D02*
X328200D01*
X327600Y70400D02*
Y71600D01*
X307400Y32100D02*
X308600D01*
X308000Y31500D02*
Y32700D01*
X337900Y35100D02*
X339100D01*
X338500Y34500D02*
Y35700D01*
Y55500D02*
X339700D01*
X339100Y54900D02*
Y56100D01*
X338500Y51500D02*
X339700D01*
X339100Y50900D02*
Y52100D01*
X328900Y59800D02*
X330100D01*
X329500Y59200D02*
Y60400D01*
X351500Y38500D02*
X352700D01*
X352100Y37900D02*
Y39100D01*
X324500Y54400D02*
X325700D01*
X325100Y53800D02*
Y55000D01*
X322900Y63000D02*
X324100D01*
X323500Y62400D02*
Y63600D01*
X353600Y40400D02*
X354800D01*
X354200Y39800D02*
Y41000D01*
X353862Y36138D02*
X355062D01*
X354462Y35538D02*
Y36738D01*
X293500Y35000D02*
X296500D01*
X295000Y33500D02*
Y36500D01*
X253500Y80000D02*
X256500D01*
X255000Y78500D02*
Y81500D01*
X248500Y80000D02*
X251500D01*
X250000Y78500D02*
Y81500D01*
X243500Y80000D02*
X246500D01*
X245000Y78500D02*
Y81500D01*
X233500Y40000D02*
X236500D01*
X235000Y38500D02*
Y41500D01*
X233500Y35000D02*
X236500D01*
X235000Y33500D02*
Y36500D01*
X293500Y75000D02*
X296500D01*
X295000Y73500D02*
Y76500D01*
X293500Y50000D02*
X296500D01*
X295000Y48500D02*
Y51500D01*
X233500Y75000D02*
X236500D01*
X235000Y73500D02*
Y76500D01*
X233500Y65000D02*
X236500D01*
X235000Y63500D02*
Y66500D01*
X233500Y70000D02*
X236500D01*
X235000Y68500D02*
Y71500D01*
X293504Y45000D02*
X296504D01*
X295004Y43500D02*
Y46500D01*
X293500Y70000D02*
X296500D01*
X295000Y68500D02*
Y71500D01*
X293500Y55000D02*
X296500D01*
X295000Y53500D02*
Y56500D01*
X293500Y60000D02*
X296500D01*
X295000Y58500D02*
Y61500D01*
X293500Y65000D02*
X296500D01*
X295000Y63500D02*
Y66500D01*
X293500Y40000D02*
X296500D01*
X295000Y38500D02*
Y41500D01*
X288500Y80000D02*
X291500D01*
X290000Y78500D02*
Y81500D01*
X238500Y80000D02*
X241500D01*
X240000Y78500D02*
Y81500D01*
X258500Y80000D02*
X261500D01*
X260000Y78500D02*
Y81500D01*
X233500Y60000D02*
X236500D01*
X235000Y58500D02*
Y61500D01*
X233500Y55000D02*
X236500D01*
X235000Y53500D02*
Y56500D01*
X233500Y50000D02*
X236500D01*
X235000Y48500D02*
Y51500D01*
X233500Y45000D02*
X236500D01*
X235000Y43500D02*
Y46500D01*
X263500Y80000D02*
X266500D01*
X265000Y78500D02*
Y81500D01*
X283500Y80000D02*
X286500D01*
X285000Y78500D02*
Y81500D01*
X278500Y80000D02*
X281500D01*
X280000Y78500D02*
Y81500D01*
X273500Y80000D02*
X276500D01*
X275000Y78500D02*
Y81500D01*
X268500Y80000D02*
X271500D01*
X270000Y78500D02*
Y81500D01*
X282200Y67400D02*
X283400D01*
X282800Y66800D02*
Y68000D01*
X262600Y52200D02*
X263800D01*
X263200Y51600D02*
Y52800D01*
X246800Y64200D02*
X248000D01*
X247400Y63600D02*
Y64800D01*
X259400Y67200D02*
X260600D01*
X260000Y66600D02*
Y67800D01*
X267800Y68100D02*
X269000D01*
X268400Y67500D02*
Y68700D01*
X263700Y64700D02*
X264900D01*
X264300Y64100D02*
Y65300D01*
X266800Y53500D02*
X268000D01*
X267400Y52900D02*
Y54100D01*
X246300Y76100D02*
X247500D01*
X246900Y75500D02*
Y76700D01*
X248417Y71643D02*
X249618D01*
X249018Y71043D02*
Y72243D01*
X246785Y67900D02*
X247985D01*
X247385Y67300D02*
Y68500D01*
X259920Y44300D02*
X261120D01*
X260520Y43700D02*
Y44900D01*
X276500Y31500D02*
X277700D01*
X277100Y30900D02*
Y32100D01*
X281700Y60900D02*
X282900D01*
X282300Y60300D02*
Y61500D01*
X265200Y56300D02*
X266400D01*
X265800Y55700D02*
Y56900D01*
X274900Y44500D02*
X276100D01*
X275500Y43900D02*
Y45100D01*
X278400Y38300D02*
X279600D01*
X279000Y37700D02*
Y38900D01*
X264000Y50000D02*
X265200D01*
X264600Y49400D02*
Y50600D01*
X258200Y49100D02*
X259400D01*
X258800Y48500D02*
Y49700D01*
X260900Y39300D02*
X262100D01*
X261500Y38700D02*
Y39900D01*
X265100Y35500D02*
X266300D01*
X265700Y34900D02*
Y36100D01*
X248500Y56000D02*
X249700D01*
X249100Y55400D02*
Y56600D01*
X267800Y70700D02*
X269000D01*
X268400Y70100D02*
Y71300D01*
X245900Y61400D02*
X247100D01*
X246500Y60800D02*
Y62000D01*
X245900Y53500D02*
X247100D01*
X246500Y52900D02*
Y54100D01*
X276000Y51900D02*
X277200D01*
X276600Y51300D02*
Y52500D01*
X273800Y62400D02*
X275000D01*
X274400Y61800D02*
Y63000D01*
X277000Y62000D02*
X278200D01*
X277600Y61400D02*
Y62600D01*
X262200Y68500D02*
X263400D01*
X262800Y67900D02*
Y69100D01*
X249900Y49500D02*
X251100D01*
X250500Y48900D02*
Y50100D01*
X252500Y49400D02*
X253700D01*
X253100Y48800D02*
Y50000D01*
X259600Y71000D02*
X260800D01*
X260200Y70400D02*
Y71600D01*
X267800Y58100D02*
X269000D01*
X268400Y57500D02*
Y58700D01*
X274700Y33700D02*
X275900D01*
X275300Y33100D02*
Y34300D01*
X269500Y46300D02*
X270700D01*
X270100Y45700D02*
Y46900D01*
X237800Y62400D02*
X239000D01*
X238400Y61800D02*
Y63000D01*
X240400Y68900D02*
X241600D01*
X241000Y68300D02*
Y69500D01*
X245965Y49165D02*
X247165D01*
X246565Y48565D02*
Y49765D01*
X278200Y41000D02*
X279400D01*
X278800Y40400D02*
Y41600D01*
X239600Y33600D02*
X240800D01*
X240200Y33000D02*
Y34200D01*
X239600Y46800D02*
X240800D01*
X240200Y46200D02*
Y47400D01*
X254200Y33500D02*
X255400D01*
X254800Y32900D02*
Y34100D01*
X285700Y46200D02*
X286900D01*
X286300Y45600D02*
Y46800D01*
X283000Y72400D02*
X284200D01*
X283600Y71800D02*
Y73000D01*
X271400Y48300D02*
X272600D01*
X272000Y47700D02*
Y48900D01*
X257000Y71000D02*
X258200D01*
X257600Y70400D02*
Y71600D01*
X237400Y32100D02*
X238600D01*
X238000Y31500D02*
Y32700D01*
X267900Y35100D02*
X269100D01*
X268500Y34500D02*
Y35700D01*
Y55500D02*
X269700D01*
X269100Y54900D02*
Y56100D01*
X268500Y51500D02*
X269700D01*
X269100Y50900D02*
Y52100D01*
X258900Y59800D02*
X260100D01*
X259500Y59200D02*
Y60400D01*
X281500Y38500D02*
X282700D01*
X282100Y37900D02*
Y39100D01*
X254500Y54400D02*
X255700D01*
X255100Y53800D02*
Y55000D01*
X252900Y63000D02*
X254100D01*
X253500Y62400D02*
Y63600D01*
X283600Y40400D02*
X284800D01*
X284200Y39800D02*
Y41000D01*
X283862Y36138D02*
X285062D01*
X284462Y35538D02*
Y36738D01*
X223500Y35000D02*
X226500D01*
X225000Y33500D02*
Y36500D01*
X183500Y80000D02*
X186500D01*
X185000Y78500D02*
Y81500D01*
X178500Y80000D02*
X181500D01*
X180000Y78500D02*
Y81500D01*
X173500Y80000D02*
X176500D01*
X175000Y78500D02*
Y81500D01*
X163500Y40000D02*
X166500D01*
X165000Y38500D02*
Y41500D01*
X163500Y35000D02*
X166500D01*
X165000Y33500D02*
Y36500D01*
X223500Y75000D02*
X226500D01*
X225000Y73500D02*
Y76500D01*
X223500Y50000D02*
X226500D01*
X225000Y48500D02*
Y51500D01*
X163500Y75000D02*
X166500D01*
X165000Y73500D02*
Y76500D01*
X163500Y65000D02*
X166500D01*
X165000Y63500D02*
Y66500D01*
X163500Y70000D02*
X166500D01*
X165000Y68500D02*
Y71500D01*
X223504Y45000D02*
X226504D01*
X225004Y43500D02*
Y46500D01*
X223500Y70000D02*
X226500D01*
X225000Y68500D02*
Y71500D01*
X223500Y55000D02*
X226500D01*
X225000Y53500D02*
Y56500D01*
X223500Y60000D02*
X226500D01*
X225000Y58500D02*
Y61500D01*
X223500Y65000D02*
X226500D01*
X225000Y63500D02*
Y66500D01*
X223500Y40000D02*
X226500D01*
X225000Y38500D02*
Y41500D01*
X218500Y80000D02*
X221500D01*
X220000Y78500D02*
Y81500D01*
X168500Y80000D02*
X171500D01*
X170000Y78500D02*
Y81500D01*
X188500Y80000D02*
X191500D01*
X190000Y78500D02*
Y81500D01*
X163500Y60000D02*
X166500D01*
X165000Y58500D02*
Y61500D01*
X163500Y55000D02*
X166500D01*
X165000Y53500D02*
Y56500D01*
X163500Y50000D02*
X166500D01*
X165000Y48500D02*
Y51500D01*
X163500Y45000D02*
X166500D01*
X165000Y43500D02*
Y46500D01*
X193500Y80000D02*
X196500D01*
X195000Y78500D02*
Y81500D01*
X213500Y80000D02*
X216500D01*
X215000Y78500D02*
Y81500D01*
X208500Y80000D02*
X211500D01*
X210000Y78500D02*
Y81500D01*
X203500Y80000D02*
X206500D01*
X205000Y78500D02*
Y81500D01*
X198500Y80000D02*
X201500D01*
X200000Y78500D02*
Y81500D01*
X212200Y67400D02*
X213400D01*
X212800Y66800D02*
Y68000D01*
X192600Y52200D02*
X193800D01*
X193200Y51600D02*
Y52800D01*
X176800Y64200D02*
X178000D01*
X177400Y63600D02*
Y64800D01*
X189400Y67200D02*
X190600D01*
X190000Y66600D02*
Y67800D01*
X197800Y68100D02*
X199000D01*
X198400Y67500D02*
Y68700D01*
X193700Y64700D02*
X194900D01*
X194300Y64100D02*
Y65300D01*
X196800Y53500D02*
X198000D01*
X197400Y52900D02*
Y54100D01*
X176300Y76100D02*
X177500D01*
X176900Y75500D02*
Y76700D01*
X178418Y71643D02*
X179618D01*
X179018Y71043D02*
Y72243D01*
X176785Y67900D02*
X177985D01*
X177385Y67300D02*
Y68500D01*
X189920Y44300D02*
X191120D01*
X190520Y43700D02*
Y44900D01*
X206500Y31500D02*
X207700D01*
X207100Y30900D02*
Y32100D01*
X211700Y60900D02*
X212900D01*
X212300Y60300D02*
Y61500D01*
X195200Y56300D02*
X196400D01*
X195800Y55700D02*
Y56900D01*
X204900Y44500D02*
X206100D01*
X205500Y43900D02*
Y45100D01*
X208400Y38300D02*
X209600D01*
X209000Y37700D02*
Y38900D01*
X194000Y50000D02*
X195200D01*
X194600Y49400D02*
Y50600D01*
X188200Y49100D02*
X189400D01*
X188800Y48500D02*
Y49700D01*
X190900Y39300D02*
X192100D01*
X191500Y38700D02*
Y39900D01*
X195100Y35500D02*
X196300D01*
X195700Y34900D02*
Y36100D01*
X178500Y56000D02*
X179700D01*
X179100Y55400D02*
Y56600D01*
X197800Y70700D02*
X199000D01*
X198400Y70100D02*
Y71300D01*
X175900Y61400D02*
X177100D01*
X176500Y60800D02*
Y62000D01*
X175900Y53500D02*
X177100D01*
X176500Y52900D02*
Y54100D01*
X206000Y51900D02*
X207200D01*
X206600Y51300D02*
Y52500D01*
X203800Y62400D02*
X205000D01*
X204400Y61800D02*
Y63000D01*
X207000Y62000D02*
X208200D01*
X207600Y61400D02*
Y62600D01*
X192200Y68500D02*
X193400D01*
X192800Y67900D02*
Y69100D01*
X179900Y49500D02*
X181100D01*
X180500Y48900D02*
Y50100D01*
X182500Y49400D02*
X183700D01*
X183100Y48800D02*
Y50000D01*
X189600Y71000D02*
X190800D01*
X190200Y70400D02*
Y71600D01*
X197800Y58100D02*
X199000D01*
X198400Y57500D02*
Y58700D01*
X204700Y33700D02*
X205900D01*
X205300Y33100D02*
Y34300D01*
X199500Y46300D02*
X200700D01*
X200100Y45700D02*
Y46900D01*
X167800Y62400D02*
X169000D01*
X168400Y61800D02*
Y63000D01*
X170400Y68900D02*
X171600D01*
X171000Y68300D02*
Y69500D01*
X175965Y49165D02*
X177165D01*
X176565Y48565D02*
Y49765D01*
X208200Y41000D02*
X209400D01*
X208800Y40400D02*
Y41600D01*
X169600Y33600D02*
X170800D01*
X170200Y33000D02*
Y34200D01*
X169600Y46800D02*
X170800D01*
X170200Y46200D02*
Y47400D01*
X184200Y33500D02*
X185400D01*
X184800Y32900D02*
Y34100D01*
X215700Y46200D02*
X216900D01*
X216300Y45600D02*
Y46800D01*
X213000Y72400D02*
X214200D01*
X213600Y71800D02*
Y73000D01*
X201400Y48300D02*
X202600D01*
X202000Y47700D02*
Y48900D01*
X187000Y71000D02*
X188200D01*
X187600Y70400D02*
Y71600D01*
X167400Y32100D02*
X168600D01*
X168000Y31500D02*
Y32700D01*
X197900Y35100D02*
X199100D01*
X198500Y34500D02*
Y35700D01*
Y55500D02*
X199700D01*
X199100Y54900D02*
Y56100D01*
X198500Y51500D02*
X199700D01*
X199100Y50900D02*
Y52100D01*
X188900Y59800D02*
X190100D01*
X189500Y59200D02*
Y60400D01*
X211500Y38500D02*
X212700D01*
X212100Y37900D02*
Y39100D01*
X184500Y54400D02*
X185700D01*
X185100Y53800D02*
Y55000D01*
X182900Y63000D02*
X184100D01*
X183500Y62400D02*
Y63600D01*
X213600Y40400D02*
X214800D01*
X214200Y39800D02*
Y41000D01*
X213862Y36138D02*
X215062D01*
X214462Y35538D02*
Y36738D01*
X153500Y35000D02*
X156500D01*
X155000Y33500D02*
Y36500D01*
X113500Y80000D02*
X116500D01*
X115000Y78500D02*
Y81500D01*
X108500Y80000D02*
X111500D01*
X110000Y78500D02*
Y81500D01*
X103500Y80000D02*
X106500D01*
X105000Y78500D02*
Y81500D01*
X93500Y40000D02*
X96500D01*
X95000Y38500D02*
Y41500D01*
X93500Y35000D02*
X96500D01*
X95000Y33500D02*
Y36500D01*
X153500Y75000D02*
X156500D01*
X155000Y73500D02*
Y76500D01*
X153500Y50000D02*
X156500D01*
X155000Y48500D02*
Y51500D01*
X93500Y75000D02*
X96500D01*
X95000Y73500D02*
Y76500D01*
X93500Y65000D02*
X96500D01*
X95000Y63500D02*
Y66500D01*
X93500Y70000D02*
X96500D01*
X95000Y68500D02*
Y71500D01*
X153504Y45000D02*
X156504D01*
X155004Y43500D02*
Y46500D01*
X153500Y70000D02*
X156500D01*
X155000Y68500D02*
Y71500D01*
X153500Y55000D02*
X156500D01*
X155000Y53500D02*
Y56500D01*
X153500Y60000D02*
X156500D01*
X155000Y58500D02*
Y61500D01*
X153500Y65000D02*
X156500D01*
X155000Y63500D02*
Y66500D01*
X153500Y40000D02*
X156500D01*
X155000Y38500D02*
Y41500D01*
X148500Y80000D02*
X151500D01*
X150000Y78500D02*
Y81500D01*
X98500Y80000D02*
X101500D01*
X100000Y78500D02*
Y81500D01*
X118500Y80000D02*
X121500D01*
X120000Y78500D02*
Y81500D01*
X93500Y60000D02*
X96500D01*
X95000Y58500D02*
Y61500D01*
X93500Y55000D02*
X96500D01*
X95000Y53500D02*
Y56500D01*
X93500Y50000D02*
X96500D01*
X95000Y48500D02*
Y51500D01*
X93500Y45000D02*
X96500D01*
X95000Y43500D02*
Y46500D01*
X123500Y80000D02*
X126500D01*
X125000Y78500D02*
Y81500D01*
X143500Y80000D02*
X146500D01*
X145000Y78500D02*
Y81500D01*
X138500Y80000D02*
X141500D01*
X140000Y78500D02*
Y81500D01*
X133500Y80000D02*
X136500D01*
X135000Y78500D02*
Y81500D01*
X128500Y80000D02*
X131500D01*
X130000Y78500D02*
Y81500D01*
X142200Y67400D02*
X143400D01*
X142800Y66800D02*
Y68000D01*
X122600Y52200D02*
X123800D01*
X123200Y51600D02*
Y52800D01*
X106800Y64200D02*
X108000D01*
X107400Y63600D02*
Y64800D01*
X119400Y67200D02*
X120600D01*
X120000Y66600D02*
Y67800D01*
X127800Y68100D02*
X129000D01*
X128400Y67500D02*
Y68700D01*
X123700Y64700D02*
X124900D01*
X124300Y64100D02*
Y65300D01*
X126800Y53500D02*
X128000D01*
X127400Y52900D02*
Y54100D01*
X106300Y76100D02*
X107500D01*
X106900Y75500D02*
Y76700D01*
X108418Y71643D02*
X109618D01*
X109018Y71043D02*
Y72243D01*
X106785Y67900D02*
X107985D01*
X107385Y67300D02*
Y68500D01*
X119920Y44300D02*
X121120D01*
X120520Y43700D02*
Y44900D01*
X136500Y31500D02*
X137700D01*
X137100Y30900D02*
Y32100D01*
X141700Y60900D02*
X142900D01*
X142300Y60300D02*
Y61500D01*
X125200Y56300D02*
X126400D01*
X125800Y55700D02*
Y56900D01*
X134900Y44500D02*
X136100D01*
X135500Y43900D02*
Y45100D01*
X138400Y38300D02*
X139600D01*
X139000Y37700D02*
Y38900D01*
X124000Y50000D02*
X125200D01*
X124600Y49400D02*
Y50600D01*
X118200Y49100D02*
X119400D01*
X118800Y48500D02*
Y49700D01*
X120900Y39300D02*
X122100D01*
X121500Y38700D02*
Y39900D01*
X125100Y35500D02*
X126300D01*
X125700Y34900D02*
Y36100D01*
X108500Y56000D02*
X109700D01*
X109100Y55400D02*
Y56600D01*
X127800Y70700D02*
X129000D01*
X128400Y70100D02*
Y71300D01*
X105900Y61400D02*
X107100D01*
X106500Y60800D02*
Y62000D01*
X105900Y53500D02*
X107100D01*
X106500Y52900D02*
Y54100D01*
X136000Y51900D02*
X137200D01*
X136600Y51300D02*
Y52500D01*
X133800Y62400D02*
X135000D01*
X134400Y61800D02*
Y63000D01*
X137000Y62000D02*
X138200D01*
X137600Y61400D02*
Y62600D01*
X122200Y68500D02*
X123400D01*
X122800Y67900D02*
Y69100D01*
X109900Y49500D02*
X111100D01*
X110500Y48900D02*
Y50100D01*
X112500Y49400D02*
X113700D01*
X113100Y48800D02*
Y50000D01*
X119600Y71000D02*
X120800D01*
X120200Y70400D02*
Y71600D01*
X127800Y58100D02*
X129000D01*
X128400Y57500D02*
Y58700D01*
X134700Y33700D02*
X135900D01*
X135300Y33100D02*
Y34300D01*
X129500Y46300D02*
X130700D01*
X130100Y45700D02*
Y46900D01*
X97800Y62400D02*
X99000D01*
X98400Y61800D02*
Y63000D01*
X100400Y68900D02*
X101600D01*
X101000Y68300D02*
Y69500D01*
X105965Y49165D02*
X107165D01*
X106565Y48565D02*
Y49765D01*
X138200Y41000D02*
X139400D01*
X138800Y40400D02*
Y41600D01*
X99600Y33600D02*
X100800D01*
X100200Y33000D02*
Y34200D01*
X99600Y46800D02*
X100800D01*
X100200Y46200D02*
Y47400D01*
X114200Y33500D02*
X115400D01*
X114800Y32900D02*
Y34100D01*
X145700Y46200D02*
X146900D01*
X146300Y45600D02*
Y46800D01*
X143000Y72400D02*
X144200D01*
X143600Y71800D02*
Y73000D01*
X131400Y48300D02*
X132600D01*
X132000Y47700D02*
Y48900D01*
X117000Y71000D02*
X118200D01*
X117600Y70400D02*
Y71600D01*
X97400Y32100D02*
X98600D01*
X98000Y31500D02*
Y32700D01*
X127900Y35100D02*
X129100D01*
X128500Y34500D02*
Y35700D01*
Y55500D02*
X129700D01*
X129100Y54900D02*
Y56100D01*
X128500Y51500D02*
X129700D01*
X129100Y50900D02*
Y52100D01*
X118900Y59800D02*
X120100D01*
X119500Y59200D02*
Y60400D01*
X141500Y38500D02*
X142700D01*
X142100Y37900D02*
Y39100D01*
X114500Y54400D02*
X115700D01*
X115100Y53800D02*
Y55000D01*
X112900Y63000D02*
X114100D01*
X113500Y62400D02*
Y63600D01*
X143600Y40400D02*
X144800D01*
X144200Y39800D02*
Y41000D01*
X143862Y36138D02*
X145062D01*
X144462Y35538D02*
Y36738D01*
X83500Y35000D02*
X86500D01*
X85000Y33500D02*
Y36500D01*
X43500Y80000D02*
X46500D01*
X45000Y78500D02*
Y81500D01*
X38500Y80000D02*
X41500D01*
X40000Y78500D02*
Y81500D01*
X33500Y80000D02*
X36500D01*
X35000Y78500D02*
Y81500D01*
X23500Y40000D02*
X26500D01*
X25000Y38500D02*
Y41500D01*
X23500Y35000D02*
X26500D01*
X25000Y33500D02*
Y36500D01*
X83500Y75000D02*
X86500D01*
X85000Y73500D02*
Y76500D01*
X83500Y50000D02*
X86500D01*
X85000Y48500D02*
Y51500D01*
X23500Y75000D02*
X26500D01*
X25000Y73500D02*
Y76500D01*
X23500Y65000D02*
X26500D01*
X25000Y63500D02*
Y66500D01*
X23500Y70000D02*
X26500D01*
X25000Y68500D02*
Y71500D01*
X83504Y45000D02*
X86504D01*
X85004Y43500D02*
Y46500D01*
X83500Y70000D02*
X86500D01*
X85000Y68500D02*
Y71500D01*
X83500Y55000D02*
X86500D01*
X85000Y53500D02*
Y56500D01*
X83500Y60000D02*
X86500D01*
X85000Y58500D02*
Y61500D01*
X83500Y65000D02*
X86500D01*
X85000Y63500D02*
Y66500D01*
X83500Y40000D02*
X86500D01*
X85000Y38500D02*
Y41500D01*
X78500Y80000D02*
X81500D01*
X80000Y78500D02*
Y81500D01*
X28500Y80000D02*
X31500D01*
X30000Y78500D02*
Y81500D01*
X48500Y80000D02*
X51500D01*
X50000Y78500D02*
Y81500D01*
X23500Y60000D02*
X26500D01*
X25000Y58500D02*
Y61500D01*
X23500Y55000D02*
X26500D01*
X25000Y53500D02*
Y56500D01*
X23500Y50000D02*
X26500D01*
X25000Y48500D02*
Y51500D01*
X23500Y45000D02*
X26500D01*
X25000Y43500D02*
Y46500D01*
X53500Y80000D02*
X56500D01*
X55000Y78500D02*
Y81500D01*
X73500Y80000D02*
X76500D01*
X75000Y78500D02*
Y81500D01*
X68500Y80000D02*
X71500D01*
X70000Y78500D02*
Y81500D01*
X63500Y80000D02*
X66500D01*
X65000Y78500D02*
Y81500D01*
X58500Y80000D02*
X61500D01*
X60000Y78500D02*
Y81500D01*
X72200Y67400D02*
X73400D01*
X72800Y66800D02*
Y68000D01*
X52600Y52200D02*
X53800D01*
X53200Y51600D02*
Y52800D01*
X36800Y64200D02*
X38000D01*
X37400Y63600D02*
Y64800D01*
X49400Y67200D02*
X50600D01*
X50000Y66600D02*
Y67800D01*
X57800Y68100D02*
X59000D01*
X58400Y67500D02*
Y68700D01*
X53700Y64700D02*
X54900D01*
X54300Y64100D02*
Y65300D01*
X56800Y53500D02*
X58000D01*
X57400Y52900D02*
Y54100D01*
X36300Y76100D02*
X37500D01*
X36900Y75500D02*
Y76700D01*
X38418Y71643D02*
X39617D01*
X39018Y71043D02*
Y72243D01*
X36785Y67900D02*
X37985D01*
X37385Y67300D02*
Y68500D01*
X49920Y44300D02*
X51120D01*
X50520Y43700D02*
Y44900D01*
X66500Y31500D02*
X67700D01*
X67100Y30900D02*
Y32100D01*
X71700Y60900D02*
X72900D01*
X72300Y60300D02*
Y61500D01*
X55200Y56300D02*
X56400D01*
X55800Y55700D02*
Y56900D01*
X64900Y44500D02*
X66100D01*
X65500Y43900D02*
Y45100D01*
X68400Y38300D02*
X69600D01*
X69000Y37700D02*
Y38900D01*
X54000Y50000D02*
X55200D01*
X54600Y49400D02*
Y50600D01*
X48200Y49100D02*
X49400D01*
X48800Y48500D02*
Y49700D01*
X50900Y39300D02*
X52100D01*
X51500Y38700D02*
Y39900D01*
X55100Y35500D02*
X56300D01*
X55700Y34900D02*
Y36100D01*
X38500Y56000D02*
X39700D01*
X39100Y55400D02*
Y56600D01*
X57800Y70700D02*
X59000D01*
X58400Y70100D02*
Y71300D01*
X35900Y61400D02*
X37100D01*
X36500Y60800D02*
Y62000D01*
X35900Y53500D02*
X37100D01*
X36500Y52900D02*
Y54100D01*
X66000Y51900D02*
X67200D01*
X66600Y51300D02*
Y52500D01*
X63800Y62400D02*
X65000D01*
X64400Y61800D02*
Y63000D01*
X67000Y62000D02*
X68200D01*
X67600Y61400D02*
Y62600D01*
X52200Y68500D02*
X53400D01*
X52800Y67900D02*
Y69100D01*
X39900Y49500D02*
X41100D01*
X40500Y48900D02*
Y50100D01*
X42500Y49400D02*
X43700D01*
X43100Y48800D02*
Y50000D01*
X49600Y71000D02*
X50800D01*
X50200Y70400D02*
Y71600D01*
X57800Y58100D02*
X59000D01*
X58400Y57500D02*
Y58700D01*
X64700Y33700D02*
X65900D01*
X65300Y33100D02*
Y34300D01*
X59500Y46300D02*
X60700D01*
X60100Y45700D02*
Y46900D01*
X27800Y62400D02*
X29000D01*
X28400Y61800D02*
Y63000D01*
X30400Y68900D02*
X31600D01*
X31000Y68300D02*
Y69500D01*
X35965Y49165D02*
X37165D01*
X36565Y48565D02*
Y49765D01*
X68200Y41000D02*
X69400D01*
X68800Y40400D02*
Y41600D01*
X29600Y33600D02*
X30800D01*
X30200Y33000D02*
Y34200D01*
X29600Y46800D02*
X30800D01*
X30200Y46200D02*
Y47400D01*
X44200Y33500D02*
X45400D01*
X44800Y32900D02*
Y34100D01*
X75700Y46200D02*
X76900D01*
X76300Y45600D02*
Y46800D01*
X73000Y72400D02*
X74200D01*
X73600Y71800D02*
Y73000D01*
X61400Y48300D02*
X62600D01*
X62000Y47700D02*
Y48900D01*
X47000Y71000D02*
X48200D01*
X47600Y70400D02*
Y71600D01*
X27400Y32100D02*
X28600D01*
X28000Y31500D02*
Y32700D01*
X57900Y35100D02*
X59100D01*
X58500Y34500D02*
Y35700D01*
Y55500D02*
X59700D01*
X59100Y54900D02*
Y56100D01*
X58500Y51500D02*
X59700D01*
X59100Y50900D02*
Y52100D01*
X48900Y59800D02*
X50100D01*
X49500Y59200D02*
Y60400D01*
X71500Y38500D02*
X72700D01*
X72100Y37900D02*
Y39100D01*
X44500Y54400D02*
X45700D01*
X45100Y53800D02*
Y55000D01*
X42900Y63000D02*
X44100D01*
X43500Y62400D02*
Y63600D01*
X73600Y40400D02*
X74800D01*
X74200Y39800D02*
Y41000D01*
X73862Y36138D02*
X75062D01*
X74462Y35538D02*
Y36738D01*
M02*
