M48
;Layer_Color=9474304
;FILE_FORMAT=2:5
INCH,TZ
;TYPE=PLATED
T1F00S00C0.01200
T2F00S00C0.03000
T3F00S00C0.11811
%
T01
X308000Y32100
X310200Y33600
Y46800
X316565Y49165
X320500Y49500
X323100Y49400
X328800Y49100
X330520Y44300
X331500Y39300
X335700Y35500
X338500Y35100
X345300Y33700
X347100Y31500
X349000Y38300
X348800Y41000
X352100Y38500
X354200Y40400
X354462Y36138
X356300Y46200
X345500Y44500
X340100Y46300
X342000Y48300
X339100Y51500
X337400Y53500
X339100Y55500
X338400Y58100
X335800Y56300
X333200Y52200
X334600Y50000
X346600Y51900
X347600Y62000
X344400Y62400
X352300Y60900
X352800Y67400
X353600Y72400
X338400Y70700
Y68100
X332800Y68500
X330000Y67200
X330200Y71000
X327600
X319018Y71643
X317385Y67900
X317400Y64200
X316500Y61400
Y53500
X319100Y56000
X325100Y54400
X329500Y59800
X323500Y63000
X334300Y64700
X311000Y68900
X308400Y62400
X316900Y76100
X316400Y97600
X317200Y102600
X317700Y109100
X322400Y108000
X325600Y107600
X331600Y111900
X330900Y114500
X332600Y116500
X330900Y118500
X335400Y120000
X336800Y117800
X334200Y113700
X340500Y110200
X340000Y102800
X339800Y99000
X342400
X337200Y101500
X335700Y105300
X331600Y101900
Y99300
X350982Y98358
X352615Y102100
X352600Y105800
X353500Y108600
Y116500
X353435Y120835
X349500Y120500
X346900Y120600
X341200Y120900
X339480Y125700
X338500Y130700
X329900Y123700
X328000Y121700
X324500Y125500
X321200Y129000
X321000Y131700
X317900Y131500
X315800Y129600
X315538Y133862
X313700Y123800
X323400Y118100
X344900Y115600
X350900Y114000
X346500Y107000
X361600Y107600
X359000Y101100
X353100Y93900
X359800Y123200
X289800
X291600Y107600
X289000Y101100
X324800Y33500
X284462Y36138
X284200Y40400
X282100Y38500
X279000Y38300
X278800Y41000
X275500Y44500
X270100Y46300
X272000Y48300
X269100Y51500
X267400Y53500
X269100Y55500
X268400Y58100
X265800Y56300
X263200Y52200
X264600Y50000
X258800Y49100
X253100Y49400
X250500Y49500
X246565Y49165
X246500Y53500
X249100Y56000
X255100Y54400
X259500Y59800
X260000Y67200
X260200Y71000
X257600
X262800Y68500
X264300Y64700
X268400Y68100
Y70700
X274400Y62400
X277600Y62000
X282300Y60900
X282800Y67400
X283600Y72400
X283100Y93900
X280982Y98358
X282615Y102100
X282600Y105800
X283500Y108600
Y116500
X283435Y120835
X279500Y120500
X276900Y120600
X271200Y120900
X269480Y125700
X268500Y130700
X265400Y120000
X266800Y117800
X262600Y116500
X260900Y114500
X261600Y111900
X264200Y113700
X260900Y118500
X258000Y121700
X259900Y123700
X254500Y125500
X251200Y129000
X251000Y131700
X247900Y131500
X245800Y129600
X245538Y133862
X243700Y123800
X253400Y118100
X252400Y108000
X255600Y107600
X247700Y109100
X247200Y102600
X246400Y97600
X261600Y99300
Y101900
X267200Y101500
X270000Y102800
X269800Y99000
X272400
X276500Y107000
X270500Y110200
X265700Y105300
X274900Y115600
X280900Y114000
X221600Y107600
X213500Y108600
X212600Y105800
X212615Y102100
X210982Y98358
X213100Y93900
X219000Y101100
X206500Y107000
X200500Y110200
X200000Y102800
X199800Y99000
X202400
X197200Y101500
X195700Y105300
X191600Y101900
Y99300
Y111900
X190900Y114500
X192600Y116500
X190900Y118500
X195400Y120000
X196800Y117800
X194200Y113700
X204900Y115600
X206900Y120600
X209500Y120500
X213435Y120835
X213500Y116500
X210900Y114000
X201200Y120900
X199480Y125700
X198500Y130700
X189900Y123700
X188000Y121700
X184500Y125500
X181200Y129000
X181000Y131700
X177900Y131500
X175800Y129600
X175538Y133862
X173700Y123800
X183400Y118100
X182400Y108000
X185600Y107600
X177700Y109100
X177200Y102600
X176400Y97600
X176900Y76100
X179018Y71643
X177385Y67900
X177400Y64200
X176500Y61400
Y53500
X176565Y49165
X180500Y49500
X183100Y49400
X188800Y49100
X190520Y44300
X191500Y39300
X195700Y35500
X198500Y35100
X205300Y33700
X207100Y31500
X209000Y38300
X208800Y41000
X212100Y38500
X214200Y40400
X214462Y36138
X216300Y46200
X205500Y44500
X200100Y46300
X202000Y48300
X199100Y51500
X197400Y53500
X199100Y55500
X198400Y58100
X195800Y56300
X193200Y52200
X194600Y50000
X206600Y51900
X207600Y62000
X204400Y62400
X212300Y60900
X212800Y67400
X213600Y72400
X198400Y70700
Y68100
X192800Y68500
X190000Y67200
X190200Y71000
X187600
X183500Y63000
X189500Y59800
X194300Y64700
X185100Y54400
X179100Y56000
X168400Y62400
X171000Y68900
X170200Y46800
Y33600
X168000Y32100
X184800Y33500
X144462Y36138
X144200Y40400
X142100Y38500
X139000Y38300
X138800Y41000
X135500Y44500
X132000Y48300
X136600Y51900
X137600Y62000
X134400Y62400
X142300Y60900
X142800Y67400
X143600Y72400
X143100Y93900
X140982Y98358
X142615Y102100
X142600Y105800
X143500Y108600
Y116500
X143435Y120835
X139500Y120500
X136900Y120600
X131200Y120900
X134900Y115600
X140900Y114000
X136500Y107000
X130500Y110200
X132400Y99000
X149000Y101100
X151600Y107600
X149800Y123200
X219800
X246900Y76100
X249018Y71643
X247385Y67900
X247400Y64200
X246500Y61400
X253500Y63000
X238400Y62400
X241000Y68900
X240200Y46800
Y33600
X238000Y32100
X254800Y33500
X261500Y39300
X260520Y44300
X265700Y35500
X268500Y35100
X275300Y33700
X277100Y31500
X276600Y51900
X286300Y46200
X146300
X135300Y33700
X137100Y31500
X128500Y35100
X125700Y35500
X121500Y39300
X120520Y44300
X118800Y49100
X113100Y49400
X110500Y49500
X106565Y49165
X106500Y53500
X109100Y56000
X115100Y54400
X119500Y59800
X120000Y67200
X120200Y71000
X117600
X122800Y68500
X124300Y64700
X128400Y68100
Y70700
Y58100
X129100Y55500
X127400Y53500
X129100Y51500
X124600Y50000
X123200Y52200
X125800Y56300
X130100Y46300
X114800Y33500
X100200Y33600
X98000Y32100
X100200Y46800
X98400Y62400
X106500Y61400
X107400Y64200
X107385Y67900
X109018Y71643
X106900Y76100
X101000Y68900
X113500Y63000
X106400Y97600
X107200Y102600
X107700Y109100
X112400Y108000
X115600Y107600
X121600Y111900
X120900Y114500
X122600Y116500
X120900Y118500
X125400Y120000
X126800Y117800
X124200Y113700
X125700Y105300
X127200Y101500
X130000Y102800
X129800Y99000
X121600Y99300
Y101900
X118000Y121700
X119900Y123700
X114500Y125500
X111200Y129000
X111000Y131700
X107900Y131500
X105800Y129600
X105538Y133862
X103700Y123800
X113400Y118100
X129480Y125700
X128500Y130700
X79800Y123200
X73435Y120835
X69500Y120500
X66900Y120600
X61200Y120900
X59480Y125700
X58500Y130700
X55400Y120000
X56800Y117800
X52600Y116500
X50900Y114500
X51600Y111900
X54200Y113700
X50900Y118500
X48000Y121700
X49900Y123700
X44500Y125500
X41200Y129000
X41000Y131700
X37900Y131500
X35800Y129600
X35538Y133862
X33700Y123800
X43400Y118100
X42400Y108000
X45600Y107600
X37700Y109100
X37200Y102600
X36400Y97600
X51600Y99300
Y101900
X57200Y101500
X60000Y102800
X59800Y99000
X62400
X70983Y98358
X72615Y102100
X72600Y105800
X73500Y108600
Y116500
X70900Y114000
X64900Y115600
X60500Y110200
X66500Y107000
X55700Y105300
X79000Y101100
X81600Y107600
X73100Y93900
X73600Y72400
X72800Y67400
X72300Y60900
X67600Y62000
X64400Y62400
X58400Y58100
X59100Y55500
X57400Y53500
X59100Y51500
X54600Y50000
X53200Y52200
X55800Y56300
X49500Y59800
X50000Y67200
X50200Y71000
X47600
X52800Y68500
X54300Y64700
X58400Y68100
Y70700
X39018Y71643
X37385Y67900
X37400Y64200
X36500Y61400
Y53500
X36565Y49165
X40500Y49500
X43100Y49400
X48800Y49100
X50520Y44300
X51500Y39300
X55700Y35500
X58500Y35100
X65300Y33700
X67100Y31500
X69000Y38300
X68800Y41000
X72100Y38500
X74200Y40400
X74462Y36138
X76300Y46200
X65500Y44500
X60100Y46300
X62000Y48300
X66600Y51900
X45100Y54400
X39100Y56000
X43500Y63000
X28400Y62400
X31000Y68900
X36900Y76100
X30200Y46800
Y33600
X28000Y32100
X44800Y33500
X44700Y136300
X42900Y138500
X51500Y134900
X54300Y134500
X65200Y136500
X79800Y136400
X82000Y137900
X112900Y138500
X114700Y136300
X121500Y134900
X124300Y134500
X135200Y136500
X149800Y136400
X152000Y137900
X182900Y138500
X184700Y136300
X191500Y134900
X194300Y134500
X205200Y136500
X219800Y136400
X222000Y137900
X252900Y138500
X254700Y136300
X261500Y134900
X264300Y134500
X275200Y136500
X289800Y136400
X292000Y137900
X322900Y138500
X324700Y136300
X331500Y134900
X334300Y134500
X345200Y136500
X359800Y136400
X362000Y137900
T02
X295000Y35000
Y40000
X295004Y45000
X295000Y50000
Y55000
Y60000
Y65000
Y70000
Y75000
X290000Y80000
X290000Y90000
X295000Y95000
Y100000
Y105000
Y110000
Y115000
Y120000
Y125000
Y130000
X305000Y130000
X304996Y125000
X305000Y120000
Y115000
Y110000
Y105000
Y100000
Y95000
X310000Y90000
X315000
X320000
X325000
X330000
X335000
X340000
X345000
X350000
X355000
X360000
X365000Y95000
Y100000
Y105000
Y110000
Y115000
Y120000
Y125000
Y130000
X360000Y80000
X355000
X350000
X345000
X340000
X335000
X330000
X325000
X320000
X315000
X310000
X305000Y75000
Y70000
Y65000
Y60000
Y55000
Y50000
Y45000
Y40000
Y35000
X365000Y35000
Y40000
X365004Y45000
X365000Y50000
Y55000
Y60000
Y65000
Y70000
Y75000
X285000Y80000
X280000
X275000
X270000
X265000
X260000
X255000
X250000
X245000
X240000
X235000Y75000
Y70000
Y65000
Y60000
Y55000
Y50000
Y45000
Y40000
Y35000
X225000Y35000
Y40000
X225004Y45000
X225000Y50000
Y55000
Y60000
Y65000
Y70000
Y75000
X220000Y80000
X215000
X210000
X205000
X200000
X195000
X190000
X185000
X180000
X175000
X170000
X165000Y75000
Y70000
Y65000
Y60000
Y55000
Y50000
Y45000
Y40000
Y35000
X155000Y35000
Y40000
X155004Y45000
X155000Y50000
Y55000
Y60000
Y65000
Y70000
Y75000
X150000Y80000
X145000
X140000
X135000
X135000Y90000
X140000
X145000
X150000
X155000Y95000
Y100000
Y105000
Y110000
Y115000
Y120000
Y125000
Y130000
X165000Y130000
X164996Y125000
X165000Y120000
Y115000
Y110000
Y105000
Y100000
Y95000
X170000Y90000
X175000
X180000
X185000
X190000
X195000
X200000
X205000
X210000
X215000
X220000
X225000Y95000
Y100000
Y105000
Y110000
Y115000
Y120000
Y125000
Y130000
X235000Y130000
X234996Y125000
X235000Y120000
Y115000
Y110000
Y105000
Y100000
Y95000
X240000Y90000
X245000
X250000
X255000
X260000
X265000
X270000
X275000
X280000
X285000
X130000
X125000
X120000
X115000
X110000
X105000
X100000
X95000Y95000
Y100000
Y105000
Y110000
Y115000
Y120000
X94996Y125000
X95000Y130000
X85000Y130000
Y125000
Y120000
Y115000
Y110000
Y105000
Y100000
Y95000
X80000Y90000
X75000
X70000
X65000
X60000
X55000
X50000
X45000
X40000
X35000
X30000
X25000Y95000
Y100000
Y105000
Y110000
Y115000
Y120000
X24996Y125000
X25000Y130000
Y75000
Y70000
Y65000
Y60000
Y55000
Y50000
Y45000
Y40000
Y35000
X30000Y80000
X35000
X40000
X45000
X50000
X55000
X60000
X65000
X70000
X75000
X80000
X85000Y75000
Y70000
Y65000
Y60000
Y55000
Y50000
X85004Y45000
X85000Y40000
Y35000
X95000Y35000
Y40000
Y45000
Y50000
Y55000
Y60000
Y65000
Y70000
Y75000
X100000Y80000
X105000
X110000
X115000
X120000
X125000
X130000
X95000Y135000
X85000Y135000
X25000Y135000
X155000Y135000
X165000Y135000
X225000Y135000
X235000Y135000
X295000Y135000
X305000Y135000
X365000Y135000
T03
X377000Y13000
X13000
X13000Y157000
X377000
M30
