%FSLAX25Y25*%
%MOIN*%
G70*
G01*
G75*
G04 Layer_Color=2752767*
%ADD10C,0.01000*%
%ADD11C,0.00100*%
%ADD12C,0.10000*%
%ADD13C,0.00600*%
%ADD14C,0.00200*%
%ADD15C,0.00500*%
%ADD16C,0.00667*%
%ADD17C,0.01600*%
%ADD18C,0.00800*%
D10*
X391050Y0D02*
X400000D01*
X391050Y170000D02*
X400000D01*
X399000Y0D02*
Y62806D01*
Y103994D02*
Y170000D01*
Y0D02*
X401000Y6000D01*
X397000D02*
X399000Y0D01*
X397000Y164000D02*
X399000Y170000D01*
X401000Y164000D01*
X390000Y171050D02*
Y180000D01*
X0Y171050D02*
Y180000D01*
X214494Y179000D02*
X390000D01*
X0D02*
X172306D01*
X384000Y181000D02*
X390000Y179000D01*
X384000Y177000D02*
X390000Y179000D01*
X0D02*
X6000Y177000D01*
X0Y179000D02*
X6000Y181000D01*
X-22921Y29702D02*
X-14921D01*
X-18421Y26202D02*
X-14921Y29702D01*
X-18421Y33202D02*
X-14921Y29702D01*
X-18421Y143602D02*
X-14921Y140102D01*
X-18421Y136602D02*
X-14921Y140102D01*
X-22921D02*
X-14921D01*
X28410Y153549D02*
X33360D01*
X28410D02*
Y158499D01*
Y153549D02*
X34067Y159206D01*
X28549Y26390D02*
X34206Y20733D01*
X28549Y26390D02*
X33499D01*
X28549Y21440D02*
Y26390D01*
X-51421Y33200D02*
Y29201D01*
X-49422Y27202D01*
X-47422Y29201D01*
Y33200D01*
X-45423Y30201D02*
X-41424D01*
X-35426Y32200D02*
X-36426Y33200D01*
X-38425D01*
X-39425Y32200D01*
Y28201D01*
X-38425Y27202D01*
X-36426D01*
X-35426Y28201D01*
X-33427Y31200D02*
Y28201D01*
X-32427Y27202D01*
X-29428D01*
Y31200D01*
X-26429Y32200D02*
Y31200D01*
X-27429D01*
X-25429D01*
X-26429D01*
Y28201D01*
X-25429Y27202D01*
X-51421Y143600D02*
Y139601D01*
X-49422Y137602D01*
X-47422Y139601D01*
Y143600D01*
X-45423Y140601D02*
X-41424D01*
X-35426Y142600D02*
X-36426Y143600D01*
X-38425D01*
X-39425Y142600D01*
Y138601D01*
X-38425Y137602D01*
X-36426D01*
X-35426Y138601D01*
X-33427Y141600D02*
Y138601D01*
X-32427Y137602D01*
X-29428D01*
Y141600D01*
X-26429Y142600D02*
Y141600D01*
X-27429D01*
X-25429D01*
X-26429D01*
Y138601D01*
X-25429Y137602D01*
X36000Y166998D02*
Y161000D01*
X38999D01*
X39999Y162000D01*
Y165998D01*
X38999Y166998D01*
X36000D01*
X41998Y164999D02*
Y161000D01*
Y162999D01*
X42998Y163999D01*
X43997Y164999D01*
X44997D01*
X47996Y161000D02*
X49995D01*
X48996D01*
Y164999D01*
X47996D01*
X52995Y161000D02*
X54994D01*
X53994D01*
Y166998D01*
X52995D01*
X57993Y161000D02*
X59992D01*
X58993D01*
Y166998D01*
X57993D01*
X72988Y165998D02*
X71988Y166998D01*
X69989D01*
X68989Y165998D01*
Y162000D01*
X69989Y161000D01*
X71988D01*
X72988Y162000D01*
X74987Y164999D02*
Y162000D01*
X75987Y161000D01*
X78986D01*
Y164999D01*
X81985Y165998D02*
Y164999D01*
X80985D01*
X82985D01*
X81985D01*
Y162000D01*
X82985Y161000D01*
X37000Y17998D02*
Y12000D01*
Y14999D01*
X40999D01*
Y17998D01*
Y12000D01*
X45997D02*
X43998D01*
X42998Y13000D01*
Y14999D01*
X43998Y15999D01*
X45997D01*
X46997Y14999D01*
Y13999D01*
X42998D01*
X48996Y12000D02*
X50995D01*
X49996D01*
Y17998D01*
X48996D01*
X54994Y12000D02*
Y16998D01*
Y14999D01*
X53995D01*
X55994D01*
X54994D01*
Y16998D01*
X55994Y17998D01*
X64991D02*
Y12000D01*
Y14999D01*
X68990D01*
Y17998D01*
Y12000D01*
X71989D02*
X73988D01*
X74988Y13000D01*
Y14999D01*
X73988Y15999D01*
X71989D01*
X70989Y14999D01*
Y13000D01*
X71989Y12000D01*
X76987D02*
X78986D01*
X77987D01*
Y17998D01*
X76987D01*
X84984Y12000D02*
X82985D01*
X81985Y13000D01*
Y14999D01*
X82985Y15999D01*
X84984D01*
X85984Y14999D01*
Y13999D01*
X81985D01*
X466386Y48998D02*
X462388D01*
Y45999D01*
X464387Y46999D01*
X465387D01*
X466386Y45999D01*
Y44000D01*
X465387Y43000D01*
X463387D01*
X462388Y44000D01*
X472384Y48998D02*
X468386D01*
Y45999D01*
X470385Y46999D01*
X471385D01*
X472384Y45999D01*
Y44000D01*
X471385Y43000D01*
X469385D01*
X468386Y44000D01*
X474384Y47998D02*
X475383Y48998D01*
X477383D01*
X478382Y47998D01*
Y44000D01*
X477383Y43000D01*
X475383D01*
X474384Y44000D01*
Y47998D01*
X531969Y43000D02*
X533968D01*
X532969D01*
Y48998D01*
X531969Y47998D01*
X540966Y43000D02*
X536967D01*
X540966Y46999D01*
Y47998D01*
X539966Y48998D01*
X537967D01*
X536967Y47998D01*
X542965Y43000D02*
Y46999D01*
X543965D01*
X544965Y45999D01*
Y43000D01*
Y45999D01*
X545964Y46999D01*
X546964Y45999D01*
Y43000D01*
X548963D02*
X550963D01*
X549963D01*
Y46999D01*
X548963D01*
X553962Y43000D02*
X555961D01*
X554961D01*
Y48998D01*
X553962D01*
X566958Y43000D02*
X564958Y44999D01*
Y46999D01*
X566958Y48998D01*
X569957Y47998D02*
X570956Y48998D01*
X572956D01*
X573955Y47998D01*
Y44000D01*
X572956Y43000D01*
X570956D01*
X569957Y44000D01*
Y47998D01*
X575955Y43000D02*
Y44000D01*
X576954D01*
Y43000D01*
X575955D01*
X580953Y47998D02*
X581953Y48998D01*
X583952D01*
X584952Y47998D01*
Y46999D01*
X583952Y45999D01*
X582952D01*
X583952D01*
X584952Y44999D01*
Y44000D01*
X583952Y43000D01*
X581953D01*
X580953Y44000D01*
X586951Y47998D02*
X587951Y48998D01*
X589950D01*
X590950Y47998D01*
Y44000D01*
X589950Y43000D01*
X587951D01*
X586951Y44000D01*
Y47998D01*
X595948Y43000D02*
Y48998D01*
X592949Y45999D01*
X596948D01*
X598947Y47998D02*
X599947Y48998D01*
X601946D01*
X602946Y47998D01*
Y46999D01*
X601946Y45999D01*
X602946Y44999D01*
Y44000D01*
X601946Y43000D01*
X599947D01*
X598947Y44000D01*
Y44999D01*
X599947Y45999D01*
X598947Y46999D01*
Y47998D01*
X599947Y45999D02*
X601946D01*
X604945Y43000D02*
Y46999D01*
X605945D01*
X606945Y45999D01*
Y43000D01*
Y45999D01*
X607944Y46999D01*
X608944Y45999D01*
Y43000D01*
X610943D02*
Y46999D01*
X611943D01*
X612943Y45999D01*
Y43000D01*
Y45999D01*
X613942Y46999D01*
X614942Y45999D01*
Y43000D01*
X616941D02*
X618941Y44999D01*
Y46999D01*
X616941Y48998D01*
X666329Y43000D02*
Y48998D01*
X669328D01*
X670328Y47998D01*
Y45999D01*
X669328Y44999D01*
X666329D01*
X672327Y48998D02*
X676326D01*
X674327D01*
Y43000D01*
X678326Y48998D02*
Y43000D01*
Y45999D01*
X682324D01*
Y48998D01*
Y43000D01*
X716717D02*
Y48998D01*
X719716D01*
X720716Y47998D01*
Y45999D01*
X719716Y44999D01*
X716717D01*
X718716D02*
X720716Y43000D01*
X723715D02*
X725714D01*
X726714Y44000D01*
Y45999D01*
X725714Y46999D01*
X723715D01*
X722715Y45999D01*
Y44000D01*
X723715Y43000D01*
X728713Y46999D02*
Y44000D01*
X729713Y43000D01*
X732712D01*
Y46999D01*
X734711Y43000D02*
Y46999D01*
X737710D01*
X738710Y45999D01*
Y43000D01*
X744708Y48998D02*
Y43000D01*
X741709D01*
X740709Y44000D01*
Y45999D01*
X741709Y46999D01*
X744708D01*
X466386Y31000D02*
X462388D01*
X466386Y34999D01*
Y35998D01*
X465387Y36998D01*
X463387D01*
X462388Y35998D01*
X468386Y32000D02*
X469385Y31000D01*
X471385D01*
X472384Y32000D01*
Y35998D01*
X471385Y36998D01*
X469385D01*
X468386Y35998D01*
Y34999D01*
X469385Y33999D01*
X472384D01*
X474384Y35998D02*
X475383Y36998D01*
X477383D01*
X478382Y35998D01*
Y32000D01*
X477383Y31000D01*
X475383D01*
X474384Y32000D01*
Y35998D01*
X531969D02*
X532969Y36998D01*
X534968D01*
X535968Y35998D01*
Y34999D01*
X534968Y33999D01*
X533968D01*
X534968D01*
X535968Y32999D01*
Y32000D01*
X534968Y31000D01*
X532969D01*
X531969Y32000D01*
X537967Y35998D02*
X538967Y36998D01*
X540966D01*
X541966Y35998D01*
Y32000D01*
X540966Y31000D01*
X538967D01*
X537967Y32000D01*
Y35998D01*
X543965Y31000D02*
Y34999D01*
X544965D01*
X545964Y33999D01*
Y31000D01*
Y33999D01*
X546964Y34999D01*
X547964Y33999D01*
Y31000D01*
X549963D02*
X551963D01*
X550963D01*
Y34999D01*
X549963D01*
X554961Y31000D02*
X556961D01*
X555961D01*
Y36998D01*
X554961D01*
X567957Y31000D02*
X565958Y32999D01*
Y34999D01*
X567957Y36998D01*
X570956Y35998D02*
X571956Y36998D01*
X573955D01*
X574955Y35998D01*
Y32000D01*
X573955Y31000D01*
X571956D01*
X570956Y32000D01*
Y35998D01*
X576954Y31000D02*
Y32000D01*
X577954D01*
Y31000D01*
X576954D01*
X581953Y36998D02*
X585952D01*
Y35998D01*
X581953Y32000D01*
Y31000D01*
X591950Y36998D02*
X589950Y35998D01*
X587951Y33999D01*
Y32000D01*
X588950Y31000D01*
X590950D01*
X591950Y32000D01*
Y32999D01*
X590950Y33999D01*
X587951D01*
X597948Y31000D02*
X593949D01*
X597948Y34999D01*
Y35998D01*
X596948Y36998D01*
X594949D01*
X593949Y35998D01*
X599947Y31000D02*
Y34999D01*
X600947D01*
X601946Y33999D01*
Y31000D01*
Y33999D01*
X602946Y34999D01*
X603946Y33999D01*
Y31000D01*
X605945D02*
Y34999D01*
X606945D01*
X607944Y33999D01*
Y31000D01*
Y33999D01*
X608944Y34999D01*
X609944Y33999D01*
Y31000D01*
X611943D02*
X613942Y32999D01*
Y34999D01*
X611943Y36998D01*
X666329Y31000D02*
Y36998D01*
X669328D01*
X670328Y35998D01*
Y33999D01*
X669328Y32999D01*
X666329D01*
X672327Y36998D02*
X676326D01*
X674327D01*
Y31000D01*
X678326Y36998D02*
Y31000D01*
Y33999D01*
X682324D01*
Y36998D01*
Y31000D01*
X716717D02*
Y36998D01*
X719716D01*
X720716Y35998D01*
Y33999D01*
X719716Y32999D01*
X716717D01*
X718716D02*
X720716Y31000D01*
X723715D02*
X725714D01*
X726714Y32000D01*
Y33999D01*
X725714Y34999D01*
X723715D01*
X722715Y33999D01*
Y32000D01*
X723715Y31000D01*
X728713Y34999D02*
Y32000D01*
X729713Y31000D01*
X732712D01*
Y34999D01*
X734711Y31000D02*
Y34999D01*
X737710D01*
X738710Y33999D01*
Y31000D01*
X744708Y36998D02*
Y31000D01*
X741709D01*
X740709Y32000D01*
Y33999D01*
X741709Y34999D01*
X744708D01*
X465387Y19000D02*
Y24998D01*
X462388Y21999D01*
X466386D01*
X531969Y19000D02*
X533968D01*
X532969D01*
Y24998D01*
X531969Y23998D01*
X536967Y19000D02*
X538967D01*
X537967D01*
Y24998D01*
X536967Y23998D01*
X541966D02*
X542965Y24998D01*
X544965D01*
X545964Y23998D01*
Y22999D01*
X544965Y21999D01*
X545964Y20999D01*
Y20000D01*
X544965Y19000D01*
X542965D01*
X541966Y20000D01*
Y20999D01*
X542965Y21999D01*
X541966Y22999D01*
Y23998D01*
X542965Y21999D02*
X544965D01*
X547964Y19000D02*
Y20000D01*
X548963D01*
Y19000D01*
X547964D01*
X552962D02*
X554961D01*
X553962D01*
Y24998D01*
X552962Y23998D01*
X557961Y19000D02*
X559960D01*
X558960D01*
Y24998D01*
X557961Y23998D01*
X562959Y19000D02*
Y22999D01*
X563959D01*
X564958Y21999D01*
Y19000D01*
Y21999D01*
X565958Y22999D01*
X566958Y21999D01*
Y19000D01*
X568957D02*
X570956D01*
X569957D01*
Y22999D01*
X568957D01*
X573955Y19000D02*
X575955D01*
X574955D01*
Y24998D01*
X573955D01*
X586951Y19000D02*
X584952Y20999D01*
Y22999D01*
X586951Y24998D01*
X589950Y23998D02*
X590950Y24998D01*
X592949D01*
X593949Y23998D01*
Y22999D01*
X592949Y21999D01*
X591950D01*
X592949D01*
X593949Y20999D01*
Y20000D01*
X592949Y19000D01*
X590950D01*
X589950Y20000D01*
X595948Y19000D02*
Y22999D01*
X596948D01*
X597948Y21999D01*
Y19000D01*
Y21999D01*
X598947Y22999D01*
X599947Y21999D01*
Y19000D01*
X601946D02*
Y22999D01*
X602946D01*
X603946Y21999D01*
Y19000D01*
Y21999D01*
X604945Y22999D01*
X605945Y21999D01*
Y19000D01*
X607944D02*
X609944Y20999D01*
Y22999D01*
X607944Y24998D01*
X666329Y19000D02*
Y24998D01*
X669328D01*
X670328Y23998D01*
Y21999D01*
X669328Y20999D01*
X666329D01*
X672327Y24998D02*
X676326D01*
X674327D01*
Y19000D01*
X678326Y24998D02*
Y19000D01*
Y21999D01*
X682324D01*
Y24998D01*
Y19000D01*
X716717D02*
Y24998D01*
X719716D01*
X720716Y23998D01*
Y21999D01*
X719716Y20999D01*
X716717D01*
X718716D02*
X720716Y19000D01*
X723715D02*
X725714D01*
X726714Y20000D01*
Y21999D01*
X725714Y22999D01*
X723715D01*
X722715Y21999D01*
Y20000D01*
X723715Y19000D01*
X728713Y22999D02*
Y20000D01*
X729713Y19000D01*
X732712D01*
Y22999D01*
X734711Y19000D02*
Y22999D01*
X737710D01*
X738710Y21999D01*
Y19000D01*
X744708Y24998D02*
Y19000D01*
X741709D01*
X740709Y20000D01*
Y21999D01*
X741709Y22999D01*
X744708D01*
X462388Y11998D02*
X463387Y12998D01*
X465387D01*
X466386Y11998D01*
Y10999D01*
X465387Y9999D01*
X466386Y8999D01*
Y8000D01*
X465387Y7000D01*
X463387D01*
X462388Y8000D01*
Y8999D01*
X463387Y9999D01*
X462388Y10999D01*
Y11998D01*
X463387Y9999D02*
X465387D01*
X471385Y7000D02*
Y12998D01*
X468386Y9999D01*
X472384D01*
X477383Y7000D02*
Y12998D01*
X474384Y9999D01*
X478382D01*
X489182Y12998D02*
X493181D01*
X491182D01*
Y7000D01*
X496180D02*
X498179D01*
X499179Y8000D01*
Y9999D01*
X498179Y10999D01*
X496180D01*
X495181Y9999D01*
Y8000D01*
X496180Y7000D01*
X502178Y11998D02*
Y10999D01*
X501179D01*
X503178D01*
X502178D01*
Y8000D01*
X503178Y7000D01*
X507177Y10999D02*
X509176D01*
X510176Y9999D01*
Y7000D01*
X507177D01*
X506177Y8000D01*
X507177Y8999D01*
X510176D01*
X512175Y7000D02*
X514174D01*
X513175D01*
Y12998D01*
X512175D01*
D11*
X-10000Y29800D02*
X400000D01*
X-10500Y29300D02*
X-9500Y30300D01*
X-10500D02*
X-9500Y29300D01*
X-10500Y140700D02*
X-9500Y139700D01*
X-10500D02*
X-9500Y140700D01*
X-10000Y140200D02*
X400000D01*
X0Y170000D02*
X390000D01*
Y0D02*
Y170000D01*
X0Y0D02*
X390000D01*
X0D02*
Y170000D01*
X24293Y150000D02*
X25707D01*
X25000Y149293D02*
Y150707D01*
X24293Y29800D02*
X25707D01*
X25000Y29093D02*
Y30507D01*
D12*
X20000Y85000D02*
X370000D01*
X20000Y25000D02*
Y145000D01*
X90000Y25000D02*
Y145000D01*
X160000Y25000D02*
Y145000D01*
X230000Y25000D02*
Y145000D01*
X300000Y25000D02*
Y145000D01*
X370000Y25000D02*
Y145000D01*
D13*
X402599Y67405D02*
X396601D01*
X399600Y64406D01*
Y68405D01*
X397601Y70404D02*
X396601Y71404D01*
Y73403D01*
X397601Y74403D01*
X398600D01*
X399600Y73403D01*
Y72404D01*
Y73403D01*
X400600Y74403D01*
X401599D01*
X402599Y73403D01*
Y71404D01*
X401599Y70404D01*
X402599Y76402D02*
X401599D01*
Y77402D01*
X402599D01*
Y76402D01*
Y81401D02*
Y83400D01*
Y82400D01*
X396601D01*
X397601Y81401D01*
Y86399D02*
X396601Y87399D01*
Y89398D01*
X397601Y90398D01*
X398600D01*
X399600Y89398D01*
X400600Y90398D01*
X401599D01*
X402599Y89398D01*
Y87399D01*
X401599Y86399D01*
X400600D01*
X399600Y87399D01*
X398600Y86399D01*
X397601D01*
X399600Y87399D02*
Y89398D01*
X402599Y92397D02*
X398600D01*
Y93397D01*
X399600Y94397D01*
X402599D01*
X399600D01*
X398600Y95396D01*
X399600Y96396D01*
X402599D01*
Y98395D02*
X398600D01*
Y99395D01*
X399600Y100394D01*
X402599D01*
X399600D01*
X398600Y101394D01*
X399600Y102394D01*
X402599D01*
X173906Y176401D02*
X174906Y175401D01*
X176905D01*
X177905Y176401D01*
Y180399D01*
X176905Y181399D01*
X174906D01*
X173906Y180399D01*
Y179400D01*
X174906Y178400D01*
X177905D01*
X179904Y176401D02*
X180904Y175401D01*
X182903D01*
X183903Y176401D01*
Y180399D01*
X182903Y181399D01*
X180904D01*
X179904Y180399D01*
Y179400D01*
X180904Y178400D01*
X183903D01*
X185903Y175401D02*
Y176401D01*
X186902D01*
Y175401D01*
X185903D01*
X190901Y180399D02*
X191901Y181399D01*
X193900D01*
X194900Y180399D01*
Y176401D01*
X193900Y175401D01*
X191901D01*
X190901Y176401D01*
Y180399D01*
X200898Y181399D02*
X198898Y180399D01*
X196899Y178400D01*
Y176401D01*
X197899Y175401D01*
X199898D01*
X200898Y176401D01*
Y177400D01*
X199898Y178400D01*
X196899D01*
X202897Y175401D02*
Y179400D01*
X203897D01*
X204896Y178400D01*
Y175401D01*
Y178400D01*
X205896Y179400D01*
X206896Y178400D01*
Y175401D01*
X208895D02*
Y179400D01*
X209895D01*
X210894Y178400D01*
Y175401D01*
Y178400D01*
X211894Y179400D01*
X212894Y178400D01*
Y175401D01*
D14*
X25000Y90000D02*
X85000D01*
Y140000D01*
X25000D02*
X85000D01*
X25000Y90000D02*
Y140000D01*
X95000Y90000D02*
X155000D01*
Y140000D01*
X95000D02*
X155000D01*
X95000Y90000D02*
Y140000D01*
X165000Y90000D02*
X225001D01*
Y140000D01*
X165000D02*
X225001D01*
X165000Y90000D02*
Y140000D01*
X235000Y90000D02*
X295001D01*
Y140000D01*
X235000D02*
X295001D01*
X235000Y90000D02*
Y140000D01*
X305000Y90000D02*
X365001D01*
Y140000D01*
X305000D02*
X365001D01*
X305000Y90000D02*
Y140000D01*
X365000Y80000D02*
X305000D01*
Y30000D01*
X365000D02*
X305000D01*
X365000Y80000D02*
Y30000D01*
X295000Y80000D02*
X235000D01*
Y30000D01*
X295000D02*
X235000D01*
X295000Y80000D02*
Y30000D01*
X225000Y80000D02*
X165000D01*
Y30000D01*
X225000D02*
X165000D01*
X225000Y80000D02*
Y30000D01*
X155000Y80000D02*
X95000D01*
Y30000D01*
X155000D02*
X95000D01*
X155000Y80000D02*
Y30000D01*
X85000Y80000D02*
X25000D01*
Y30000D01*
X85000D02*
X25000D01*
X85000Y80000D02*
Y30000D01*
D15*
X11000Y11000D02*
Y15000D01*
X15000D01*
Y11000D01*
X11000D01*
X375000D02*
Y15000D01*
X379000D01*
Y11000D01*
X375000D01*
X375000Y155000D02*
Y159000D01*
X379000D01*
Y155000D01*
X375000D01*
X11000D02*
Y159000D01*
X15000D01*
Y155000D01*
X11000D01*
X37200Y100600D02*
X35200Y104600D01*
X39200D01*
X37200Y100600D01*
X56800Y115800D02*
X54800Y119800D01*
X58800D01*
X56800Y115800D01*
X72600Y103800D02*
X70600Y107800D01*
X74600D01*
X72600Y103800D01*
X60000Y100800D02*
X58000Y104800D01*
X62000D01*
X60000Y100800D01*
X51600Y99900D02*
X49600Y103900D01*
X53600D01*
X51600Y99900D01*
X55700Y103300D02*
X53700Y107300D01*
X57700D01*
X55700Y103300D01*
X52600Y114500D02*
X50600Y118500D01*
X54600D01*
X52600Y114500D01*
X73100Y91900D02*
X71100Y95900D01*
X75100D01*
X73100Y91900D01*
X70983Y96358D02*
X68983Y100358D01*
X72983D01*
X70983Y96358D01*
X72615Y100100D02*
X70615Y104100D01*
X74615D01*
X72615Y100100D01*
X59480Y123700D02*
X57480Y127700D01*
X61480D01*
X59480Y123700D01*
X42900Y136500D02*
X40900Y140500D01*
X44900D01*
X42900Y136500D01*
X37700Y107100D02*
X35700Y111100D01*
X39700D01*
X37700Y107100D01*
X54200Y111700D02*
X52200Y115700D01*
X56200D01*
X54200Y111700D01*
X44500Y123500D02*
X42500Y127500D01*
X46500D01*
X44500Y123500D01*
X41000Y129700D02*
X39000Y133700D01*
X43000D01*
X41000Y129700D01*
X55400Y118000D02*
X53400Y122000D01*
X57400D01*
X55400Y118000D01*
X61200Y118900D02*
X59200Y122900D01*
X63200D01*
X61200Y118900D01*
X58500Y128700D02*
X56500Y132700D01*
X60500D01*
X58500Y128700D01*
X54300Y132500D02*
X52300Y136500D01*
X56300D01*
X54300Y132500D01*
X70900Y112000D02*
X68900Y116000D01*
X72900D01*
X70900Y112000D01*
X51600Y97300D02*
X49600Y101300D01*
X53600D01*
X51600Y97300D01*
X73500Y106600D02*
X71500Y110600D01*
X75500D01*
X73500Y106600D01*
Y114500D02*
X71500Y118500D01*
X75500D01*
X73500Y114500D01*
X43400Y116100D02*
X41400Y120100D01*
X45400D01*
X43400Y116100D01*
X45600Y105600D02*
X43600Y109600D01*
X47600D01*
X45600Y105600D01*
X42400Y106000D02*
X40400Y110000D01*
X44400D01*
X42400Y106000D01*
X57200Y99500D02*
X55200Y103500D01*
X59200D01*
X57200Y99500D01*
X69500Y118500D02*
X67500Y122500D01*
X71500D01*
X69500Y118500D01*
X66900Y118600D02*
X64900Y122600D01*
X68900D01*
X66900Y118600D01*
X59800Y97000D02*
X57800Y101000D01*
X61800D01*
X59800Y97000D01*
X51600Y109900D02*
X49600Y113900D01*
X53600D01*
X51600Y109900D01*
X44700Y134300D02*
X42700Y138300D01*
X46700D01*
X44700Y134300D01*
X49900Y121700D02*
X47900Y125700D01*
X51900D01*
X49900Y121700D01*
X81600Y105600D02*
X79600Y109600D01*
X83600D01*
X81600Y105600D01*
X79000Y99100D02*
X77000Y103100D01*
X81000D01*
X79000Y99100D01*
X73435Y118835D02*
X71435Y122835D01*
X75435D01*
X73435Y118835D01*
X41200Y127000D02*
X39200Y131000D01*
X43200D01*
X41200Y127000D01*
X79800Y134400D02*
X77800Y138400D01*
X81800D01*
X79800Y134400D01*
Y121200D02*
X77800Y125200D01*
X81800D01*
X79800Y121200D01*
X65200Y134500D02*
X63200Y138500D01*
X67200D01*
X65200Y134500D01*
X33700Y121800D02*
X31700Y125800D01*
X35700D01*
X33700Y121800D01*
X36400Y95600D02*
X34400Y99600D01*
X38400D01*
X36400Y95600D01*
X48000Y119700D02*
X46000Y123700D01*
X50000D01*
X48000Y119700D01*
X62400Y97000D02*
X60400Y101000D01*
X64400D01*
X62400Y97000D01*
X82000Y135900D02*
X80000Y139900D01*
X84000D01*
X82000Y135900D01*
X51500Y132900D02*
X49500Y136900D01*
X53500D01*
X51500Y132900D01*
X50900Y112500D02*
X48900Y116500D01*
X52900D01*
X50900Y112500D01*
Y116500D02*
X48900Y120500D01*
X52900D01*
X50900Y116500D01*
X60500Y108200D02*
X58500Y112200D01*
X62500D01*
X60500Y108200D01*
X37900Y129500D02*
X35900Y133500D01*
X39900D01*
X37900Y129500D01*
X64900Y113600D02*
X62900Y117600D01*
X66900D01*
X64900Y113600D01*
X66500Y105000D02*
X64500Y109000D01*
X68500D01*
X66500Y105000D01*
X35800Y127600D02*
X33800Y131600D01*
X37800D01*
X35800Y127600D01*
X35538Y131862D02*
X33538Y135862D01*
X37538D01*
X35538Y131862D01*
X107200Y100600D02*
X105200Y104600D01*
X109200D01*
X107200Y100600D01*
X126800Y115800D02*
X124800Y119800D01*
X128800D01*
X126800Y115800D01*
X142600Y103800D02*
X140600Y107800D01*
X144600D01*
X142600Y103800D01*
X130000Y100800D02*
X128000Y104800D01*
X132000D01*
X130000Y100800D01*
X121600Y99900D02*
X119600Y103900D01*
X123600D01*
X121600Y99900D01*
X125700Y103300D02*
X123700Y107300D01*
X127700D01*
X125700Y103300D01*
X122600Y114500D02*
X120600Y118500D01*
X124600D01*
X122600Y114500D01*
X143100Y91900D02*
X141100Y95900D01*
X145100D01*
X143100Y91900D01*
X140982Y96358D02*
X138982Y100358D01*
X142982D01*
X140982Y96358D01*
X142615Y100100D02*
X140615Y104100D01*
X144615D01*
X142615Y100100D01*
X129480Y123700D02*
X127480Y127700D01*
X131480D01*
X129480Y123700D01*
X112900Y136500D02*
X110900Y140500D01*
X114900D01*
X112900Y136500D01*
X107700Y107100D02*
X105700Y111100D01*
X109700D01*
X107700Y107100D01*
X124200Y111700D02*
X122200Y115700D01*
X126200D01*
X124200Y111700D01*
X114500Y123500D02*
X112500Y127500D01*
X116500D01*
X114500Y123500D01*
X111000Y129700D02*
X109000Y133700D01*
X113000D01*
X111000Y129700D01*
X125400Y118000D02*
X123400Y122000D01*
X127400D01*
X125400Y118000D01*
X131200Y118900D02*
X129200Y122900D01*
X133200D01*
X131200Y118900D01*
X128500Y128700D02*
X126500Y132700D01*
X130500D01*
X128500Y128700D01*
X124300Y132500D02*
X122300Y136500D01*
X126300D01*
X124300Y132500D01*
X140900Y112000D02*
X138900Y116000D01*
X142900D01*
X140900Y112000D01*
X121600Y97300D02*
X119600Y101300D01*
X123600D01*
X121600Y97300D01*
X143500Y106600D02*
X141500Y110600D01*
X145500D01*
X143500Y106600D01*
Y114500D02*
X141500Y118500D01*
X145500D01*
X143500Y114500D01*
X113400Y116100D02*
X111400Y120100D01*
X115400D01*
X113400Y116100D01*
X115600Y105600D02*
X113600Y109600D01*
X117600D01*
X115600Y105600D01*
X112400Y106000D02*
X110400Y110000D01*
X114400D01*
X112400Y106000D01*
X127200Y99500D02*
X125200Y103500D01*
X129200D01*
X127200Y99500D01*
X139500Y118500D02*
X137500Y122500D01*
X141500D01*
X139500Y118500D01*
X136900Y118600D02*
X134900Y122600D01*
X138900D01*
X136900Y118600D01*
X129800Y97000D02*
X127800Y101000D01*
X131800D01*
X129800Y97000D01*
X121600Y109900D02*
X119600Y113900D01*
X123600D01*
X121600Y109900D01*
X114700Y134300D02*
X112700Y138300D01*
X116700D01*
X114700Y134300D01*
X119900Y121700D02*
X117900Y125700D01*
X121900D01*
X119900Y121700D01*
X151600Y105600D02*
X149600Y109600D01*
X153600D01*
X151600Y105600D01*
X149000Y99100D02*
X147000Y103100D01*
X151000D01*
X149000Y99100D01*
X143435Y118835D02*
X141435Y122835D01*
X145435D01*
X143435Y118835D01*
X111200Y127000D02*
X109200Y131000D01*
X113200D01*
X111200Y127000D01*
X149800Y134400D02*
X147800Y138400D01*
X151800D01*
X149800Y134400D01*
Y121200D02*
X147800Y125200D01*
X151800D01*
X149800Y121200D01*
X135200Y134500D02*
X133200Y138500D01*
X137200D01*
X135200Y134500D01*
X103700Y121800D02*
X101700Y125800D01*
X105700D01*
X103700Y121800D01*
X106400Y95600D02*
X104400Y99600D01*
X108400D01*
X106400Y95600D01*
X118000Y119700D02*
X116000Y123700D01*
X120000D01*
X118000Y119700D01*
X132400Y97000D02*
X130400Y101000D01*
X134400D01*
X132400Y97000D01*
X152000Y135900D02*
X150000Y139900D01*
X154000D01*
X152000Y135900D01*
X121500Y132900D02*
X119500Y136900D01*
X123500D01*
X121500Y132900D01*
X120900Y112500D02*
X118900Y116500D01*
X122900D01*
X120900Y112500D01*
Y116500D02*
X118900Y120500D01*
X122900D01*
X120900Y116500D01*
X130500Y108200D02*
X128500Y112200D01*
X132500D01*
X130500Y108200D01*
X107900Y129500D02*
X105900Y133500D01*
X109900D01*
X107900Y129500D01*
X134900Y113600D02*
X132900Y117600D01*
X136900D01*
X134900Y113600D01*
X136500Y105000D02*
X134500Y109000D01*
X138500D01*
X136500Y105000D01*
X105800Y127600D02*
X103800Y131600D01*
X107800D01*
X105800Y127600D01*
X105538Y131862D02*
X103538Y135862D01*
X107538D01*
X105538Y131862D01*
X177200Y100600D02*
X175200Y104600D01*
X179200D01*
X177200Y100600D01*
X196800Y115800D02*
X194800Y119800D01*
X198800D01*
X196800Y115800D01*
X212600Y103800D02*
X210600Y107800D01*
X214600D01*
X212600Y103800D01*
X200000Y100800D02*
X198000Y104800D01*
X202000D01*
X200000Y100800D01*
X191600Y99900D02*
X189600Y103900D01*
X193600D01*
X191600Y99900D01*
X195700Y103300D02*
X193700Y107300D01*
X197700D01*
X195700Y103300D01*
X192600Y114500D02*
X190600Y118500D01*
X194600D01*
X192600Y114500D01*
X213100Y91900D02*
X211100Y95900D01*
X215100D01*
X213100Y91900D01*
X210982Y96358D02*
X208982Y100358D01*
X212983D01*
X210982Y96358D01*
X212615Y100100D02*
X210615Y104100D01*
X214615D01*
X212615Y100100D01*
X199480Y123700D02*
X197480Y127700D01*
X201480D01*
X199480Y123700D01*
X182900Y136500D02*
X180900Y140500D01*
X184900D01*
X182900Y136500D01*
X177700Y107100D02*
X175700Y111100D01*
X179700D01*
X177700Y107100D01*
X194200Y111700D02*
X192200Y115700D01*
X196200D01*
X194200Y111700D01*
X184500Y123500D02*
X182500Y127500D01*
X186500D01*
X184500Y123500D01*
X181000Y129700D02*
X179000Y133700D01*
X183000D01*
X181000Y129700D01*
X195400Y118000D02*
X193400Y122000D01*
X197400D01*
X195400Y118000D01*
X201200Y118900D02*
X199200Y122900D01*
X203200D01*
X201200Y118900D01*
X198500Y128700D02*
X196500Y132700D01*
X200500D01*
X198500Y128700D01*
X194300Y132500D02*
X192300Y136500D01*
X196300D01*
X194300Y132500D01*
X210900Y112000D02*
X208900Y116000D01*
X212900D01*
X210900Y112000D01*
X191600Y97300D02*
X189600Y101300D01*
X193600D01*
X191600Y97300D01*
X213500Y106600D02*
X211500Y110600D01*
X215500D01*
X213500Y106600D01*
Y114500D02*
X211500Y118500D01*
X215500D01*
X213500Y114500D01*
X183400Y116100D02*
X181400Y120100D01*
X185400D01*
X183400Y116100D01*
X185600Y105600D02*
X183600Y109600D01*
X187600D01*
X185600Y105600D01*
X182400Y106000D02*
X180400Y110000D01*
X184400D01*
X182400Y106000D01*
X197200Y99500D02*
X195200Y103500D01*
X199200D01*
X197200Y99500D01*
X209500Y118500D02*
X207500Y122500D01*
X211500D01*
X209500Y118500D01*
X206900Y118600D02*
X204900Y122600D01*
X208900D01*
X206900Y118600D01*
X199800Y97000D02*
X197800Y101000D01*
X201800D01*
X199800Y97000D01*
X191600Y109900D02*
X189600Y113900D01*
X193600D01*
X191600Y109900D01*
X184700Y134300D02*
X182700Y138300D01*
X186700D01*
X184700Y134300D01*
X189900Y121700D02*
X187900Y125700D01*
X191900D01*
X189900Y121700D01*
X221600Y105600D02*
X219600Y109600D01*
X223600D01*
X221600Y105600D01*
X219000Y99100D02*
X217000Y103100D01*
X221000D01*
X219000Y99100D01*
X213435Y118835D02*
X211435Y122835D01*
X215435D01*
X213435Y118835D01*
X181200Y127000D02*
X179200Y131000D01*
X183200D01*
X181200Y127000D01*
X219800Y134400D02*
X217800Y138400D01*
X221800D01*
X219800Y134400D01*
Y121200D02*
X217800Y125200D01*
X221800D01*
X219800Y121200D01*
X205200Y134500D02*
X203200Y138500D01*
X207200D01*
X205200Y134500D01*
X173700Y121800D02*
X171700Y125800D01*
X175700D01*
X173700Y121800D01*
X176400Y95600D02*
X174400Y99600D01*
X178400D01*
X176400Y95600D01*
X188000Y119700D02*
X186000Y123700D01*
X190000D01*
X188000Y119700D01*
X202400Y97000D02*
X200400Y101000D01*
X204400D01*
X202400Y97000D01*
X222000Y135900D02*
X220000Y139900D01*
X224000D01*
X222000Y135900D01*
X191500Y132900D02*
X189500Y136900D01*
X193500D01*
X191500Y132900D01*
X190900Y112500D02*
X188900Y116500D01*
X192900D01*
X190900Y112500D01*
Y116500D02*
X188900Y120500D01*
X192900D01*
X190900Y116500D01*
X200500Y108200D02*
X198500Y112200D01*
X202500D01*
X200500Y108200D01*
X177900Y129500D02*
X175900Y133500D01*
X179900D01*
X177900Y129500D01*
X204900Y113600D02*
X202900Y117600D01*
X206900D01*
X204900Y113600D01*
X206500Y105000D02*
X204500Y109000D01*
X208500D01*
X206500Y105000D01*
X175800Y127600D02*
X173800Y131600D01*
X177800D01*
X175800Y127600D01*
X175538Y131862D02*
X173538Y135862D01*
X177538D01*
X175538Y131862D01*
X247200Y100600D02*
X245200Y104600D01*
X249200D01*
X247200Y100600D01*
X266800Y115800D02*
X264800Y119800D01*
X268800D01*
X266800Y115800D01*
X282600Y103800D02*
X280600Y107800D01*
X284600D01*
X282600Y103800D01*
X270000Y100800D02*
X268000Y104800D01*
X272000D01*
X270000Y100800D01*
X261600Y99900D02*
X259600Y103900D01*
X263600D01*
X261600Y99900D01*
X265700Y103300D02*
X263700Y107300D01*
X267700D01*
X265700Y103300D01*
X262600Y114500D02*
X260600Y118500D01*
X264600D01*
X262600Y114500D01*
X283100Y91900D02*
X281100Y95900D01*
X285100D01*
X283100Y91900D01*
X280982Y96358D02*
X278982Y100358D01*
X282982D01*
X280982Y96358D01*
X282615Y100100D02*
X280615Y104100D01*
X284615D01*
X282615Y100100D01*
X269480Y123700D02*
X267480Y127700D01*
X271480D01*
X269480Y123700D01*
X252900Y136500D02*
X250900Y140500D01*
X254900D01*
X252900Y136500D01*
X247700Y107100D02*
X245700Y111100D01*
X249700D01*
X247700Y107100D01*
X264200Y111700D02*
X262200Y115700D01*
X266200D01*
X264200Y111700D01*
X254500Y123500D02*
X252500Y127500D01*
X256500D01*
X254500Y123500D01*
X251000Y129700D02*
X249000Y133700D01*
X253000D01*
X251000Y129700D01*
X265400Y118000D02*
X263400Y122000D01*
X267400D01*
X265400Y118000D01*
X271200Y118900D02*
X269200Y122900D01*
X273200D01*
X271200Y118900D01*
X268500Y128700D02*
X266500Y132700D01*
X270500D01*
X268500Y128700D01*
X264300Y132500D02*
X262300Y136500D01*
X266300D01*
X264300Y132500D01*
X280900Y112000D02*
X278900Y116000D01*
X282900D01*
X280900Y112000D01*
X261600Y97300D02*
X259600Y101300D01*
X263600D01*
X261600Y97300D01*
X283500Y106600D02*
X281500Y110600D01*
X285500D01*
X283500Y106600D01*
Y114500D02*
X281500Y118500D01*
X285500D01*
X283500Y114500D01*
X253400Y116100D02*
X251400Y120100D01*
X255400D01*
X253400Y116100D01*
X255600Y105600D02*
X253600Y109600D01*
X257600D01*
X255600Y105600D01*
X252400Y106000D02*
X250400Y110000D01*
X254400D01*
X252400Y106000D01*
X267200Y99500D02*
X265200Y103500D01*
X269200D01*
X267200Y99500D01*
X279500Y118500D02*
X277500Y122500D01*
X281500D01*
X279500Y118500D01*
X276900Y118600D02*
X274900Y122600D01*
X278900D01*
X276900Y118600D01*
X269800Y97000D02*
X267800Y101000D01*
X271800D01*
X269800Y97000D01*
X261600Y109900D02*
X259600Y113900D01*
X263600D01*
X261600Y109900D01*
X254700Y134300D02*
X252700Y138300D01*
X256700D01*
X254700Y134300D01*
X259900Y121700D02*
X257900Y125700D01*
X261900D01*
X259900Y121700D01*
X291600Y105600D02*
X289600Y109600D01*
X293600D01*
X291600Y105600D01*
X289000Y99100D02*
X287000Y103100D01*
X291000D01*
X289000Y99100D01*
X283435Y118835D02*
X281435Y122835D01*
X285435D01*
X283435Y118835D01*
X251200Y127000D02*
X249200Y131000D01*
X253200D01*
X251200Y127000D01*
X289800Y134400D02*
X287800Y138400D01*
X291800D01*
X289800Y134400D01*
Y121200D02*
X287800Y125200D01*
X291800D01*
X289800Y121200D01*
X275200Y134500D02*
X273200Y138500D01*
X277200D01*
X275200Y134500D01*
X243700Y121800D02*
X241700Y125800D01*
X245700D01*
X243700Y121800D01*
X246400Y95600D02*
X244400Y99600D01*
X248400D01*
X246400Y95600D01*
X258000Y119700D02*
X256000Y123700D01*
X260000D01*
X258000Y119700D01*
X272400Y97000D02*
X270400Y101000D01*
X274400D01*
X272400Y97000D01*
X292000Y135900D02*
X290000Y139900D01*
X294000D01*
X292000Y135900D01*
X261500Y132900D02*
X259500Y136900D01*
X263500D01*
X261500Y132900D01*
X260900Y112500D02*
X258900Y116500D01*
X262900D01*
X260900Y112500D01*
Y116500D02*
X258900Y120500D01*
X262900D01*
X260900Y116500D01*
X270500Y108200D02*
X268500Y112200D01*
X272500D01*
X270500Y108200D01*
X247900Y129500D02*
X245900Y133500D01*
X249900D01*
X247900Y129500D01*
X274900Y113600D02*
X272900Y117600D01*
X276900D01*
X274900Y113600D01*
X276500Y105000D02*
X274500Y109000D01*
X278500D01*
X276500Y105000D01*
X245800Y127600D02*
X243800Y131600D01*
X247800D01*
X245800Y127600D01*
X245538Y131862D02*
X243538Y135862D01*
X247538D01*
X245538Y131862D01*
X317200Y100600D02*
X315200Y104600D01*
X319200D01*
X317200Y100600D01*
X336800Y115800D02*
X334800Y119800D01*
X338800D01*
X336800Y115800D01*
X352600Y103800D02*
X350600Y107800D01*
X354600D01*
X352600Y103800D01*
X340000Y100800D02*
X338000Y104800D01*
X342000D01*
X340000Y100800D01*
X331600Y99900D02*
X329600Y103900D01*
X333600D01*
X331600Y99900D01*
X335700Y103300D02*
X333700Y107300D01*
X337700D01*
X335700Y103300D01*
X332600Y114500D02*
X330600Y118500D01*
X334600D01*
X332600Y114500D01*
X353100Y91900D02*
X351100Y95900D01*
X355100D01*
X353100Y91900D01*
X350982Y96358D02*
X348983Y100358D01*
X352982D01*
X350982Y96358D01*
X352615Y100100D02*
X350615Y104100D01*
X354615D01*
X352615Y100100D01*
X339480Y123700D02*
X337480Y127700D01*
X341480D01*
X339480Y123700D01*
X322900Y136500D02*
X320900Y140500D01*
X324900D01*
X322900Y136500D01*
X317700Y107100D02*
X315700Y111100D01*
X319700D01*
X317700Y107100D01*
X334200Y111700D02*
X332200Y115700D01*
X336200D01*
X334200Y111700D01*
X324500Y123500D02*
X322500Y127500D01*
X326500D01*
X324500Y123500D01*
X321000Y129700D02*
X319000Y133700D01*
X323000D01*
X321000Y129700D01*
X335400Y118000D02*
X333400Y122000D01*
X337400D01*
X335400Y118000D01*
X341200Y118900D02*
X339200Y122900D01*
X343200D01*
X341200Y118900D01*
X338500Y128700D02*
X336500Y132700D01*
X340500D01*
X338500Y128700D01*
X334300Y132500D02*
X332300Y136500D01*
X336300D01*
X334300Y132500D01*
X350900Y112000D02*
X348900Y116000D01*
X352900D01*
X350900Y112000D01*
X331600Y97300D02*
X329600Y101300D01*
X333600D01*
X331600Y97300D01*
X353500Y106600D02*
X351500Y110600D01*
X355500D01*
X353500Y106600D01*
Y114500D02*
X351500Y118500D01*
X355500D01*
X353500Y114500D01*
X323400Y116100D02*
X321400Y120100D01*
X325400D01*
X323400Y116100D01*
X325600Y105600D02*
X323600Y109600D01*
X327600D01*
X325600Y105600D01*
X322400Y106000D02*
X320400Y110000D01*
X324400D01*
X322400Y106000D01*
X337200Y99500D02*
X335200Y103500D01*
X339200D01*
X337200Y99500D01*
X349500Y118500D02*
X347500Y122500D01*
X351500D01*
X349500Y118500D01*
X346900Y118600D02*
X344900Y122600D01*
X348900D01*
X346900Y118600D01*
X339800Y97000D02*
X337800Y101000D01*
X341800D01*
X339800Y97000D01*
X331600Y109900D02*
X329600Y113900D01*
X333600D01*
X331600Y109900D01*
X324700Y134300D02*
X322700Y138300D01*
X326700D01*
X324700Y134300D01*
X329900Y121700D02*
X327900Y125700D01*
X331900D01*
X329900Y121700D01*
X361600Y105600D02*
X359600Y109600D01*
X363600D01*
X361600Y105600D01*
X359000Y99100D02*
X357000Y103100D01*
X361000D01*
X359000Y99100D01*
X353435Y118835D02*
X351435Y122835D01*
X355435D01*
X353435Y118835D01*
X321200Y127000D02*
X319200Y131000D01*
X323200D01*
X321200Y127000D01*
X359800Y134400D02*
X357800Y138400D01*
X361800D01*
X359800Y134400D01*
Y121200D02*
X357800Y125200D01*
X361800D01*
X359800Y121200D01*
X345200Y134500D02*
X343200Y138500D01*
X347200D01*
X345200Y134500D01*
X313700Y121800D02*
X311700Y125800D01*
X315700D01*
X313700Y121800D01*
X316400Y95600D02*
X314400Y99600D01*
X318400D01*
X316400Y95600D01*
X328000Y119700D02*
X326000Y123700D01*
X330000D01*
X328000Y119700D01*
X342400Y97000D02*
X340400Y101000D01*
X344400D01*
X342400Y97000D01*
X362000Y135900D02*
X360000Y139900D01*
X364000D01*
X362000Y135900D01*
X331500Y132900D02*
X329500Y136900D01*
X333500D01*
X331500Y132900D01*
X330900Y112500D02*
X328900Y116500D01*
X332900D01*
X330900Y112500D01*
Y116500D02*
X328900Y120500D01*
X332900D01*
X330900Y116500D01*
X340500Y108200D02*
X338500Y112200D01*
X342500D01*
X340500Y108200D01*
X317900Y129500D02*
X315900Y133500D01*
X319900D01*
X317900Y129500D01*
X344900Y113600D02*
X342900Y117600D01*
X346900D01*
X344900Y113600D01*
X346500Y105000D02*
X344500Y109000D01*
X348500D01*
X346500Y105000D01*
X315800Y127600D02*
X313800Y131600D01*
X317800D01*
X315800Y127600D01*
X315538Y131862D02*
X313538Y135862D01*
X317538D01*
X315538Y131862D01*
X352800Y65400D02*
X350800Y69400D01*
X354800D01*
X352800Y65400D01*
X333200Y50200D02*
X331200Y54200D01*
X335200D01*
X333200Y50200D01*
X317400Y62200D02*
X315400Y66200D01*
X319400D01*
X317400Y62200D01*
X330000Y65200D02*
X328000Y69200D01*
X332000D01*
X330000Y65200D01*
X338400Y66100D02*
X336400Y70100D01*
X340400D01*
X338400Y66100D01*
X334300Y62700D02*
X332300Y66700D01*
X336300D01*
X334300Y62700D01*
X337400Y51500D02*
X335400Y55500D01*
X339400D01*
X337400Y51500D01*
X316900Y74100D02*
X314900Y78100D01*
X318900D01*
X316900Y74100D01*
X319018Y69643D02*
X317018Y73643D01*
X321018D01*
X319018Y69643D01*
X317385Y65900D02*
X315385Y69900D01*
X319385D01*
X317385Y65900D01*
X330520Y42300D02*
X328520Y46300D01*
X332520D01*
X330520Y42300D01*
X347100Y29500D02*
X345100Y33500D01*
X349100D01*
X347100Y29500D01*
X352300Y58900D02*
X350300Y62900D01*
X354300D01*
X352300Y58900D01*
X335800Y54300D02*
X333800Y58300D01*
X337800D01*
X335800Y54300D01*
X345500Y42500D02*
X343500Y46500D01*
X347500D01*
X345500Y42500D01*
X349000Y36300D02*
X347000Y40300D01*
X351000D01*
X349000Y36300D01*
X334600Y48000D02*
X332600Y52000D01*
X336600D01*
X334600Y48000D01*
X328800Y47100D02*
X326800Y51100D01*
X330800D01*
X328800Y47100D01*
X331500Y37300D02*
X329500Y41300D01*
X333500D01*
X331500Y37300D01*
X335700Y33500D02*
X333700Y37500D01*
X337700D01*
X335700Y33500D01*
X319100Y54000D02*
X317100Y58000D01*
X321100D01*
X319100Y54000D01*
X338400Y68700D02*
X336400Y72700D01*
X340400D01*
X338400Y68700D01*
X316500Y59400D02*
X314500Y63400D01*
X318500D01*
X316500Y59400D01*
Y51500D02*
X314500Y55500D01*
X318500D01*
X316500Y51500D01*
X346600Y49900D02*
X344600Y53900D01*
X348600D01*
X346600Y49900D01*
X344400Y60400D02*
X342400Y64400D01*
X346400D01*
X344400Y60400D01*
X347600Y60000D02*
X345600Y64000D01*
X349600D01*
X347600Y60000D01*
X332800Y66500D02*
X330800Y70500D01*
X334800D01*
X332800Y66500D01*
X320500Y47500D02*
X318500Y51500D01*
X322500D01*
X320500Y47500D01*
X323100Y47400D02*
X321100Y51400D01*
X325100D01*
X323100Y47400D01*
X330200Y69000D02*
X328200Y73000D01*
X332200D01*
X330200Y69000D01*
X338400Y56100D02*
X336400Y60100D01*
X340400D01*
X338400Y56100D01*
X345300Y31700D02*
X343300Y35700D01*
X347300D01*
X345300Y31700D01*
X340100Y44300D02*
X338100Y48300D01*
X342100D01*
X340100Y44300D01*
X308400Y60400D02*
X306400Y64400D01*
X310400D01*
X308400Y60400D01*
X311000Y66900D02*
X309000Y70900D01*
X313000D01*
X311000Y66900D01*
X316565Y47165D02*
X314565Y51165D01*
X318565D01*
X316565Y47165D01*
X348800Y39000D02*
X346800Y43000D01*
X350800D01*
X348800Y39000D01*
X310200Y31600D02*
X308200Y35600D01*
X312200D01*
X310200Y31600D01*
Y44800D02*
X308200Y48800D01*
X312200D01*
X310200Y44800D01*
X324800Y31500D02*
X322800Y35500D01*
X326800D01*
X324800Y31500D01*
X356300Y44200D02*
X354300Y48200D01*
X358300D01*
X356300Y44200D01*
X353600Y70400D02*
X351600Y74400D01*
X355600D01*
X353600Y70400D01*
X342000Y46300D02*
X340000Y50300D01*
X344000D01*
X342000Y46300D01*
X327600Y69000D02*
X325600Y73000D01*
X329600D01*
X327600Y69000D01*
X308000Y30100D02*
X306000Y34100D01*
X310000D01*
X308000Y30100D01*
X338500Y33100D02*
X336500Y37100D01*
X340500D01*
X338500Y33100D01*
X339100Y53500D02*
X337100Y57500D01*
X341100D01*
X339100Y53500D01*
Y49500D02*
X337100Y53500D01*
X341100D01*
X339100Y49500D01*
X329500Y57800D02*
X327500Y61800D01*
X331500D01*
X329500Y57800D01*
X352100Y36500D02*
X350100Y40500D01*
X354100D01*
X352100Y36500D01*
X325100Y52400D02*
X323100Y56400D01*
X327100D01*
X325100Y52400D01*
X323500Y61000D02*
X321500Y65000D01*
X325500D01*
X323500Y61000D01*
X354200Y38400D02*
X352200Y42400D01*
X356200D01*
X354200Y38400D01*
X354462Y34138D02*
X352462Y38138D01*
X356462D01*
X354462Y34138D01*
X282800Y65400D02*
X280800Y69400D01*
X284800D01*
X282800Y65400D01*
X263200Y50200D02*
X261200Y54200D01*
X265200D01*
X263200Y50200D01*
X247400Y62200D02*
X245400Y66200D01*
X249400D01*
X247400Y62200D01*
X260000Y65200D02*
X258000Y69200D01*
X262000D01*
X260000Y65200D01*
X268400Y66100D02*
X266400Y70100D01*
X270400D01*
X268400Y66100D01*
X264300Y62700D02*
X262300Y66700D01*
X266300D01*
X264300Y62700D01*
X267400Y51500D02*
X265400Y55500D01*
X269400D01*
X267400Y51500D01*
X246900Y74100D02*
X244900Y78100D01*
X248900D01*
X246900Y74100D01*
X249018Y69643D02*
X247018Y73643D01*
X251017D01*
X249018Y69643D01*
X247385Y65900D02*
X245385Y69900D01*
X249385D01*
X247385Y65900D01*
X260520Y42300D02*
X258520Y46300D01*
X262520D01*
X260520Y42300D01*
X277100Y29500D02*
X275100Y33500D01*
X279100D01*
X277100Y29500D01*
X282300Y58900D02*
X280300Y62900D01*
X284300D01*
X282300Y58900D01*
X265800Y54300D02*
X263800Y58300D01*
X267800D01*
X265800Y54300D01*
X275500Y42500D02*
X273500Y46500D01*
X277500D01*
X275500Y42500D01*
X279000Y36300D02*
X277000Y40300D01*
X281000D01*
X279000Y36300D01*
X264600Y48000D02*
X262600Y52000D01*
X266600D01*
X264600Y48000D01*
X258800Y47100D02*
X256800Y51100D01*
X260800D01*
X258800Y47100D01*
X261500Y37300D02*
X259500Y41300D01*
X263500D01*
X261500Y37300D01*
X265700Y33500D02*
X263700Y37500D01*
X267700D01*
X265700Y33500D01*
X249100Y54000D02*
X247100Y58000D01*
X251100D01*
X249100Y54000D01*
X268400Y68700D02*
X266400Y72700D01*
X270400D01*
X268400Y68700D01*
X246500Y59400D02*
X244500Y63400D01*
X248500D01*
X246500Y59400D01*
Y51500D02*
X244500Y55500D01*
X248500D01*
X246500Y51500D01*
X276600Y49900D02*
X274600Y53900D01*
X278600D01*
X276600Y49900D01*
X274400Y60400D02*
X272400Y64400D01*
X276400D01*
X274400Y60400D01*
X277600Y60000D02*
X275600Y64000D01*
X279600D01*
X277600Y60000D01*
X262800Y66500D02*
X260800Y70500D01*
X264800D01*
X262800Y66500D01*
X250500Y47500D02*
X248500Y51500D01*
X252500D01*
X250500Y47500D01*
X253100Y47400D02*
X251100Y51400D01*
X255100D01*
X253100Y47400D01*
X260200Y69000D02*
X258200Y73000D01*
X262200D01*
X260200Y69000D01*
X268400Y56100D02*
X266400Y60100D01*
X270400D01*
X268400Y56100D01*
X275300Y31700D02*
X273300Y35700D01*
X277300D01*
X275300Y31700D01*
X270100Y44300D02*
X268100Y48300D01*
X272100D01*
X270100Y44300D01*
X238400Y60400D02*
X236400Y64400D01*
X240400D01*
X238400Y60400D01*
X241000Y66900D02*
X239000Y70900D01*
X243000D01*
X241000Y66900D01*
X246565Y47165D02*
X244565Y51165D01*
X248565D01*
X246565Y47165D01*
X278800Y39000D02*
X276800Y43000D01*
X280800D01*
X278800Y39000D01*
X240200Y31600D02*
X238200Y35600D01*
X242200D01*
X240200Y31600D01*
Y44800D02*
X238200Y48800D01*
X242200D01*
X240200Y44800D01*
X254800Y31500D02*
X252800Y35500D01*
X256800D01*
X254800Y31500D01*
X286300Y44200D02*
X284300Y48200D01*
X288300D01*
X286300Y44200D01*
X283600Y70400D02*
X281600Y74400D01*
X285600D01*
X283600Y70400D01*
X272000Y46300D02*
X270000Y50300D01*
X274000D01*
X272000Y46300D01*
X257600Y69000D02*
X255600Y73000D01*
X259600D01*
X257600Y69000D01*
X238000Y30100D02*
X236000Y34100D01*
X240000D01*
X238000Y30100D01*
X268500Y33100D02*
X266500Y37100D01*
X270500D01*
X268500Y33100D01*
X269100Y53500D02*
X267100Y57500D01*
X271100D01*
X269100Y53500D01*
Y49500D02*
X267100Y53500D01*
X271100D01*
X269100Y49500D01*
X259500Y57800D02*
X257500Y61800D01*
X261500D01*
X259500Y57800D01*
X282100Y36500D02*
X280100Y40500D01*
X284100D01*
X282100Y36500D01*
X255100Y52400D02*
X253100Y56400D01*
X257100D01*
X255100Y52400D01*
X253500Y61000D02*
X251500Y65000D01*
X255500D01*
X253500Y61000D01*
X284200Y38400D02*
X282200Y42400D01*
X286200D01*
X284200Y38400D01*
X284462Y34138D02*
X282462Y38138D01*
X286462D01*
X284462Y34138D01*
X212800Y65400D02*
X210800Y69400D01*
X214800D01*
X212800Y65400D01*
X193200Y50200D02*
X191200Y54200D01*
X195200D01*
X193200Y50200D01*
X177400Y62200D02*
X175400Y66200D01*
X179400D01*
X177400Y62200D01*
X190000Y65200D02*
X188000Y69200D01*
X192000D01*
X190000Y65200D01*
X198400Y66100D02*
X196400Y70100D01*
X200400D01*
X198400Y66100D01*
X194300Y62700D02*
X192300Y66700D01*
X196300D01*
X194300Y62700D01*
X197400Y51500D02*
X195400Y55500D01*
X199400D01*
X197400Y51500D01*
X176900Y74100D02*
X174900Y78100D01*
X178900D01*
X176900Y74100D01*
X179018Y69643D02*
X177018Y73643D01*
X181018D01*
X179018Y69643D01*
X177385Y65900D02*
X175385Y69900D01*
X179385D01*
X177385Y65900D01*
X190520Y42300D02*
X188520Y46300D01*
X192520D01*
X190520Y42300D01*
X207100Y29500D02*
X205100Y33500D01*
X209100D01*
X207100Y29500D01*
X212300Y58900D02*
X210300Y62900D01*
X214300D01*
X212300Y58900D01*
X195800Y54300D02*
X193800Y58300D01*
X197800D01*
X195800Y54300D01*
X205500Y42500D02*
X203500Y46500D01*
X207500D01*
X205500Y42500D01*
X209000Y36300D02*
X207000Y40300D01*
X211000D01*
X209000Y36300D01*
X194600Y48000D02*
X192600Y52000D01*
X196600D01*
X194600Y48000D01*
X188800Y47100D02*
X186800Y51100D01*
X190800D01*
X188800Y47100D01*
X191500Y37300D02*
X189500Y41300D01*
X193500D01*
X191500Y37300D01*
X195700Y33500D02*
X193700Y37500D01*
X197700D01*
X195700Y33500D01*
X179100Y54000D02*
X177100Y58000D01*
X181100D01*
X179100Y54000D01*
X198400Y68700D02*
X196400Y72700D01*
X200400D01*
X198400Y68700D01*
X176500Y59400D02*
X174500Y63400D01*
X178500D01*
X176500Y59400D01*
Y51500D02*
X174500Y55500D01*
X178500D01*
X176500Y51500D01*
X206600Y49900D02*
X204600Y53900D01*
X208600D01*
X206600Y49900D01*
X204400Y60400D02*
X202400Y64400D01*
X206400D01*
X204400Y60400D01*
X207600Y60000D02*
X205600Y64000D01*
X209600D01*
X207600Y60000D01*
X192800Y66500D02*
X190800Y70500D01*
X194800D01*
X192800Y66500D01*
X180500Y47500D02*
X178500Y51500D01*
X182500D01*
X180500Y47500D01*
X183100Y47400D02*
X181100Y51400D01*
X185100D01*
X183100Y47400D01*
X190200Y69000D02*
X188200Y73000D01*
X192200D01*
X190200Y69000D01*
X198400Y56100D02*
X196400Y60100D01*
X200400D01*
X198400Y56100D01*
X205300Y31700D02*
X203300Y35700D01*
X207300D01*
X205300Y31700D01*
X200100Y44300D02*
X198100Y48300D01*
X202100D01*
X200100Y44300D01*
X168400Y60400D02*
X166400Y64400D01*
X170400D01*
X168400Y60400D01*
X171000Y66900D02*
X169000Y70900D01*
X173000D01*
X171000Y66900D01*
X176565Y47165D02*
X174565Y51165D01*
X178565D01*
X176565Y47165D01*
X208800Y39000D02*
X206800Y43000D01*
X210800D01*
X208800Y39000D01*
X170200Y31600D02*
X168200Y35600D01*
X172200D01*
X170200Y31600D01*
Y44800D02*
X168200Y48800D01*
X172200D01*
X170200Y44800D01*
X184800Y31500D02*
X182800Y35500D01*
X186800D01*
X184800Y31500D01*
X216300Y44200D02*
X214300Y48200D01*
X218300D01*
X216300Y44200D01*
X213600Y70400D02*
X211600Y74400D01*
X215600D01*
X213600Y70400D01*
X202000Y46300D02*
X200000Y50300D01*
X204000D01*
X202000Y46300D01*
X187600Y69000D02*
X185600Y73000D01*
X189600D01*
X187600Y69000D01*
X168000Y30100D02*
X166000Y34100D01*
X170000D01*
X168000Y30100D01*
X198500Y33100D02*
X196500Y37100D01*
X200500D01*
X198500Y33100D01*
X199100Y53500D02*
X197100Y57500D01*
X201100D01*
X199100Y53500D01*
Y49500D02*
X197100Y53500D01*
X201100D01*
X199100Y49500D01*
X189500Y57800D02*
X187500Y61800D01*
X191500D01*
X189500Y57800D01*
X212100Y36500D02*
X210100Y40500D01*
X214100D01*
X212100Y36500D01*
X185100Y52400D02*
X183100Y56400D01*
X187100D01*
X185100Y52400D01*
X183500Y61000D02*
X181500Y65000D01*
X185500D01*
X183500Y61000D01*
X214200Y38400D02*
X212200Y42400D01*
X216200D01*
X214200Y38400D01*
X214462Y34138D02*
X212462Y38138D01*
X216462D01*
X214462Y34138D01*
X142800Y65400D02*
X140800Y69400D01*
X144800D01*
X142800Y65400D01*
X123200Y50200D02*
X121200Y54200D01*
X125200D01*
X123200Y50200D01*
X107400Y62200D02*
X105400Y66200D01*
X109400D01*
X107400Y62200D01*
X120000Y65200D02*
X118000Y69200D01*
X122000D01*
X120000Y65200D01*
X128400Y66100D02*
X126400Y70100D01*
X130400D01*
X128400Y66100D01*
X124300Y62700D02*
X122300Y66700D01*
X126300D01*
X124300Y62700D01*
X127400Y51500D02*
X125400Y55500D01*
X129400D01*
X127400Y51500D01*
X106900Y74100D02*
X104900Y78100D01*
X108900D01*
X106900Y74100D01*
X109018Y69643D02*
X107018Y73643D01*
X111018D01*
X109018Y69643D01*
X107385Y65900D02*
X105385Y69900D01*
X109385D01*
X107385Y65900D01*
X120520Y42300D02*
X118520Y46300D01*
X122520D01*
X120520Y42300D01*
X137100Y29500D02*
X135100Y33500D01*
X139100D01*
X137100Y29500D01*
X142300Y58900D02*
X140300Y62900D01*
X144300D01*
X142300Y58900D01*
X125800Y54300D02*
X123800Y58300D01*
X127800D01*
X125800Y54300D01*
X135500Y42500D02*
X133500Y46500D01*
X137500D01*
X135500Y42500D01*
X139000Y36300D02*
X137000Y40300D01*
X141000D01*
X139000Y36300D01*
X124600Y48000D02*
X122600Y52000D01*
X126600D01*
X124600Y48000D01*
X118800Y47100D02*
X116800Y51100D01*
X120800D01*
X118800Y47100D01*
X121500Y37300D02*
X119500Y41300D01*
X123500D01*
X121500Y37300D01*
X125700Y33500D02*
X123700Y37500D01*
X127700D01*
X125700Y33500D01*
X109100Y54000D02*
X107100Y58000D01*
X111100D01*
X109100Y54000D01*
X128400Y68700D02*
X126400Y72700D01*
X130400D01*
X128400Y68700D01*
X106500Y59400D02*
X104500Y63400D01*
X108500D01*
X106500Y59400D01*
Y51500D02*
X104500Y55500D01*
X108500D01*
X106500Y51500D01*
X136600Y49900D02*
X134600Y53900D01*
X138600D01*
X136600Y49900D01*
X134400Y60400D02*
X132400Y64400D01*
X136400D01*
X134400Y60400D01*
X137600Y60000D02*
X135600Y64000D01*
X139600D01*
X137600Y60000D01*
X122800Y66500D02*
X120800Y70500D01*
X124800D01*
X122800Y66500D01*
X110500Y47500D02*
X108500Y51500D01*
X112500D01*
X110500Y47500D01*
X113100Y47400D02*
X111100Y51400D01*
X115100D01*
X113100Y47400D01*
X120200Y69000D02*
X118200Y73000D01*
X122200D01*
X120200Y69000D01*
X128400Y56100D02*
X126400Y60100D01*
X130400D01*
X128400Y56100D01*
X135300Y31700D02*
X133300Y35700D01*
X137300D01*
X135300Y31700D01*
X130100Y44300D02*
X128100Y48300D01*
X132100D01*
X130100Y44300D01*
X98400Y60400D02*
X96400Y64400D01*
X100400D01*
X98400Y60400D01*
X101000Y66900D02*
X99000Y70900D01*
X103000D01*
X101000Y66900D01*
X106565Y47165D02*
X104565Y51165D01*
X108565D01*
X106565Y47165D01*
X138800Y39000D02*
X136800Y43000D01*
X140800D01*
X138800Y39000D01*
X100200Y31600D02*
X98200Y35600D01*
X102200D01*
X100200Y31600D01*
Y44800D02*
X98200Y48800D01*
X102200D01*
X100200Y44800D01*
X114800Y31500D02*
X112800Y35500D01*
X116800D01*
X114800Y31500D01*
X146300Y44200D02*
X144300Y48200D01*
X148300D01*
X146300Y44200D01*
X143600Y70400D02*
X141600Y74400D01*
X145600D01*
X143600Y70400D01*
X132000Y46300D02*
X130000Y50300D01*
X134000D01*
X132000Y46300D01*
X117600Y69000D02*
X115600Y73000D01*
X119600D01*
X117600Y69000D01*
X98000Y30100D02*
X96000Y34100D01*
X100000D01*
X98000Y30100D01*
X128500Y33100D02*
X126500Y37100D01*
X130500D01*
X128500Y33100D01*
X129100Y53500D02*
X127100Y57500D01*
X131100D01*
X129100Y53500D01*
Y49500D02*
X127100Y53500D01*
X131100D01*
X129100Y49500D01*
X119500Y57800D02*
X117500Y61800D01*
X121500D01*
X119500Y57800D01*
X142100Y36500D02*
X140100Y40500D01*
X144100D01*
X142100Y36500D01*
X115100Y52400D02*
X113100Y56400D01*
X117100D01*
X115100Y52400D01*
X113500Y61000D02*
X111500Y65000D01*
X115500D01*
X113500Y61000D01*
X144200Y38400D02*
X142200Y42400D01*
X146200D01*
X144200Y38400D01*
X144462Y34138D02*
X142462Y38138D01*
X146462D01*
X144462Y34138D01*
X72800Y65400D02*
X70800Y69400D01*
X74800D01*
X72800Y65400D01*
X53200Y50200D02*
X51200Y54200D01*
X55200D01*
X53200Y50200D01*
X37400Y62200D02*
X35400Y66200D01*
X39400D01*
X37400Y62200D01*
X50000Y65200D02*
X48000Y69200D01*
X52000D01*
X50000Y65200D01*
X58400Y66100D02*
X56400Y70100D01*
X60400D01*
X58400Y66100D01*
X54300Y62700D02*
X52300Y66700D01*
X56300D01*
X54300Y62700D01*
X57400Y51500D02*
X55400Y55500D01*
X59400D01*
X57400Y51500D01*
X36900Y74100D02*
X34900Y78100D01*
X38900D01*
X36900Y74100D01*
X39018Y69643D02*
X37018Y73643D01*
X41017D01*
X39018Y69643D01*
X37385Y65900D02*
X35385Y69900D01*
X39385D01*
X37385Y65900D01*
X50520Y42300D02*
X48520Y46300D01*
X52520D01*
X50520Y42300D01*
X67100Y29500D02*
X65100Y33500D01*
X69100D01*
X67100Y29500D01*
X72300Y58900D02*
X70300Y62900D01*
X74300D01*
X72300Y58900D01*
X55800Y54300D02*
X53800Y58300D01*
X57800D01*
X55800Y54300D01*
X65500Y42500D02*
X63500Y46500D01*
X67500D01*
X65500Y42500D01*
X69000Y36300D02*
X67000Y40300D01*
X71000D01*
X69000Y36300D01*
X54600Y48000D02*
X52600Y52000D01*
X56600D01*
X54600Y48000D01*
X48800Y47100D02*
X46800Y51100D01*
X50800D01*
X48800Y47100D01*
X51500Y37300D02*
X49500Y41300D01*
X53500D01*
X51500Y37300D01*
X55700Y33500D02*
X53700Y37500D01*
X57700D01*
X55700Y33500D01*
X39100Y54000D02*
X37100Y58000D01*
X41100D01*
X39100Y54000D01*
X58400Y68700D02*
X56400Y72700D01*
X60400D01*
X58400Y68700D01*
X36500Y59400D02*
X34500Y63400D01*
X38500D01*
X36500Y59400D01*
Y51500D02*
X34500Y55500D01*
X38500D01*
X36500Y51500D01*
X66600Y49900D02*
X64600Y53900D01*
X68600D01*
X66600Y49900D01*
X64400Y60400D02*
X62400Y64400D01*
X66400D01*
X64400Y60400D01*
X67600Y60000D02*
X65600Y64000D01*
X69600D01*
X67600Y60000D01*
X52800Y66500D02*
X50800Y70500D01*
X54800D01*
X52800Y66500D01*
X40500Y47500D02*
X38500Y51500D01*
X42500D01*
X40500Y47500D01*
X43100Y47400D02*
X41100Y51400D01*
X45100D01*
X43100Y47400D01*
X50200Y69000D02*
X48200Y73000D01*
X52200D01*
X50200Y69000D01*
X58400Y56100D02*
X56400Y60100D01*
X60400D01*
X58400Y56100D01*
X65300Y31700D02*
X63300Y35700D01*
X67300D01*
X65300Y31700D01*
X60100Y44300D02*
X58100Y48300D01*
X62100D01*
X60100Y44300D01*
X28400Y60400D02*
X26400Y64400D01*
X30400D01*
X28400Y60400D01*
X31000Y66900D02*
X29000Y70900D01*
X33000D01*
X31000Y66900D01*
X36565Y47165D02*
X34565Y51165D01*
X38565D01*
X36565Y47165D01*
X68800Y39000D02*
X66800Y43000D01*
X70800D01*
X68800Y39000D01*
X30200Y31600D02*
X28200Y35600D01*
X32200D01*
X30200Y31600D01*
Y44800D02*
X28200Y48800D01*
X32200D01*
X30200Y44800D01*
X44800Y31500D02*
X42800Y35500D01*
X46800D01*
X44800Y31500D01*
X76300Y44200D02*
X74300Y48200D01*
X78300D01*
X76300Y44200D01*
X73600Y70400D02*
X71600Y74400D01*
X75600D01*
X73600Y70400D01*
X62000Y46300D02*
X60000Y50300D01*
X64000D01*
X62000Y46300D01*
X47600Y69000D02*
X45600Y73000D01*
X49600D01*
X47600Y69000D01*
X28000Y30100D02*
X26000Y34100D01*
X30000D01*
X28000Y30100D01*
X58500Y33100D02*
X56500Y37100D01*
X60500D01*
X58500Y33100D01*
X59100Y53500D02*
X57100Y57500D01*
X61100D01*
X59100Y53500D01*
Y49500D02*
X57100Y53500D01*
X61100D01*
X59100Y49500D01*
X49500Y57800D02*
X47500Y61800D01*
X51500D01*
X49500Y57800D01*
X72100Y36500D02*
X70100Y40500D01*
X74100D01*
X72100Y36500D01*
X45100Y52400D02*
X43100Y56400D01*
X47100D01*
X45100Y52400D01*
X43500Y61000D02*
X41500Y65000D01*
X45500D01*
X43500Y61000D01*
X74200Y38400D02*
X72200Y42400D01*
X76200D01*
X74200Y38400D01*
X74462Y34138D02*
X72462Y38138D01*
X76462D01*
X74462Y34138D01*
X414400Y43600D02*
X412000Y48400D01*
X416800D01*
X414400Y43600D01*
X412000Y19600D02*
Y24400D01*
X416800D01*
Y19600D01*
X412000D01*
D16*
X27000Y135000D02*
G03*
X27000Y135000I-2000J0D01*
G01*
X67000Y90000D02*
G03*
X67000Y90000I-2000J0D01*
G01*
X72000D02*
G03*
X72000Y90000I-2000J0D01*
G01*
X77000D02*
G03*
X77000Y90000I-2000J0D01*
G01*
X87000Y130000D02*
G03*
X87000Y130000I-2000J0D01*
G01*
Y135000D02*
G03*
X87000Y135000I-2000J0D01*
G01*
X27000Y95000D02*
G03*
X27000Y95000I-2000J0D01*
G01*
Y120000D02*
G03*
X27000Y120000I-2000J0D01*
G01*
X87000Y95000D02*
G03*
X87000Y95000I-2000J0D01*
G01*
Y105000D02*
G03*
X87000Y105000I-2000J0D01*
G01*
Y100000D02*
G03*
X87000Y100000I-2000J0D01*
G01*
X26996Y125000D02*
G03*
X26996Y125000I-2000J0D01*
G01*
X27000Y100000D02*
G03*
X27000Y100000I-2000J0D01*
G01*
Y115000D02*
G03*
X27000Y115000I-2000J0D01*
G01*
Y110000D02*
G03*
X27000Y110000I-2000J0D01*
G01*
Y105000D02*
G03*
X27000Y105000I-2000J0D01*
G01*
Y130000D02*
G03*
X27000Y130000I-2000J0D01*
G01*
X32000Y90000D02*
G03*
X32000Y90000I-2000J0D01*
G01*
X82000D02*
G03*
X82000Y90000I-2000J0D01*
G01*
X62000D02*
G03*
X62000Y90000I-2000J0D01*
G01*
X87000Y110000D02*
G03*
X87000Y110000I-2000J0D01*
G01*
Y115000D02*
G03*
X87000Y115000I-2000J0D01*
G01*
Y120000D02*
G03*
X87000Y120000I-2000J0D01*
G01*
Y125000D02*
G03*
X87000Y125000I-2000J0D01*
G01*
X57000Y90000D02*
G03*
X57000Y90000I-2000J0D01*
G01*
X37000D02*
G03*
X37000Y90000I-2000J0D01*
G01*
X42000D02*
G03*
X42000Y90000I-2000J0D01*
G01*
X47000D02*
G03*
X47000Y90000I-2000J0D01*
G01*
X52000D02*
G03*
X52000Y90000I-2000J0D01*
G01*
X97000Y135000D02*
G03*
X97000Y135000I-2000J0D01*
G01*
X137000Y90000D02*
G03*
X137000Y90000I-2000J0D01*
G01*
X142000D02*
G03*
X142000Y90000I-2000J0D01*
G01*
X147000D02*
G03*
X147000Y90000I-2000J0D01*
G01*
X157000Y130000D02*
G03*
X157000Y130000I-2000J0D01*
G01*
Y135000D02*
G03*
X157000Y135000I-2000J0D01*
G01*
X97000Y95000D02*
G03*
X97000Y95000I-2000J0D01*
G01*
Y120000D02*
G03*
X97000Y120000I-2000J0D01*
G01*
X157000Y95000D02*
G03*
X157000Y95000I-2000J0D01*
G01*
Y105000D02*
G03*
X157000Y105000I-2000J0D01*
G01*
Y100000D02*
G03*
X157000Y100000I-2000J0D01*
G01*
X96996Y125000D02*
G03*
X96996Y125000I-2000J0D01*
G01*
X97000Y100000D02*
G03*
X97000Y100000I-2000J0D01*
G01*
Y115000D02*
G03*
X97000Y115000I-2000J0D01*
G01*
Y110000D02*
G03*
X97000Y110000I-2000J0D01*
G01*
Y105000D02*
G03*
X97000Y105000I-2000J0D01*
G01*
Y130000D02*
G03*
X97000Y130000I-2000J0D01*
G01*
X102000Y90000D02*
G03*
X102000Y90000I-2000J0D01*
G01*
X152000D02*
G03*
X152000Y90000I-2000J0D01*
G01*
X132000D02*
G03*
X132000Y90000I-2000J0D01*
G01*
X157000Y110000D02*
G03*
X157000Y110000I-2000J0D01*
G01*
Y115000D02*
G03*
X157000Y115000I-2000J0D01*
G01*
Y120000D02*
G03*
X157000Y120000I-2000J0D01*
G01*
Y125000D02*
G03*
X157000Y125000I-2000J0D01*
G01*
X127000Y90000D02*
G03*
X127000Y90000I-2000J0D01*
G01*
X107000D02*
G03*
X107000Y90000I-2000J0D01*
G01*
X112000D02*
G03*
X112000Y90000I-2000J0D01*
G01*
X117000D02*
G03*
X117000Y90000I-2000J0D01*
G01*
X122000D02*
G03*
X122000Y90000I-2000J0D01*
G01*
X167000Y135000D02*
G03*
X167000Y135000I-2000J0D01*
G01*
X207000Y90000D02*
G03*
X207000Y90000I-2000J0D01*
G01*
X212000D02*
G03*
X212000Y90000I-2000J0D01*
G01*
X217000D02*
G03*
X217000Y90000I-2000J0D01*
G01*
X227000Y130000D02*
G03*
X227000Y130000I-2000J0D01*
G01*
Y135000D02*
G03*
X227000Y135000I-2000J0D01*
G01*
X167000Y95000D02*
G03*
X167000Y95000I-2000J0D01*
G01*
Y120000D02*
G03*
X167000Y120000I-2000J0D01*
G01*
X227000Y95000D02*
G03*
X227000Y95000I-2000J0D01*
G01*
Y105000D02*
G03*
X227000Y105000I-2000J0D01*
G01*
Y100000D02*
G03*
X227000Y100000I-2000J0D01*
G01*
X166996Y125000D02*
G03*
X166996Y125000I-2000J0D01*
G01*
X167000Y100000D02*
G03*
X167000Y100000I-2000J0D01*
G01*
Y115000D02*
G03*
X167000Y115000I-2000J0D01*
G01*
Y110000D02*
G03*
X167000Y110000I-2000J0D01*
G01*
Y105000D02*
G03*
X167000Y105000I-2000J0D01*
G01*
Y130000D02*
G03*
X167000Y130000I-2000J0D01*
G01*
X172000Y90000D02*
G03*
X172000Y90000I-2000J0D01*
G01*
X222000D02*
G03*
X222000Y90000I-2000J0D01*
G01*
X202000D02*
G03*
X202000Y90000I-2000J0D01*
G01*
X227000Y110000D02*
G03*
X227000Y110000I-2000J0D01*
G01*
Y115000D02*
G03*
X227000Y115000I-2000J0D01*
G01*
Y120000D02*
G03*
X227000Y120000I-2000J0D01*
G01*
Y125000D02*
G03*
X227000Y125000I-2000J0D01*
G01*
X197000Y90000D02*
G03*
X197000Y90000I-2000J0D01*
G01*
X177000D02*
G03*
X177000Y90000I-2000J0D01*
G01*
X182000D02*
G03*
X182000Y90000I-2000J0D01*
G01*
X187000D02*
G03*
X187000Y90000I-2000J0D01*
G01*
X192000D02*
G03*
X192000Y90000I-2000J0D01*
G01*
X237000Y135000D02*
G03*
X237000Y135000I-2000J0D01*
G01*
X277000Y90000D02*
G03*
X277000Y90000I-2000J0D01*
G01*
X282000D02*
G03*
X282000Y90000I-2000J0D01*
G01*
X287000D02*
G03*
X287000Y90000I-2000J0D01*
G01*
X297000Y130000D02*
G03*
X297000Y130000I-2000J0D01*
G01*
Y135000D02*
G03*
X297000Y135000I-2000J0D01*
G01*
X237000Y95000D02*
G03*
X237000Y95000I-2000J0D01*
G01*
Y120000D02*
G03*
X237000Y120000I-2000J0D01*
G01*
X297000Y95000D02*
G03*
X297000Y95000I-2000J0D01*
G01*
Y105000D02*
G03*
X297000Y105000I-2000J0D01*
G01*
Y100000D02*
G03*
X297000Y100000I-2000J0D01*
G01*
X236996Y125000D02*
G03*
X236996Y125000I-2000J0D01*
G01*
X237000Y100000D02*
G03*
X237000Y100000I-2000J0D01*
G01*
Y115000D02*
G03*
X237000Y115000I-2000J0D01*
G01*
Y110000D02*
G03*
X237000Y110000I-2000J0D01*
G01*
Y105000D02*
G03*
X237000Y105000I-2000J0D01*
G01*
Y130000D02*
G03*
X237000Y130000I-2000J0D01*
G01*
X242000Y90000D02*
G03*
X242000Y90000I-2000J0D01*
G01*
X292000D02*
G03*
X292000Y90000I-2000J0D01*
G01*
X272000D02*
G03*
X272000Y90000I-2000J0D01*
G01*
X297000Y110000D02*
G03*
X297000Y110000I-2000J0D01*
G01*
Y115000D02*
G03*
X297000Y115000I-2000J0D01*
G01*
Y120000D02*
G03*
X297000Y120000I-2000J0D01*
G01*
Y125000D02*
G03*
X297000Y125000I-2000J0D01*
G01*
X267000Y90000D02*
G03*
X267000Y90000I-2000J0D01*
G01*
X247000D02*
G03*
X247000Y90000I-2000J0D01*
G01*
X252000D02*
G03*
X252000Y90000I-2000J0D01*
G01*
X257000D02*
G03*
X257000Y90000I-2000J0D01*
G01*
X262000D02*
G03*
X262000Y90000I-2000J0D01*
G01*
X307000Y135000D02*
G03*
X307000Y135000I-2000J0D01*
G01*
X347000Y90000D02*
G03*
X347000Y90000I-2000J0D01*
G01*
X352000D02*
G03*
X352000Y90000I-2000J0D01*
G01*
X357000D02*
G03*
X357000Y90000I-2000J0D01*
G01*
X367000Y130000D02*
G03*
X367000Y130000I-2000J0D01*
G01*
Y135000D02*
G03*
X367000Y135000I-2000J0D01*
G01*
X307000Y95000D02*
G03*
X307000Y95000I-2000J0D01*
G01*
Y120000D02*
G03*
X307000Y120000I-2000J0D01*
G01*
X367000Y95000D02*
G03*
X367000Y95000I-2000J0D01*
G01*
Y105000D02*
G03*
X367000Y105000I-2000J0D01*
G01*
Y100000D02*
G03*
X367000Y100000I-2000J0D01*
G01*
X306996Y125000D02*
G03*
X306996Y125000I-2000J0D01*
G01*
X307000Y100000D02*
G03*
X307000Y100000I-2000J0D01*
G01*
Y115000D02*
G03*
X307000Y115000I-2000J0D01*
G01*
Y110000D02*
G03*
X307000Y110000I-2000J0D01*
G01*
Y105000D02*
G03*
X307000Y105000I-2000J0D01*
G01*
Y130000D02*
G03*
X307000Y130000I-2000J0D01*
G01*
X312000Y90000D02*
G03*
X312000Y90000I-2000J0D01*
G01*
X362000D02*
G03*
X362000Y90000I-2000J0D01*
G01*
X342000D02*
G03*
X342000Y90000I-2000J0D01*
G01*
X367000Y110000D02*
G03*
X367000Y110000I-2000J0D01*
G01*
Y115000D02*
G03*
X367000Y115000I-2000J0D01*
G01*
Y120000D02*
G03*
X367000Y120000I-2000J0D01*
G01*
Y125000D02*
G03*
X367000Y125000I-2000J0D01*
G01*
X337000Y90000D02*
G03*
X337000Y90000I-2000J0D01*
G01*
X317000D02*
G03*
X317000Y90000I-2000J0D01*
G01*
X322000D02*
G03*
X322000Y90000I-2000J0D01*
G01*
X327000D02*
G03*
X327000Y90000I-2000J0D01*
G01*
X332000D02*
G03*
X332000Y90000I-2000J0D01*
G01*
X367000Y35000D02*
G03*
X367000Y35000I-2000J0D01*
G01*
X327000Y80000D02*
G03*
X327000Y80000I-2000J0D01*
G01*
X322000D02*
G03*
X322000Y80000I-2000J0D01*
G01*
X317000D02*
G03*
X317000Y80000I-2000J0D01*
G01*
X307000Y40000D02*
G03*
X307000Y40000I-2000J0D01*
G01*
Y35000D02*
G03*
X307000Y35000I-2000J0D01*
G01*
X367000Y75000D02*
G03*
X367000Y75000I-2000J0D01*
G01*
Y50000D02*
G03*
X367000Y50000I-2000J0D01*
G01*
X307000Y75000D02*
G03*
X307000Y75000I-2000J0D01*
G01*
Y65000D02*
G03*
X307000Y65000I-2000J0D01*
G01*
Y70000D02*
G03*
X307000Y70000I-2000J0D01*
G01*
X367004Y45000D02*
G03*
X367004Y45000I-2000J0D01*
G01*
X367000Y70000D02*
G03*
X367000Y70000I-2000J0D01*
G01*
Y55000D02*
G03*
X367000Y55000I-2000J0D01*
G01*
Y60000D02*
G03*
X367000Y60000I-2000J0D01*
G01*
Y65000D02*
G03*
X367000Y65000I-2000J0D01*
G01*
Y40000D02*
G03*
X367000Y40000I-2000J0D01*
G01*
X362000Y80000D02*
G03*
X362000Y80000I-2000J0D01*
G01*
X312000D02*
G03*
X312000Y80000I-2000J0D01*
G01*
X332000D02*
G03*
X332000Y80000I-2000J0D01*
G01*
X307000Y60000D02*
G03*
X307000Y60000I-2000J0D01*
G01*
Y55000D02*
G03*
X307000Y55000I-2000J0D01*
G01*
Y50000D02*
G03*
X307000Y50000I-2000J0D01*
G01*
Y45000D02*
G03*
X307000Y45000I-2000J0D01*
G01*
X337000Y80000D02*
G03*
X337000Y80000I-2000J0D01*
G01*
X357000D02*
G03*
X357000Y80000I-2000J0D01*
G01*
X352000D02*
G03*
X352000Y80000I-2000J0D01*
G01*
X347000D02*
G03*
X347000Y80000I-2000J0D01*
G01*
X342000D02*
G03*
X342000Y80000I-2000J0D01*
G01*
X297000Y35000D02*
G03*
X297000Y35000I-2000J0D01*
G01*
X257000Y80000D02*
G03*
X257000Y80000I-2000J0D01*
G01*
X252000D02*
G03*
X252000Y80000I-2000J0D01*
G01*
X247000D02*
G03*
X247000Y80000I-2000J0D01*
G01*
X237000Y40000D02*
G03*
X237000Y40000I-2000J0D01*
G01*
Y35000D02*
G03*
X237000Y35000I-2000J0D01*
G01*
X297000Y75000D02*
G03*
X297000Y75000I-2000J0D01*
G01*
Y50000D02*
G03*
X297000Y50000I-2000J0D01*
G01*
X237000Y75000D02*
G03*
X237000Y75000I-2000J0D01*
G01*
Y65000D02*
G03*
X237000Y65000I-2000J0D01*
G01*
Y70000D02*
G03*
X237000Y70000I-2000J0D01*
G01*
X297004Y45000D02*
G03*
X297004Y45000I-2000J0D01*
G01*
X297000Y70000D02*
G03*
X297000Y70000I-2000J0D01*
G01*
Y55000D02*
G03*
X297000Y55000I-2000J0D01*
G01*
Y60000D02*
G03*
X297000Y60000I-2000J0D01*
G01*
Y65000D02*
G03*
X297000Y65000I-2000J0D01*
G01*
Y40000D02*
G03*
X297000Y40000I-2000J0D01*
G01*
X292000Y80000D02*
G03*
X292000Y80000I-2000J0D01*
G01*
X242000D02*
G03*
X242000Y80000I-2000J0D01*
G01*
X262000D02*
G03*
X262000Y80000I-2000J0D01*
G01*
X237000Y60000D02*
G03*
X237000Y60000I-2000J0D01*
G01*
Y55000D02*
G03*
X237000Y55000I-2000J0D01*
G01*
Y50000D02*
G03*
X237000Y50000I-2000J0D01*
G01*
Y45000D02*
G03*
X237000Y45000I-2000J0D01*
G01*
X267000Y80000D02*
G03*
X267000Y80000I-2000J0D01*
G01*
X287000D02*
G03*
X287000Y80000I-2000J0D01*
G01*
X282000D02*
G03*
X282000Y80000I-2000J0D01*
G01*
X277000D02*
G03*
X277000Y80000I-2000J0D01*
G01*
X272000D02*
G03*
X272000Y80000I-2000J0D01*
G01*
X227000Y35000D02*
G03*
X227000Y35000I-2000J0D01*
G01*
X187000Y80000D02*
G03*
X187000Y80000I-2000J0D01*
G01*
X182000D02*
G03*
X182000Y80000I-2000J0D01*
G01*
X177000D02*
G03*
X177000Y80000I-2000J0D01*
G01*
X167000Y40000D02*
G03*
X167000Y40000I-2000J0D01*
G01*
Y35000D02*
G03*
X167000Y35000I-2000J0D01*
G01*
X227000Y75000D02*
G03*
X227000Y75000I-2000J0D01*
G01*
Y50000D02*
G03*
X227000Y50000I-2000J0D01*
G01*
X167000Y75000D02*
G03*
X167000Y75000I-2000J0D01*
G01*
Y65000D02*
G03*
X167000Y65000I-2000J0D01*
G01*
Y70000D02*
G03*
X167000Y70000I-2000J0D01*
G01*
X227004Y45000D02*
G03*
X227004Y45000I-2000J0D01*
G01*
X227000Y70000D02*
G03*
X227000Y70000I-2000J0D01*
G01*
Y55000D02*
G03*
X227000Y55000I-2000J0D01*
G01*
Y60000D02*
G03*
X227000Y60000I-2000J0D01*
G01*
Y65000D02*
G03*
X227000Y65000I-2000J0D01*
G01*
Y40000D02*
G03*
X227000Y40000I-2000J0D01*
G01*
X222000Y80000D02*
G03*
X222000Y80000I-2000J0D01*
G01*
X172000D02*
G03*
X172000Y80000I-2000J0D01*
G01*
X192000D02*
G03*
X192000Y80000I-2000J0D01*
G01*
X167000Y60000D02*
G03*
X167000Y60000I-2000J0D01*
G01*
Y55000D02*
G03*
X167000Y55000I-2000J0D01*
G01*
Y50000D02*
G03*
X167000Y50000I-2000J0D01*
G01*
Y45000D02*
G03*
X167000Y45000I-2000J0D01*
G01*
X197000Y80000D02*
G03*
X197000Y80000I-2000J0D01*
G01*
X217000D02*
G03*
X217000Y80000I-2000J0D01*
G01*
X212000D02*
G03*
X212000Y80000I-2000J0D01*
G01*
X207000D02*
G03*
X207000Y80000I-2000J0D01*
G01*
X202000D02*
G03*
X202000Y80000I-2000J0D01*
G01*
X157000Y35000D02*
G03*
X157000Y35000I-2000J0D01*
G01*
X117000Y80000D02*
G03*
X117000Y80000I-2000J0D01*
G01*
X112000D02*
G03*
X112000Y80000I-2000J0D01*
G01*
X107000D02*
G03*
X107000Y80000I-2000J0D01*
G01*
X97000Y40000D02*
G03*
X97000Y40000I-2000J0D01*
G01*
Y35000D02*
G03*
X97000Y35000I-2000J0D01*
G01*
X157000Y75000D02*
G03*
X157000Y75000I-2000J0D01*
G01*
Y50000D02*
G03*
X157000Y50000I-2000J0D01*
G01*
X97000Y75000D02*
G03*
X97000Y75000I-2000J0D01*
G01*
Y65000D02*
G03*
X97000Y65000I-2000J0D01*
G01*
Y70000D02*
G03*
X97000Y70000I-2000J0D01*
G01*
X157004Y45000D02*
G03*
X157004Y45000I-2000J0D01*
G01*
X157000Y70000D02*
G03*
X157000Y70000I-2000J0D01*
G01*
Y55000D02*
G03*
X157000Y55000I-2000J0D01*
G01*
Y60000D02*
G03*
X157000Y60000I-2000J0D01*
G01*
Y65000D02*
G03*
X157000Y65000I-2000J0D01*
G01*
Y40000D02*
G03*
X157000Y40000I-2000J0D01*
G01*
X152000Y80000D02*
G03*
X152000Y80000I-2000J0D01*
G01*
X102000D02*
G03*
X102000Y80000I-2000J0D01*
G01*
X122000D02*
G03*
X122000Y80000I-2000J0D01*
G01*
X97000Y60000D02*
G03*
X97000Y60000I-2000J0D01*
G01*
Y55000D02*
G03*
X97000Y55000I-2000J0D01*
G01*
Y50000D02*
G03*
X97000Y50000I-2000J0D01*
G01*
Y45000D02*
G03*
X97000Y45000I-2000J0D01*
G01*
X127000Y80000D02*
G03*
X127000Y80000I-2000J0D01*
G01*
X147000D02*
G03*
X147000Y80000I-2000J0D01*
G01*
X142000D02*
G03*
X142000Y80000I-2000J0D01*
G01*
X137000D02*
G03*
X137000Y80000I-2000J0D01*
G01*
X132000D02*
G03*
X132000Y80000I-2000J0D01*
G01*
X87000Y35000D02*
G03*
X87000Y35000I-2000J0D01*
G01*
X47000Y80000D02*
G03*
X47000Y80000I-2000J0D01*
G01*
X42000D02*
G03*
X42000Y80000I-2000J0D01*
G01*
X37000D02*
G03*
X37000Y80000I-2000J0D01*
G01*
X27000Y40000D02*
G03*
X27000Y40000I-2000J0D01*
G01*
Y35000D02*
G03*
X27000Y35000I-2000J0D01*
G01*
X87000Y75000D02*
G03*
X87000Y75000I-2000J0D01*
G01*
Y50000D02*
G03*
X87000Y50000I-2000J0D01*
G01*
X27000Y75000D02*
G03*
X27000Y75000I-2000J0D01*
G01*
Y65000D02*
G03*
X27000Y65000I-2000J0D01*
G01*
Y70000D02*
G03*
X27000Y70000I-2000J0D01*
G01*
X87004Y45000D02*
G03*
X87004Y45000I-2000J0D01*
G01*
X87000Y70000D02*
G03*
X87000Y70000I-2000J0D01*
G01*
Y55000D02*
G03*
X87000Y55000I-2000J0D01*
G01*
Y60000D02*
G03*
X87000Y60000I-2000J0D01*
G01*
Y65000D02*
G03*
X87000Y65000I-2000J0D01*
G01*
Y40000D02*
G03*
X87000Y40000I-2000J0D01*
G01*
X82000Y80000D02*
G03*
X82000Y80000I-2000J0D01*
G01*
X32000D02*
G03*
X32000Y80000I-2000J0D01*
G01*
X52000D02*
G03*
X52000Y80000I-2000J0D01*
G01*
X27000Y60000D02*
G03*
X27000Y60000I-2000J0D01*
G01*
Y55000D02*
G03*
X27000Y55000I-2000J0D01*
G01*
Y50000D02*
G03*
X27000Y50000I-2000J0D01*
G01*
Y45000D02*
G03*
X27000Y45000I-2000J0D01*
G01*
X57000Y80000D02*
G03*
X57000Y80000I-2000J0D01*
G01*
X77000D02*
G03*
X77000Y80000I-2000J0D01*
G01*
X72000D02*
G03*
X72000Y80000I-2000J0D01*
G01*
X67000D02*
G03*
X67000Y80000I-2000J0D01*
G01*
X62000D02*
G03*
X62000Y80000I-2000J0D01*
G01*
D17*
X416798Y63398D02*
X415599Y64598D01*
X413200D01*
X412000Y63398D01*
Y62199D01*
X413200Y60999D01*
X415599D01*
X416798Y59799D01*
Y58600D01*
X415599Y57400D01*
X413200D01*
X412000Y58600D01*
X419198Y62199D02*
Y58600D01*
X420397Y57400D01*
X423996D01*
Y56200D01*
X422797Y55001D01*
X421597D01*
X423996Y57400D02*
Y62199D01*
X426395Y57400D02*
Y62199D01*
X427595D01*
X428795Y60999D01*
Y57400D01*
Y60999D01*
X429994Y62199D01*
X431194Y60999D01*
Y57400D01*
X433593Y64598D02*
Y57400D01*
X437192D01*
X438391Y58600D01*
Y59799D01*
Y60999D01*
X437192Y62199D01*
X433593D01*
X441990Y57400D02*
X444390D01*
X445589Y58600D01*
Y60999D01*
X444390Y62199D01*
X441990D01*
X440791Y60999D01*
Y58600D01*
X441990Y57400D01*
X447988D02*
X450388D01*
X449188D01*
Y64598D01*
X447988D01*
X462388D02*
Y57400D01*
Y60999D01*
X467186D01*
Y64598D01*
Y57400D01*
X469585D02*
X471984D01*
X470785D01*
Y62199D01*
X469585D01*
X476783Y63398D02*
Y62199D01*
X475583D01*
X477983D01*
X476783D01*
Y58600D01*
X477983Y57400D01*
X493577Y63398D02*
X492378Y64598D01*
X489979D01*
X488779Y63398D01*
Y58600D01*
X489979Y57400D01*
X492378D01*
X493577Y58600D01*
X497176Y57400D02*
X499576D01*
X500775Y58600D01*
Y60999D01*
X499576Y62199D01*
X497176D01*
X495977Y60999D01*
Y58600D01*
X497176Y57400D01*
X503174Y62199D02*
Y58600D01*
X504374Y57400D01*
X507973D01*
Y62199D01*
X510372Y57400D02*
Y62199D01*
X513971D01*
X515170Y60999D01*
Y57400D01*
X518769Y63398D02*
Y62199D01*
X517570D01*
X519969D01*
X518769D01*
Y58600D01*
X519969Y57400D01*
X536767Y64598D02*
X531969D01*
Y60999D01*
X534368D01*
X531969D01*
Y57400D01*
X539167D02*
X541566D01*
X540366D01*
Y62199D01*
X539167D01*
X545165Y57400D02*
Y62199D01*
X548764D01*
X549963Y60999D01*
Y57400D01*
X552362D02*
X554762D01*
X553562D01*
Y62199D01*
X552362D01*
X558360Y57400D02*
X561959D01*
X563159Y58600D01*
X561959Y59799D01*
X559560D01*
X558360Y60999D01*
X559560Y62199D01*
X563159D01*
X565558Y64598D02*
Y57400D01*
Y60999D01*
X566758Y62199D01*
X569157D01*
X570357Y60999D01*
Y57400D01*
X576355D02*
X573955D01*
X572756Y58600D01*
Y60999D01*
X573955Y62199D01*
X576355D01*
X577554Y60999D01*
Y59799D01*
X572756D01*
X584752Y64598D02*
Y57400D01*
X581153D01*
X579953Y58600D01*
Y60999D01*
X581153Y62199D01*
X584752D01*
X594349Y64598D02*
Y57400D01*
Y60999D01*
X599147D01*
Y64598D01*
Y57400D01*
X602746D02*
X605145D01*
X606345Y58600D01*
Y60999D01*
X605145Y62199D01*
X602746D01*
X601546Y60999D01*
Y58600D01*
X602746Y57400D01*
X608744D02*
X611143D01*
X609944D01*
Y64598D01*
X608744D01*
X618341Y57400D02*
X615942D01*
X614742Y58600D01*
Y60999D01*
X615942Y62199D01*
X618341D01*
X619541Y60999D01*
Y59799D01*
X614742D01*
X633936Y63398D02*
X632736Y64598D01*
X630337D01*
X629138Y63398D01*
Y62199D01*
X630337Y60999D01*
X632736D01*
X633936Y59799D01*
Y58600D01*
X632736Y57400D01*
X630337D01*
X629138Y58600D01*
X636335Y57400D02*
X638734D01*
X637535D01*
Y62199D01*
X636335D01*
X642333D02*
X647132D01*
X642333Y57400D01*
X647132D01*
X653130D02*
X650731D01*
X649531Y58600D01*
Y60999D01*
X650731Y62199D01*
X653130D01*
X654329Y60999D01*
Y59799D01*
X649531D01*
X666329Y57400D02*
Y64598D01*
X669928D01*
X671128Y63398D01*
Y60999D01*
X669928Y59799D01*
X666329D01*
X673527Y57400D02*
X675926D01*
X674727D01*
Y64598D01*
X673527D01*
X680725Y62199D02*
X683124D01*
X684324Y60999D01*
Y57400D01*
X680725D01*
X679525Y58600D01*
X680725Y59799D01*
X684324D01*
X687922Y63398D02*
Y62199D01*
X686723D01*
X689122D01*
X687922D01*
Y58600D01*
X689122Y57400D01*
X696320D02*
X693920D01*
X692721Y58600D01*
Y60999D01*
X693920Y62199D01*
X696320D01*
X697519Y60999D01*
Y59799D01*
X692721D01*
X704717Y64598D02*
Y57400D01*
X701118D01*
X699919Y58600D01*
Y60999D01*
X701118Y62199D01*
X704717D01*
X716717Y64598D02*
Y57400D01*
Y60999D01*
X721515D01*
Y64598D01*
Y57400D01*
X725114D02*
X727514D01*
X728713Y58600D01*
Y60999D01*
X727514Y62199D01*
X725114D01*
X723915Y60999D01*
Y58600D01*
X725114Y57400D01*
X731112D02*
X733511D01*
X732312D01*
Y64598D01*
X731112D01*
X740709Y57400D02*
X738310D01*
X737110Y58600D01*
Y60999D01*
X738310Y62199D01*
X740709D01*
X741909Y60999D01*
Y59799D01*
X737110D01*
X751506Y64598D02*
X756304D01*
X753905D01*
Y57400D01*
X758703Y62199D02*
Y58600D01*
X759903Y57400D01*
X763502D01*
Y56200D01*
X762302Y55001D01*
X761103D01*
X763502Y57400D02*
Y62199D01*
X765901Y55001D02*
Y62199D01*
X769500D01*
X770700Y60999D01*
Y58600D01*
X769500Y57400D01*
X765901D01*
X776697D02*
X774298D01*
X773099Y58600D01*
Y60999D01*
X774298Y62199D01*
X776697D01*
X777897Y60999D01*
Y59799D01*
X773099D01*
X403200Y68200D02*
X789897D01*
X403200Y52000D02*
X789897D01*
X403200Y68200D02*
Y4000D01*
X789897Y68200D02*
Y4000D01*
X457988Y68200D02*
Y4000D01*
X527569Y68200D02*
Y4000D01*
X661929Y68200D02*
Y4000D01*
X712317Y68200D02*
Y4000D01*
X403200Y16000D02*
X789897D01*
X403200Y4000D02*
X789897D01*
D18*
X416800Y34000D02*
G03*
X416800Y34000I-2400J0D01*
G01*
M02*
